<svg xmlns="http://www.w3.org/2000/svg" xmlns:xlink="http://www.w3.org/1999/xlink" fill="none" version="1.1" width="24" height="24" viewBox="0 0 24 24"><g style="mix-blend-mode:passthrough"><g style="mix-blend-mode:passthrough"><g style="mix-blend-mode:passthrough"><g style="opacity:0.5799999833106995;mix-blend-mode:passthrough"></g><g style="mix-blend-mode:passthrough"><path d="M11,18C11,18,11.75,18,11.75,18C11.75,17.585786,11.41421,17.25,11,17.25C11,17.25,11,18,11,18C11,18,11,18,11,18ZM9,18C9,18,9,17.25,9,17.25C8.585786,17.25,8.25,17.585786,8.25,18C8.25,18,9,18,9,18C9,18,9,18,9,18ZM10.25,18C10.25,18,10.25,21,10.25,21C10.25,21,11.75,21,11.75,21C11.75,21,11.75,18,11.75,18C11.75,18,10.25,18,10.25,18C10.25,18,10.25,18,10.25,18ZM10.25,21C10.25,21.13579,10.13579,21.25,10,21.25C10,21.25,10,22.75,10,22.75C10.96421,22.75,11.75,21.96421,11.75,21C11.75,21,10.25,21,10.25,21C10.25,21,10.25,21,10.25,21ZM10,21.25C9.86421,21.25,9.75,21.13579,9.75,21C9.75,21,8.25,21,8.25,21C8.25,21.96421,9.035786,22.75,10,22.75C10,22.75,10,21.25,10,21.25C10,21.25,10,21.25,10,21.25ZM9.75,21C9.75,21,9.75,18,9.75,18C9.75,18,8.25,18,8.25,18C8.25,18,8.25,21,8.25,21C8.25,21,9.75,21,9.75,21C9.75,21,9.75,21,9.75,21ZM9,18.75C9,18.75,11,18.75,11,18.75C11,18.75,11,17.25,11,17.25C11,17.25,9,17.25,9,17.25C9,17.25,9,18.75,9,18.75C9,18.75,9,18.75,9,18.75Z" fill="#000000" fill-opacity="1"/></g><g style="mix-blend-mode:passthrough"><path d="M15,18C15,18,15.75,18,15.75,18C15.75,17.585786,15.41421,17.25,15,17.25C15,17.25,15,18,15,18C15,18,15,18,15,18ZM13,18C13,18,13,17.25,13,17.25C12.585786,17.25,12.25,17.585786,12.25,18C12.25,18,13,18,13,18C13,18,13,18,13,18ZM14.25,18C14.25,18,14.25,21,14.25,21C14.25,21,15.75,21,15.75,21C15.75,21,15.75,18,15.75,18C15.75,18,14.25,18,14.25,18C14.25,18,14.25,18,14.25,18ZM14.25,21C14.25,21.13579,14.13579,21.25,14,21.25C14,21.25,14,22.75,14,22.75C14.96421,22.75,15.75,21.96421,15.75,21C15.75,21,14.25,21,14.25,21C14.25,21,14.25,21,14.25,21ZM14,21.25C13.86421,21.25,13.75,21.13579,13.75,21C13.75,21,12.25,21,12.25,21C12.25,21.96421,13.035786,22.75,14,22.75C14,22.75,14,21.25,14,21.25C14,21.25,14,21.25,14,21.25ZM13.75,21C13.75,21,13.75,18,13.75,18C13.75,18,12.25,18,12.25,18C12.25,18,12.25,21,12.25,21C12.25,21,13.75,21,13.75,21C13.75,21,13.75,21,13.75,21ZM13,18.75C13,18.75,15,18.75,15,18.75C15,18.75,15,17.25,15,17.25C15,17.25,13,17.25,13,17.25C13,17.25,13,18.75,13,18.75C13,18.75,13,18.75,13,18.75Z" fill="#000000" fill-opacity="1"/></g><g style="mix-blend-mode:passthrough"><path d="M16.25,11C16.25,11,16.25,16,16.25,16C16.25,16,17.75,16,17.75,16C17.75,16,17.75,11,17.75,11C17.75,11,16.25,11,16.25,11C16.25,11,16.25,11,16.25,11ZM16.25,16C16.25,16.68579,15.68579,17.25,15,17.25C15,17.25,15,18.75,15,18.75C16.514200000000002,18.75,17.75,17.51421,17.75,16C17.75,16,16.25,16,16.25,16C16.25,16,16.25,16,16.25,16ZM15,17.25C15,17.25,9,17.25,9,17.25C9,17.25,9,18.75,9,18.75C9,18.75,15,18.75,15,18.75C15,18.75,15,17.25,15,17.25C15,17.25,15,17.25,15,17.25ZM9,17.25C8.31421,17.25,7.75,16.68579,7.75,16C7.75,16,6.25,16,6.25,16C6.25,17.51421,7.48579,18.75,9,18.75C9,18.75,9,17.25,9,17.25C9,17.25,9,17.25,9,17.25ZM7.75,16C7.75,16,7.75,11,7.75,11C7.75,11,6.25,11,6.25,11C6.25,11,6.25,16,6.25,16C6.25,16,7.75,16,7.75,16C7.75,16,7.75,16,7.75,16ZM7.75,11C7.75,10.31421,8.31421,9.75,9,9.75C9,9.75,9,8.25,9,8.25C7.48579,8.25,6.25,9.48579,6.25,11C6.25,11,7.75,11,7.75,11C7.75,11,7.75,11,7.75,11ZM9,9.75C9,9.75,15,9.75,15,9.75C15,9.75,15,8.25,15,8.25C15,8.25,9,8.25,9,8.25C9,8.25,9,9.75,9,9.75C9,9.75,9,9.75,9,9.75ZM15,9.75C15.68579,9.75,16.25,10.31421,16.25,11C16.25,11,17.75,11,17.75,11C17.75,9.48579,16.514200000000002,8.25,15,8.25C15,8.25,15,9.75,15,9.75C15,9.75,15,9.75,15,9.75Z" fill="#000000" fill-opacity="1"/></g><g style="opacity:0.4000000059604645;mix-blend-mode:passthrough"><path d="M4.25,11C4.25,11,4.25,15,4.25,15C4.25,15,5.75,15,5.75,15C5.75,15,5.75,11,5.75,11C5.75,11,4.25,11,4.25,11C4.25,11,4.25,11,4.25,11ZM4.25,15C4.25,15.13579,4.13579,15.25,4,15.25C4,15.25,4,16.75,4,16.75C4.96421,16.75,5.75,15.96421,5.75,15C5.75,15,4.25,15,4.25,15C4.25,15,4.25,15,4.25,15ZM4,15.25C3.86421,15.25,3.75,15.13579,3.75,15C3.75,15,2.25,15,2.25,15C2.25,15.96421,3.035786,16.75,4,16.75C4,16.75,4,15.25,4,15.25C4,15.25,4,15.25,4,15.25ZM3.75,15C3.75,15,3.75,11,3.75,11C3.75,11,2.25,11,2.25,11C2.25,11,2.25,15,2.25,15C2.25,15,3.75,15,3.75,15C3.75,15,3.75,15,3.75,15ZM3.75,11C3.75,10.86421,3.86421,10.75,4,10.75C4,10.75,4,9.25,4,9.25C3.035786,9.25,2.25,10.035786,2.25,11C2.25,11,3.75,11,3.75,11C3.75,11,3.75,11,3.75,11ZM4,10.75C4.13579,10.75,4.25,10.86421,4.25,11C4.25,11,5.75,11,5.75,11C5.75,10.035786,4.96421,9.25,4,9.25C4,9.25,4,10.75,4,10.75C4,10.75,4,10.75,4,10.75Z" fill="#000000" fill-opacity="1"/></g><g style="opacity:0.4000000059604645;mix-blend-mode:passthrough"><path d="M20.25,11C20.25,11,20.25,15,20.25,15C20.25,15,21.75,15,21.75,15C21.75,15,21.75,11,21.75,11C21.75,11,20.25,11,20.25,11C20.25,11,20.25,11,20.25,11ZM20.25,15C20.25,15.13579,20.13579,15.25,20,15.25C20,15.25,20,16.75,20,16.75C20.96421,16.75,21.75,15.96421,21.75,15C21.75,15,20.25,15,20.25,15C20.25,15,20.25,15,20.25,15ZM20,15.25C19.86421,15.25,19.75,15.13579,19.75,15C19.75,15,18.25,15,18.25,15C18.25,15.96421,19.035786,16.75,20,16.75C20,16.75,20,15.25,20,15.25C20,15.25,20,15.25,20,15.25ZM19.75,15C19.75,15,19.75,11,19.75,11C19.75,11,18.25,11,18.25,11C18.25,11,18.25,15,18.25,15C18.25,15,19.75,15,19.75,15C19.75,15,19.75,15,19.75,15ZM19.75,11C19.75,10.86421,19.86421,10.75,20,10.75C20,10.75,20,9.25,20,9.25C19.035786,9.25,18.25,10.035786,18.25,11C18.25,11,19.75,11,19.75,11C19.75,11,19.75,11,19.75,11ZM20,10.75C20.13579,10.75,20.25,10.86421,20.25,11C20.25,11,21.75,11,21.75,11C21.75,10.035786,20.96421,9.25,20,9.25C20,9.25,20,10.75,20,10.75C20,10.75,20,10.75,20,10.75Z" fill="#000000" fill-opacity="1"/></g><g style="mix-blend-mode:passthrough"><path d="M13,18.75C13.41421,18.75,13.75,18.41421,13.75,18C13.75,17.585786,13.41421,17.25,13,17.25C13,17.25,13,18.75,13,18.75C13,18.75,13,18.75,13,18.75ZM11,17.25C10.585786,17.25,10.25,17.585786,10.25,18C10.25,18.41421,10.585786,18.75,11,18.75C11,18.75,11,17.25,11,17.25C11,17.25,11,17.25,11,17.25ZM13,17.25C13,17.25,11,17.25,11,17.25C11,17.25,11,18.75,11,18.75C11,18.75,13,18.75,13,18.75C13,18.75,13,17.25,13,17.25C13,17.25,13,17.25,13,17.25Z" fill="#000000" fill-opacity="1"/></g><g style="opacity:0.4000000059604645;mix-blend-mode:passthrough"><path d="M9.59998,7.750003896484375C9.59998,7.750003896484375,14.40002,7.750003896484375,14.40002,7.750003896484375C14.40002,7.750003896484375,14.40002,6.250003896484375,14.40002,6.250003896484375C14.40002,6.250003896484375,9.59998,6.250003896484375,9.59998,6.250003896484375C9.59998,6.250003896484375,9.59998,7.750003896484375,9.59998,7.750003896484375C9.59998,7.750003896484375,9.59998,7.750003896484375,9.59998,7.750003896484375ZM14.40002,7.750003896484375C15.69426,7.750003896484375,16.75,6.694193896484375,16.75,5.399993896484375C16.75,5.399993896484375,15.25,5.399993896484375,15.25,5.399993896484375C15.25,5.865803896484375,14.86579,6.250003896484375,14.40002,6.250003896484375C14.40002,6.250003896484375,14.40002,7.750003896484375,14.40002,7.750003896484375C14.40002,7.750003896484375,14.40002,7.750003896484375,14.40002,7.750003896484375ZM16.75,5.399993896484375C16.75,2.775783896484375,14.62421,0.6499938964843752,12,0.6499938964843752C12,0.6499938964843752,12,2.149993896484375,12,2.149993896484375C13.79579,2.149993896484375,15.25,3.604203896484375,15.25,5.399993896484375C15.25,5.399993896484375,16.75,5.399993896484375,16.75,5.399993896484375C16.75,5.399993896484375,16.75,5.399993896484375,16.75,5.399993896484375ZM12,0.6499938964843752C9.37579,0.6499938964843752,7.25,2.775783896484375,7.25,5.399993896484375C7.25,5.399993896484375,8.75,5.399993896484375,8.75,5.399993896484375C8.75,3.604203896484375,10.20421,2.149993896484375,12,2.149993896484375C12,2.149993896484375,12,0.6499938964843752,12,0.6499938964843752C12,0.6499938964843752,12,0.6499938964843752,12,0.6499938964843752ZM7.25,5.399993896484375C7.25,6.694193896484375,8.30574,7.750003896484375,9.59998,7.750003896484375C9.59998,7.750003896484375,9.59998,6.250003896484375,9.59998,6.250003896484375C9.13421,6.250003896484375,8.75,5.865803896484375,8.75,5.399993896484375C8.75,5.399993896484375,7.25,5.399993896484375,7.25,5.399993896484375C7.25,5.399993896484375,7.25,5.399993896484375,7.25,5.399993896484375Z" fill="#000000" fill-opacity="1"/></g><g style="opacity:0;mix-blend-mode:passthrough"></g></g></g></g></svg>