<svg xmlns="http://www.w3.org/2000/svg" xmlns:xlink="http://www.w3.org/1999/xlink" fill="none" version="1.1" width="24" height="24" viewBox="0 0 24 24"><g style="mix-blend-mode:passthrough"><g style="mix-blend-mode:passthrough"><g style="mix-blend-mode:passthrough"><g style="mix-blend-mode:passthrough"></g><g style="mix-blend-mode:passthrough"><path d="M10,22.75C9.04,22.75,8.25,21.96,8.25,21C8.25,21,8.25,18,8.25,18C8.25,17.59,8.59,17.25,9,17.25C9,17.25,11,17.25,11,17.25C11.41,17.25,11.75,17.59,11.75,18C11.75,18,11.75,21,11.75,21C11.75,21.96,10.96,22.75,10,22.75C10,22.75,10,22.75,10,22.75ZM9.75,18.75C9.75,18.75,9.75,21,9.75,21C9.75,21.27,10.25,21.27,10.25,21C10.25,21,10.25,18.75,10.25,18.75C10.25,18.75,9.75,18.75,9.75,18.75C9.75,18.75,9.75,18.75,9.75,18.75Z" fill="#000000" fill-opacity="1"/></g><g style="mix-blend-mode:passthrough"><path d="M14,22.75C13.04,22.75,12.25,21.96,12.25,21C12.25,21,12.25,18,12.25,18C12.25,17.59,12.59,17.25,13,17.25C13,17.25,15,17.25,15,17.25C15.41,17.25,15.75,17.59,15.75,18C15.75,18,15.75,21,15.75,21C15.75,21.96,14.96,22.75,14,22.75C14,22.75,14,22.75,14,22.75ZM13.75,18.75C13.75,18.75,13.75,21,13.75,21C13.75,21.27,14.25,21.27,14.25,21C14.25,21,14.25,18.75,14.25,18.75C14.25,18.75,13.75,18.75,13.75,18.75C13.75,18.75,13.75,18.75,13.75,18.75Z" fill="#000000" fill-opacity="1"/></g><g style="mix-blend-mode:passthrough"><path d="M15,18.75C15,18.75,9,18.75,9,18.75C7.48,18.75,6.25,17.52,6.25,16C6.25,16,6.25,11,6.25,11C6.25,9.48,7.48,8.25,9,8.25C9,8.25,15,8.25,15,8.25C16.52,8.25,17.75,9.48,17.75,11C17.75,11,17.75,16,17.75,16C17.75,17.52,16.52,18.75,15,18.75C15,18.75,15,18.75,15,18.75ZM9,9.75C8.31,9.75,7.75,10.31,7.75,11C7.75,11,7.75,16,7.75,16C7.75,16.689999999999998,8.31,17.25,9,17.25C9,17.25,15,17.25,15,17.25C15.69,17.25,16.25,16.689999999999998,16.25,16C16.25,16,16.25,11,16.25,11C16.25,10.31,15.69,9.75,15,9.75C15,9.75,9,9.75,9,9.75C9,9.75,9,9.75,9,9.75Z" fill="#000000" fill-opacity="1"/></g><g style="mix-blend-mode:passthrough"><path d="M4,16.75C3.04,16.75,2.25,15.96,2.25,15C2.25,15,2.25,11,2.25,11C2.25,10.04,3.04,9.25,4,9.25C4.96,9.25,5.75,10.04,5.75,11C5.75,11,5.75,15,5.75,15C5.75,15.96,4.96,16.75,4,16.75C4,16.75,4,16.75,4,16.75ZM4,10.75C3.8600000000000003,10.75,3.75,10.86,3.75,11C3.75,11,3.75,15,3.75,15C3.75,15.280000000000001,4.25,15.280000000000001,4.25,15C4.25,15,4.25,11,4.25,11C4.25,10.86,4.14,10.75,4,10.75C4,10.75,4,10.75,4,10.75Z" fill="#000000" fill-opacity="1"/></g><g style="mix-blend-mode:passthrough"><path d="M20,16.75C19.04,16.75,18.25,15.96,18.25,15C18.25,15,18.25,11,18.25,11C18.25,10.04,19.04,9.25,20,9.25C20.96,9.25,21.75,10.04,21.75,11C21.75,11,21.75,15,21.75,15C21.75,15.96,20.96,16.75,20,16.75C20,16.75,20,16.75,20,16.75ZM20,10.75C19.86,10.75,19.75,10.86,19.75,11C19.75,11,19.75,15,19.75,15C19.75,15.280000000000001,20.25,15.280000000000001,20.25,15C20.25,15,20.25,11,20.25,11C20.25,10.86,20.14,10.75,20,10.75C20,10.75,20,10.75,20,10.75Z" fill="#000000" fill-opacity="1"/></g><g style="mix-blend-mode:passthrough"><path d="M13,18.75C13,18.75,11,18.75,11,18.75C10.59,18.75,10.25,18.41,10.25,18C10.25,17.59,10.59,17.25,11,17.25C11,17.25,13,17.25,13,17.25C13.41,17.25,13.75,17.59,13.75,18C13.75,18.41,13.41,18.75,13,18.75C13,18.75,13,18.75,13,18.75Z" fill="#000000" fill-opacity="1"/></g><g style="mix-blend-mode:passthrough"><path d="M14.40002,7.750003896484375C14.40002,7.750003896484375,9.59998,7.750003896484375,9.59998,7.750003896484375C8.29998,7.750003896484375,7.25,6.699993896484375,7.25,5.399993896484375C7.25,2.779993896484375,9.379999999999999,0.649993896484375,12,0.649993896484375C14.620000000000001,0.649993896484375,16.75,2.779993896484375,16.75,5.399993896484375C16.75,6.699993896484375,15.70002,7.750003896484375,14.40002,7.750003896484375C14.40002,7.750003896484375,14.40002,7.750003896484375,14.40002,7.750003896484375ZM12,2.149993896484375C10.21,2.149993896484375,8.75,3.609993896484375,8.75,5.399993896484375C8.75,5.869993896484375,9.12998,6.250003896484375,9.59998,6.250003896484375C9.59998,6.250003896484375,14.40002,6.250003896484375,14.40002,6.250003896484375C14.87002,6.250003896484375,15.25,5.869993896484375,15.25,5.399993896484375C15.25,3.609993896484375,13.79,2.149993896484375,12,2.149993896484375C12,2.149993896484375,12,2.149993896484375,12,2.149993896484375Z" fill="#000000" fill-opacity="1"/></g><g style="opacity:0;mix-blend-mode:passthrough"></g></g></g></g></svg>