<svg xmlns="http://www.w3.org/2000/svg" xmlns:xlink="http://www.w3.org/1999/xlink" fill="none" version="1.1" width="24" height="24" viewBox="0 0 24 24"><g style="mix-blend-mode:passthrough"><g style="mix-blend-mode:passthrough"><g style="mix-blend-mode:passthrough"><g style="mix-blend-mode:passthrough"><g style="mix-blend-mode:passthrough"><path d="M11,18C11,18,11,21,11,21C11,21.55,10.55,22,10,22C9.45,22,9,21.55,9,21C9,21,9,18,9,18C9,18,11,18,11,18C11,18,11,18,11,18Z" fill="#000000" fill-opacity="1"/></g><g style="mix-blend-mode:passthrough"><path d="M15,18C15,18,15,21,15,21C15,21.55,14.55,22,14,22C13.45,22,13,21.55,13,21C13,21,13,18,13,18C13,18,15,18,15,18C15,18,15,18,15,18Z" fill="#000000" fill-opacity="1"/></g><g style="opacity:0.4000000059604645;mix-blend-mode:passthrough"><path d="M17,11C17,11,17,16,17,16C17,17.1,16.1,18,15,18C15,18,9,18,9,18C7.9,18,7,17.1,7,16C7,16,7,11,7,11C7,9.9,7.9,9,9,9C9,9,15,9,15,9C16.1,9,17,9.9,17,11C17,11,17,11,17,11Z" fill="#000000" fill-opacity="1"/></g><g style="mix-blend-mode:passthrough"><path d="M5,11C5,11,5,15,5,15C5,15.55,4.55,16,4,16C3.45,16,3,15.55,3,15C3,15,3,11,3,11C3,10.45,3.45,10,4,10C4.55,10,5,10.45,5,11C5,11,5,11,5,11Z" fill="#000000" fill-opacity="1"/></g><g style="mix-blend-mode:passthrough"><path d="M21,11C21,11,21,15,21,15C21,15.55,20.55,16,20,16C19.45,16,19,15.55,19,15C19,15,19,11,19,11C19,10.45,19.45,10,20,10C20.55,10,21,10.45,21,11C21,11,21,11,21,11Z" fill="#000000" fill-opacity="1"/></g><g style="opacity:0.4000000059604645;mix-blend-mode:passthrough"><path d="M9.59998,7.60001C9.59998,7.60001,14.40002,7.60001,14.40002,7.60001C15.28002,7.60001,16,6.88,16,6C16,3.79,14.21,2,12,2C9.79,2,8,3.79,8,6C8,6.88,8.719975999999999,7.60001,9.59998,7.60001C9.59998,7.60001,9.59998,7.60001,9.59998,7.60001Z" fill="#000000" fill-opacity="1"/></g></g><g style="opacity:0;mix-blend-mode:passthrough"></g></g></g></g></svg>