<svg xmlns="http://www.w3.org/2000/svg" xmlns:xlink="http://www.w3.org/1999/xlink" fill="none" version="1.1" width="24" height="24" viewBox="0 0 24 24"><g style="mix-blend-mode:passthrough"><g style="mix-blend-mode:passthrough"><g style="mix-blend-mode:passthrough"><g style="mix-blend-mode:passthrough"><path d="M8.75,2C8.75,1.585786,8.41421,1.25,8,1.25C7.585786,1.25,7.25,1.585786,7.25,2C7.25,2,8.75,2,8.75,2C8.75,2,8.75,2,8.75,2ZM7.25,5C7.25,5.41421,7.585786,5.75,8,5.75C8.41421,5.75,8.75,5.41421,8.75,5C8.75,5,7.25,5,7.25,5C7.25,5,7.25,5,7.25,5ZM7.25,2C7.25,2,7.25,5,7.25,5C7.25,5,8.75,5,8.75,5C8.75,5,8.75,2,8.75,2C8.75,2,7.25,2,7.25,2C7.25,2,7.25,2,7.25,2Z" fill="#000000" fill-opacity="1"/></g><g style="mix-blend-mode:passthrough"><path d="M16.75,2C16.75,1.585786,16.41421,1.25,16,1.25C15.585786,1.25,15.25,1.585786,15.25,2C15.25,2,16.75,2,16.75,2C16.75,2,16.75,2,16.75,2ZM15.25,5C15.25,5.41421,15.585786,5.75,16,5.75C16.41421,5.75,16.75,5.41421,16.75,5C16.75,5,15.25,5,15.25,5C15.25,5,15.25,5,15.25,5ZM15.25,2C15.25,2,15.25,5,15.25,5C15.25,5,16.75,5,16.75,5C16.75,5,16.75,2,16.75,2C16.75,2,15.25,2,15.25,2C15.25,2,15.25,2,15.25,2Z" fill="#000000" fill-opacity="1"/></g><g style="opacity:0.4000000059604645;mix-blend-mode:passthrough"><path d="M3.5,8.339996337890625C3.085786,8.339996337890625,2.75,8.675782337890626,2.75,9.089996337890625C2.75,9.504206337890626,3.085786,9.839996337890625,3.5,9.839996337890625C3.5,9.839996337890625,3.5,8.339996337890625,3.5,8.339996337890625C3.5,8.339996337890625,3.5,8.339996337890625,3.5,8.339996337890625ZM20.5,9.839996337890625C20.9142,9.839996337890625,21.25,9.504206337890626,21.25,9.089996337890625C21.25,8.675782337890626,20.9142,8.339996337890625,20.5,8.339996337890625C20.5,8.339996337890625,20.5,9.839996337890625,20.5,9.839996337890625C20.5,9.839996337890625,20.5,9.839996337890625,20.5,9.839996337890625ZM3.5,9.839996337890625C3.5,9.839996337890625,20.5,9.839996337890625,20.5,9.839996337890625C20.5,9.839996337890625,20.5,8.339996337890625,20.5,8.339996337890625C20.5,8.339996337890625,3.5,8.339996337890625,3.5,8.339996337890625C3.5,8.339996337890625,3.5,9.839996337890625,3.5,9.839996337890625C3.5,9.839996337890625,3.5,9.839996337890625,3.5,9.839996337890625Z" fill="#000000" fill-opacity="1"/></g><g style="mix-blend-mode:passthrough"><g style="mix-blend-mode:passthrough"><path d="M19.209999118041992,15.769996934814452C19.209999118041992,15.769996934814452,18.679669118041993,15.239670934814454,18.679669118041993,15.239670934814454C18.679669118041993,15.239670934814454,18.679669118041993,15.239672934814454,18.679669118041993,15.239672934814454C18.679669118041993,15.239672934814454,19.209999118041992,15.769996934814452,19.209999118041992,15.769996934814452C19.209999118041992,15.769996934814452,19.209999118041992,15.769996934814452,19.209999118041992,15.769996934814452ZM15.670019118041992,19.310006934814453C15.670019118041992,19.310006934814453,16.20034911804199,19.840336934814452,16.20034911804199,19.840336934814452C16.20034911804199,19.840336934814452,16.20034911804199,19.840336934814452,16.20034911804199,19.840336934814452C16.20034911804199,19.840336934814452,15.670019118041992,19.310006934814453,15.670019118041992,19.310006934814453C15.670019118041992,19.310006934814453,15.670019118041992,19.310006934814453,15.670019118041992,19.310006934814453ZM15.370002118041992,19.899996934814453C15.370002118041992,19.899996934814453,14.629076118041992,19.783016934814455,14.629076118041992,19.783016934814455C14.629076118041992,19.783016934814455,14.627322118041992,19.795476934814452,14.627322118041992,19.795476934814452C14.627322118041992,19.795476934814452,15.370002118041992,19.899996934814453,15.370002118041992,19.899996934814453C15.370002118041992,19.899996934814453,15.370002118041992,19.899996934814453,15.370002118041992,19.899996934814453ZM15.180000118041992,21.250006934814454C15.180000118041992,21.250006934814454,15.922459118041992,21.356076934814453,15.922459118041992,21.356076934814453C15.922459118041992,21.356076934814453,15.922679118041993,21.354536934814455,15.922679118041993,21.354536934814455C15.922679118041993,21.354536934814455,15.180000118041992,21.250006934814454,15.180000118041992,21.250006934814454C15.180000118041992,21.250006934814454,15.180000118041992,21.250006934814454,15.180000118041992,21.250006934814454ZM15.940009118041992,22.010016934814452C15.940009118041992,22.010016934814452,15.835479118041992,21.267336934814452,15.835479118041992,21.267336934814452C15.835479118041992,21.267336934814452,15.833939118041993,21.267556934814454,15.833939118041993,21.267556934814454C15.833939118041993,21.267556934814454,15.940009118041992,22.010016934814452,15.940009118041992,22.010016934814452C15.940009118041992,22.010016934814452,15.940009118041992,22.010016934814452,15.940009118041992,22.010016934814452ZM17.290019118041993,21.820016934814454C17.290019118041993,21.820016934814454,17.394559118041993,22.562796934814454,17.394559118041993,22.562796934814454C17.394559118041993,22.562796934814454,17.40698911804199,22.560836934814454,17.40698911804199,22.560836934814454C17.40698911804199,22.560836934814454,17.290019118041993,21.820016934814454,17.290019118041993,21.820016934814454C17.290019118041993,21.820016934814454,17.290019118041993,21.820016934814454,17.290019118041993,21.820016934814454ZM17.880009118041993,21.519996934814454C17.880009118041993,21.519996934814454,17.349689118041994,20.98966693481445,17.349689118041994,20.98966693481445C17.343139118041993,20.996206934814452,17.33671911804199,21.002876934814452,17.33041911804199,21.00965693481445C17.33041911804199,21.00965693481445,17.880009118041993,21.519996934814454,17.880009118041993,21.519996934814454C17.880009118041993,21.519996934814454,17.880009118041993,21.519996934814454,17.880009118041993,21.519996934814454ZM21.420019118041992,17.980016934814454C21.420019118041992,17.980016934814454,21.95034911804199,18.510346934814454,21.95034911804199,18.510346934814454C21.95034911804199,18.510346934814454,21.95034911804199,18.510346934814454,21.95034911804199,18.510346934814454C21.95034911804199,18.510346934814454,21.420019118041992,17.980016934814454,21.420019118041992,17.980016934814454C21.420019118041992,17.980016934814454,21.420019118041992,17.980016934814454,21.420019118041992,17.980016934814454ZM18.679669118041993,15.239672934814454C18.679669118041993,15.239672934814454,15.139688118041992,18.779676934814454,15.139688118041992,18.779676934814454C15.139688118041992,18.779676934814454,16.20034911804199,19.840336934814452,16.20034911804199,19.840336934814452C16.20034911804199,19.840336934814452,19.74032911804199,16.300326934814453,19.74032911804199,16.300326934814453C19.74032911804199,16.300326934814453,18.679669118041993,15.239672934814454,18.679669118041993,15.239672934814454C18.679669118041993,15.239672934814454,18.679669118041993,15.239672934814454,18.679669118041993,15.239672934814454ZM15.139690118041992,18.779676934814454C14.997374118041993,18.921986934814452,14.887122118041992,19.094316934814454,14.809536118041992,19.247676934814454C14.731958118041993,19.401006934814454,14.659767118041993,19.589316934814452,14.629180118041992,19.78302693481445C14.629180118041992,19.78302693481445,16.11082911804199,20.01697693481445,16.11082911804199,20.01697693481445C16.109839118041993,20.023196934814454,16.110609118041992,20.015546934814452,16.11795911804199,19.994486934814454C16.124879118041992,19.974666934814454,16.135009118041992,19.950476934814454,16.14798911804199,19.924836934814454C16.160969118041994,19.899176934814452,16.174409118041993,19.876766934814455,16.186259118041992,19.859536934814454C16.198809118041993,19.841286934814452,16.20456911804199,19.836116934814452,16.20034911804199,19.840336934814452C16.20034911804199,19.840336934814452,15.139690118041992,18.779676934814454,15.139690118041992,18.779676934814454C15.139690118041992,18.779676934814454,15.139690118041992,18.779676934814454,15.139690118041992,18.779676934814454ZM14.627322118041992,19.795476934814452C14.627322118041992,19.795476934814452,14.437318918041992,21.145476934814454,14.437318918041992,21.145476934814454C14.437318918041992,21.145476934814454,15.922679118041993,21.354536934814455,15.922679118041993,21.354536934814455C15.922679118041993,21.354536934814455,16.112679118041992,20.004526934814454,16.112679118041992,20.004526934814454C16.112679118041992,20.004526934814454,14.627322118041992,19.795476934814452,14.627322118041992,19.795476934814452C14.627322118041992,19.795476934814452,14.627322118041992,19.795476934814452,14.627322118041992,19.795476934814452ZM14.437537918041992,21.143936934814455C14.374423918041993,21.585736934814452,14.490538918041992,22.041206934814454,14.819675118041992,22.370346934814453C15.148810118041991,22.699476934814452,15.604279118041992,22.81559693481445,16.04607911804199,22.752476934814453C16.04607911804199,22.752476934814453,15.833939118041993,21.267556934814454,15.833939118041993,21.267556934814454C15.807779118041992,21.27129693481445,15.804699118041992,21.266716934814454,15.818759118041992,21.270906934814455C15.833669118041993,21.275346934814454,15.857459118041993,21.286806934814454,15.880339118041991,21.309686934814454C15.903219118041992,21.33256693481445,15.914679118041992,21.356346934814454,15.919119118041992,21.371256934814454C15.923299118041992,21.385316934814455,15.918719118041992,21.382236934814454,15.922459118041992,21.356076934814453C15.922459118041992,21.356076934814453,14.437537918041992,21.143936934814455,14.437537918041992,21.143936934814455C14.437537918041992,21.143936934814455,14.437537918041992,21.143936934814455,14.437537918041992,21.143936934814455ZM16.044539118041993,22.752696934814452C16.044539118041993,22.752696934814452,17.39453911804199,22.562696934814454,17.39453911804199,22.562696934814454C17.39453911804199,22.562696934814454,17.185489118041993,21.077336934814454,17.185489118041993,21.077336934814454C17.185489118041993,21.077336934814454,15.835479118041992,21.267336934814452,15.835479118041992,21.267336934814452C15.835479118041992,21.267336934814452,16.044539118041993,22.752696934814452,16.044539118041993,22.752696934814452C16.044539118041993,22.752696934814452,16.044539118041993,22.752696934814452,16.044539118041993,22.752696934814452ZM17.40698911804199,22.560836934814454C17.597659118041992,22.530726934814453,17.787099118041994,22.459996934814455,17.94294911804199,22.382066934814453C18.095009118041993,22.306026934814454,18.28104911804199,22.190316934814454,18.42960911804199,22.030336934814454C18.42960911804199,22.030336934814454,17.33041911804199,21.00965693481445,17.33041911804199,21.00965693481445C17.343959118041994,20.995066934814453,17.34711911804199,20.995126934814454,17.331809118041992,21.005756934814453C17.318189118041992,21.015216934814454,17.29775911804199,21.027606934814454,17.272079118041994,21.040446934814454C17.246599118041992,21.053186934814452,17.221489118041994,21.06360693481445,17.200129118041993,21.07094693481445C17.177429118041992,21.078756934814454,17.16808911804199,21.079976934814454,17.17304911804199,21.079196934814455C17.17304911804199,21.079196934814455,17.40698911804199,22.560836934814454,17.40698911804199,22.560836934814454C17.40698911804199,22.560836934814454,17.40698911804199,22.560836934814454,17.40698911804199,22.560836934814454ZM18.410339118041993,22.050326934814453C18.410339118041993,22.050326934814453,21.95034911804199,18.510346934814454,21.95034911804199,18.510346934814454C21.95034911804199,18.510346934814454,20.889689118041993,17.44968693481445,20.889689118041993,17.44968693481445C20.889689118041993,17.44968693481445,17.349689118041994,20.98966693481445,17.349689118041994,20.98966693481445C17.349689118041994,20.98966693481445,18.410339118041993,22.050326934814453,18.410339118041993,22.050326934814453C18.410339118041993,22.050326934814453,18.410339118041993,22.050326934814453,18.410339118041993,22.050326934814453ZM21.95034911804199,18.510346934814454C22.297979118041994,18.162726934814454,22.670749118041993,17.677766934814453,22.73262911804199,17.05263693481445C22.79841911804199,16.38783693481445,22.496939118041993,15.776276934814453,21.95034911804199,15.229691934814452C21.95034911804199,15.229691934814452,20.889689118041993,16.290346934814455,20.889689118041993,16.290346934814455C21.243109118041993,16.643766934814455,21.24661911804199,16.837196934814454,21.239919118041993,16.904896934814452C21.22928911804199,17.012266934814452,21.152069118041993,17.187316934814454,20.889689118041993,17.44968693481445C20.889689118041993,17.44968693481445,21.95034911804199,18.510346934814454,21.95034911804199,18.510346934814454C21.95034911804199,18.510346934814454,21.95034911804199,18.510346934814454,21.95034911804199,18.510346934814454ZM21.95034911804199,15.229691934814452C21.406849118041993,14.686192934814454,20.796579118041993,14.388309834814454,20.13336911804199,14.456436864814453C19.51124911804199,14.520343834814453,19.027339118041994,14.892004934814453,18.679669118041993,15.239670934814454C18.679669118041993,15.239670934814454,19.74032911804199,16.300326934814453,19.74032911804199,16.300326934814453C20.002659118041993,16.03799693481445,20.17875911804199,15.959666934814454,20.286649118041993,15.948586934814454C20.353449118041993,15.941726934814453,20.543189118041994,15.943846934814452,20.889689118041993,16.290346934814455C20.889689118041993,16.290346934814455,21.95034911804199,15.229691934814452,21.95034911804199,15.229691934814452C21.95034911804199,15.229691934814452,21.95034911804199,15.229691934814452,21.95034911804199,15.229691934814452Z" fill="#000000" fill-opacity="1"/></g><g style="mix-blend-mode:passthrough"><path d="M19.422652425842287,16.07926575968933C19.311792425842285,15.68016375968933,18.898381425842285,15.44649865968933,18.499279425842285,15.557360659689332C18.100177425842286,15.668221759689331,17.866512325842287,16.08162975968933,17.977374325842284,16.48073175968933C17.977374325842284,16.48073175968933,19.422652425842287,16.07926575968933,19.422652425842287,16.07926575968933C19.422652425842287,16.07926575968933,19.422652425842287,16.07926575968933,19.422652425842287,16.07926575968933ZM20.719282425842284,19.222638759689332C21.118382425842285,19.33349875968933,21.531792425842283,19.09983875968933,21.642652425842286,18.70072875968933C21.753512425842285,18.30162875968933,21.519852425842284,17.88821875968933,21.120742425842284,17.77735875968933C21.120742425842284,17.77735875968933,20.719282425842284,19.222638759689332,20.719282425842284,19.222638759689332C20.719282425842284,19.222638759689332,20.719282425842284,19.222638759689332,20.719282425842284,19.222638759689332ZM17.977374325842284,16.48073175968933C18.347778425842286,17.81418875968933,19.385822425842285,18.85223875968933,20.719282425842284,19.222638759689332C20.719282425842284,19.222638759689332,21.120742425842284,17.77735875968933,21.120742425842284,17.77735875968933C20.294202425842286,17.54776875968933,19.652242425842285,16.905808759689332,19.422652425842287,16.07926575968933C19.422652425842287,16.07926575968933,17.977374325842284,16.48073175968933,17.977374325842284,16.48073175968933C17.977374325842284,16.48073175968933,17.977374325842284,16.48073175968933,17.977374325842284,16.48073175968933Z" fill="#000000" fill-opacity="1"/></g></g><g style="mix-blend-mode:passthrough"><path d="M12,22.75C12.4142,22.75,12.75,22.4142,12.75,22C12.75,21.5858,12.4142,21.25,12,21.25C12,21.25,12,22.75,12,22.75C12,22.75,12,22.75,12,22.75ZM20.25,12C20.25,12.41421,20.5858,12.75,21,12.75C21.4142,12.75,21.75,12.41421,21.75,12C21.75,12,20.25,12,20.25,12C20.25,12,20.25,12,20.25,12ZM12,21.25C12,21.25,8,21.25,8,21.25C8,21.25,8,22.75,8,22.75C8,22.75,12,22.75,12,22.75C12,22.75,12,21.25,12,21.25C12,21.25,12,21.25,12,21.25ZM8,21.25C6.39295,21.25,5.36848,20.7946,4.7371,20.1147C4.09637,19.4246,3.75,18.384999999999998,3.75,17C3.75,17,2.25,17,2.25,17C2.25,18.615000000000002,2.653634,20.0754,3.6379099999999998,21.1353C4.63152,22.2054,6.10705,22.75,8,22.75C8,22.75,8,21.25,8,21.25C8,21.25,8,21.25,8,21.25ZM3.75,17C3.75,17,3.75,8.5,3.75,8.5C3.75,8.5,2.25,8.5,2.25,8.5C2.25,8.5,2.25,17,2.25,17C2.25,17,3.75,17,3.75,17C3.75,17,3.75,17,3.75,17ZM3.75,8.5C3.75,7.11497,4.09637,6.07535,4.7371,5.385339999999999C5.36848,4.70538,6.39295,4.25,8,4.25C8,4.25,8,2.75,8,2.75C6.10705,2.75,4.63152,3.294615,3.6379099999999998,4.36466C2.653634,5.42465,2.25,6.88503,2.25,8.5C2.25,8.5,3.75,8.5,3.75,8.5C3.75,8.5,3.75,8.5,3.75,8.5ZM8,4.25C8,4.25,16,4.25,16,4.25C16,4.25,16,2.75,16,2.75C16,2.75,8,2.75,8,2.75C8,2.75,8,4.25,8,4.25C8,4.25,8,4.25,8,4.25ZM16,4.25C17.607,4.25,18.6315,4.70538,19.2629,5.385339999999999C19.9036,6.07535,20.25,7.11497,20.25,8.5C20.25,8.5,21.75,8.5,21.75,8.5C21.75,6.88503,21.3464,5.42465,20.3621,4.36466C19.3685,3.294615,17.893,2.75,16,2.75C16,2.75,16,4.25,16,4.25C16,4.25,16,4.25,16,4.25ZM20.25,8.5C20.25,8.5,20.25,12,20.25,12C20.25,12,21.75,12,21.75,12C21.75,12,21.75,8.5,21.75,8.5C21.75,8.5,20.25,8.5,20.25,8.5C20.25,8.5,20.25,8.5,20.25,8.5Z" fill="#000000" fill-opacity="1"/></g><g style="opacity:0;mix-blend-mode:passthrough"></g><g style="opacity:0.4000000059604645;mix-blend-mode:passthrough"><path d="M11.9954833984375,12.70001220703125C11.4431983984375,12.70001220703125,10.9954833984375,13.14772720703125,10.9954833984375,13.70001220703125C10.9954833984375,14.25229220703125,11.4431983984375,14.70001220703125,11.9954833984375,14.70001220703125C11.9954833984375,14.70001220703125,11.9954833984375,12.70001220703125,11.9954833984375,12.70001220703125C11.9954833984375,12.70001220703125,11.9954833984375,12.70001220703125,11.9954833984375,12.70001220703125ZM12.0044633984375,14.70001220703125C12.5567533984375,14.70001220703125,13.004463398437501,14.25229220703125,13.004463398437501,13.70001220703125C13.004463398437501,13.14772720703125,12.5567533984375,12.70001220703125,12.0044633984375,12.70001220703125C12.0044633984375,12.70001220703125,12.0044633984375,14.70001220703125,12.0044633984375,14.70001220703125C12.0044633984375,14.70001220703125,12.0044633984375,14.70001220703125,12.0044633984375,14.70001220703125ZM11.9954833984375,14.70001220703125C11.9954833984375,14.70001220703125,12.0044633984375,14.70001220703125,12.0044633984375,14.70001220703125C12.0044633984375,14.70001220703125,12.0044633984375,12.70001220703125,12.0044633984375,12.70001220703125C12.0044633984375,12.70001220703125,11.9954833984375,12.70001220703125,11.9954833984375,12.70001220703125C11.9954833984375,12.70001220703125,11.9954833984375,14.70001220703125,11.9954833984375,14.70001220703125C11.9954833984375,14.70001220703125,11.9954833984375,14.70001220703125,11.9954833984375,14.70001220703125Z" fill="#000000" fill-opacity="1"/></g><g style="opacity:0.4000000059604645;mix-blend-mode:passthrough"><path d="M8.2943115234375,12.70001220703125C7.7420265234375,12.70001220703125,7.2943115234375,13.14772720703125,7.2943115234375,13.70001220703125C7.2943115234375,14.25229220703125,7.7420265234375,14.70001220703125,8.2943115234375,14.70001220703125C8.2943115234375,14.70001220703125,8.2943115234375,12.70001220703125,8.2943115234375,12.70001220703125C8.2943115234375,12.70001220703125,8.2943115234375,12.70001220703125,8.2943115234375,12.70001220703125ZM8.3032915234375,14.70001220703125C8.8555815234375,14.70001220703125,9.303291523437501,14.25229220703125,9.303291523437501,13.70001220703125C9.303291523437501,13.14772720703125,8.8555815234375,12.70001220703125,8.3032915234375,12.70001220703125C8.3032915234375,12.70001220703125,8.3032915234375,14.70001220703125,8.3032915234375,14.70001220703125C8.3032915234375,14.70001220703125,8.3032915234375,14.70001220703125,8.3032915234375,14.70001220703125ZM8.2943115234375,14.70001220703125C8.2943115234375,14.70001220703125,8.3032915234375,14.70001220703125,8.3032915234375,14.70001220703125C8.3032915234375,14.70001220703125,8.3032915234375,12.70001220703125,8.3032915234375,12.70001220703125C8.3032915234375,12.70001220703125,8.2943115234375,12.70001220703125,8.2943115234375,12.70001220703125C8.2943115234375,12.70001220703125,8.2943115234375,14.70001220703125,8.2943115234375,14.70001220703125C8.2943115234375,14.70001220703125,8.2943115234375,14.70001220703125,8.2943115234375,14.70001220703125Z" fill="#000000" fill-opacity="1"/></g><g style="opacity:0.4000000059604645;mix-blend-mode:passthrough"><path d="M8.29443359375,15.70001220703125C7.74214859375,15.70001220703125,7.29443359375,16.14772720703125,7.29443359375,16.70001220703125C7.29443359375,17.25229220703125,7.74214859375,17.70001220703125,8.29443359375,17.70001220703125C8.29443359375,17.70001220703125,8.29443359375,15.70001220703125,8.29443359375,15.70001220703125C8.29443359375,15.70001220703125,8.29443359375,15.70001220703125,8.29443359375,15.70001220703125ZM8.30341359375,17.70001220703125C8.85570359375,17.70001220703125,9.303413593750001,17.25229220703125,9.303413593750001,16.70001220703125C9.303413593750001,16.14772720703125,8.85570359375,15.70001220703125,8.30341359375,15.70001220703125C8.30341359375,15.70001220703125,8.30341359375,17.70001220703125,8.30341359375,17.70001220703125C8.30341359375,17.70001220703125,8.30341359375,17.70001220703125,8.30341359375,17.70001220703125ZM8.29443359375,17.70001220703125C8.29443359375,17.70001220703125,8.30341359375,17.70001220703125,8.30341359375,17.70001220703125C8.30341359375,17.70001220703125,8.30341359375,15.70001220703125,8.30341359375,15.70001220703125C8.30341359375,15.70001220703125,8.29443359375,15.70001220703125,8.29443359375,15.70001220703125C8.29443359375,15.70001220703125,8.29443359375,17.70001220703125,8.29443359375,17.70001220703125C8.29443359375,17.70001220703125,8.29443359375,17.70001220703125,8.29443359375,17.70001220703125Z" fill="#000000" fill-opacity="1"/></g></g></g></g></svg>