<svg xmlns="http://www.w3.org/2000/svg" xmlns:xlink="http://www.w3.org/1999/xlink" fill="none" version="1.1" width="24" height="24" viewBox="0 0 24 24"><g style="mix-blend-mode:passthrough"><g style="mix-blend-mode:passthrough"><g style="mix-blend-mode:passthrough"><g style="mix-blend-mode:passthrough"><path d="M8,5.75C7.59,5.75,7.25,5.41,7.25,5C7.25,5,7.25,2,7.25,2C7.25,1.59,7.59,1.25,8,1.25C8.41,1.25,8.75,1.59,8.75,2C8.75,2,8.75,5,8.75,5C8.75,5.41,8.41,5.75,8,5.75C8,5.75,8,5.75,8,5.75Z" fill="#000000" fill-opacity="1"/></g><g style="mix-blend-mode:passthrough"><path d="M16,5.75C15.59,5.75,15.25,5.41,15.25,5C15.25,5,15.25,2,15.25,2C15.25,1.59,15.59,1.25,16,1.25C16.41,1.25,16.75,1.59,16.75,2C16.75,2,16.75,5,16.75,5C16.75,5.41,16.41,5.75,16,5.75C16,5.75,16,5.75,16,5.75Z" fill="#000000" fill-opacity="1"/></g><g style="mix-blend-mode:passthrough"><path d="M8.5,14.5000148828125C8.37,14.5000148828125,8.239995,14.4700348828125,8.119995,14.4200348828125C7.989995,14.3700348828125,7.890009,14.3000048828125,7.790009,14.2100048828125C7.610009,14.0200048828125,7.5,13.7600148828125,7.5,13.5000178828125C7.5,13.2400178828125,7.610009,12.9800268828125,7.790009,12.7900268828125C7.890009,12.7000268828125,7.999995,12.6300048828125,8.119995,12.5800048828125C8.359995,12.4800048828125,8.64,12.4800048828125,8.879999999999999,12.5800048828125C9,12.6300048828125,9.10999,12.7000268828125,9.20999,12.7900268828125C9.24999,12.8400268828125,9.29999,12.8900208828125,9.32999,12.9400208828125C9.36999,13.0000208828125,9.40001,13.0600138828125,9.42001,13.1200138828125C9.45001,13.1800138828125,9.47001,13.2400058828125,9.48001,13.3000058828125C9.49001,13.3700058828125,9.5,13.4400178828125,9.5,13.5000178828125C9.5,13.7600148828125,9.389990000000001,14.0200048828125,9.20999,14.2100048828125C9.10999,14.3000048828125,9,14.3700348828125,8.879999999999999,14.4200348828125C8.76,14.4700348828125,8.629999999999999,14.5000148828125,8.5,14.5000148828125C8.5,14.5000148828125,8.5,14.5000148828125,8.5,14.5000148828125Z" fill="#000000" fill-opacity="1"/></g><g style="mix-blend-mode:passthrough"><path d="M12,14.50000220703125C11.87,14.50000220703125,11.739995,14.47001220703125,11.619995,14.42001220703125C11.489995,14.37001220703125,11.390009,14.29999220703125,11.290009,14.20999220703125C11.110009,14.01999220703125,11,13.760002207031249,11,13.50000320703125C11,13.44000320703125,11.00998901,13.36999120703125,11.019989,13.29999120703125C11.029989,13.23999120703125,11.0499866,13.17999920703125,11.0799866,13.11999920703125C11.0999866,13.05999920703125,11.130013,13.00000620703125,11.170013,12.94000620703125C11.210013,12.89000620703125,11.250009,12.84001220703125,11.290009,12.79001220703125C11.660009,12.42001220703125,12.32999,12.42001220703125,12.70999,12.79001220703125C12.74999,12.84001220703125,12.78999,12.89000620703125,12.82999,12.94000620703125C12.86999,13.00000620703125,12.90001,13.05999920703125,12.92001,13.11999920703125C12.95001,13.17999920703125,12.97001,13.23999120703125,12.98001,13.29999120703125C12.99001,13.36999120703125,13,13.44000320703125,13,13.50000320703125C13,13.760002207031249,12.889990000000001,14.01999220703125,12.70999,14.20999220703125C12.51999,14.38999220703125,12.27,14.50000220703125,12,14.50000220703125C12,14.50000220703125,12,14.50000220703125,12,14.50000220703125Z" fill="#000000" fill-opacity="1"/></g><g style="mix-blend-mode:passthrough"><path d="M8.5,18.0000148828125C8.37,18.0000148828125,8.239995,17.9700348828125,8.119995,17.9200348828125C7.999995,17.8700348828125,7.890009,17.8000048828125,7.790009,17.7100048828125C7.610009,17.5200048828125,7.5,17.2600148828125,7.5,17.0000178828125C7.5,16.9400178828125,7.50998901,16.8700158828125,7.519989,16.8100158828125C7.529989,16.7400158828125,7.5499866,16.6800138828125,7.5799866,16.6200138828125C7.5999866,16.5600138828125,7.630013,16.5000208828125,7.670013,16.4400208828125C7.700013,16.3900208828125,7.750009,16.3400268828125,7.790009,16.2900268828125C7.890009,16.2000268828125,7.999995,16.1300048828125,8.119995,16.0800048828125C8.359995,15.9800048828125,8.64,15.9800048828125,8.879999999999999,16.0800048828125C9,16.1300048828125,9.10999,16.2000268828125,9.20999,16.2900268828125C9.24999,16.3400268828125,9.29999,16.3900208828125,9.32999,16.4400208828125C9.36999,16.5000208828125,9.40001,16.5600138828125,9.42001,16.6200138828125C9.45001,16.6800138828125,9.47001,16.7400158828125,9.48001,16.8100158828125C9.49001,16.8700158828125,9.5,16.9400178828125,9.5,17.0000178828125C9.5,17.2600148828125,9.389990000000001,17.5200048828125,9.20999,17.7100048828125C9.10999,17.8000048828125,9,17.8700348828125,8.879999999999999,17.9200348828125C8.76,17.9700348828125,8.629999999999999,18.0000148828125,8.5,18.0000148828125C8.5,18.0000148828125,8.5,18.0000148828125,8.5,18.0000148828125Z" fill="#000000" fill-opacity="1"/></g><g style="mix-blend-mode:passthrough"><path d="M20.5,9.8399658203125C20.5,9.8399658203125,3.5,9.8399658203125,3.5,9.8399658203125C3.09,9.8399658203125,2.75,9.4999658203125,2.75,9.0899658203125C2.75,8.6799658203125,3.09,8.3399658203125,3.5,8.3399658203125C3.5,8.3399658203125,20.5,8.3399658203125,20.5,8.3399658203125C20.91,8.3399658203125,21.25,8.6799658203125,21.25,9.0899658203125C21.25,9.4999658203125,20.91,9.8399658203125,20.5,9.8399658203125C20.5,9.8399658203125,20.5,9.8399658203125,20.5,9.8399658203125Z" fill="#000000" fill-opacity="1"/></g><g style="mix-blend-mode:passthrough"><path d="M15.82005328125,22.7799780859375C15.44005328125,22.7799780859375,15.08005728125,22.6399880859375,14.82005728125,22.379988085937498C14.51005758125,22.0699880859375,14.37005268125,21.6199780859375,14.44005268125,21.149978085937498C14.44005268125,21.149978085937498,14.63005528125,19.7999680859375,14.63005528125,19.7999680859375C14.68005528125,19.4499680859375,14.89006528125,19.0299780859375,15.14006528125,18.7799780859375C15.14006528125,18.7799780859375,18.68004328125,15.2399740859375,18.68004328125,15.2399740859375C19.16004328125,14.7599740859375,19.63006328125,14.5099755859375,20.14006328125,14.4599756359375C20.77006328125,14.3999755859375,21.38004328125,14.6599740859375,21.96004328125,15.2399740859375C22.57004328125,15.8499780859375,23.39004328125,17.0899780859375,21.96004328125,18.5199780859375C21.96004328125,18.5199780859375,18.420063281250002,22.0599780859375,18.420063281250002,22.0599780859375C18.170063281250002,22.3099780859375,17.75004328125,22.5199880859375,17.40004328125,22.5699880859375C17.40004328125,22.5699880859375,16.05003328125,22.7599980859375,16.05003328125,22.7599980859375C15.97003328125,22.7699980859375,15.900053281249999,22.7799780859375,15.82005328125,22.7799780859375C15.82005328125,22.7799780859375,15.82005328125,22.7799780859375,15.82005328125,22.7799780859375ZM20.31004328125,15.9499980859375C20.300043281249998,15.9499980859375,20.29005328125,15.9499980859375,20.280053281249998,15.9499980859375C20.14005328125,15.9599980859375,19.95004328125,16.0899680859375,19.74004328125,16.2999680859375C19.74004328125,16.2999680859375,16.20006328125,19.8399780859375,16.20006328125,19.8399780859375C16.170063281250002,19.8699780859375,16.12004328125,19.9699980859375,16.12004328125,20.0099980859375C16.12004328125,20.0099980859375,15.94005328125,21.2599980859375,15.94005328125,21.2599980859375C15.94005328125,21.2599980859375,17.19005328125,21.0799680859375,17.19005328125,21.0799680859375C17.23005328125,21.0699680859375,17.33003328125,21.0199780859375,17.36003328125,20.9899780859375C17.36003328125,20.9899780859375,20.90004328125,17.4499980859375,20.90004328125,17.4499980859375C21.34004328125,17.0099980859375,21.40004328125,16.7899880859375,20.90004328125,16.2899880859375C20.74004328125,16.1399880859375,20.51004328125,15.9499980859375,20.31004328125,15.9499980859375C20.31004328125,15.9499980859375,20.31004328125,15.9499980859375,20.31004328125,15.9499980859375Z" fill="#000000" fill-opacity="1"/></g><g style="mix-blend-mode:passthrough"><path d="M20.92009671875,19.2499309375C20.85009671875,19.2499309375,20.78008671875,19.2399309375,20.72008671875,19.2199309375C19.40008671875,18.849930937499998,18.35009571875,17.7999409375,17.98009591875,16.4799409375C17.87009591875,16.079940937499998,18.10008471875,15.6699179375,18.50008471875,15.5499178375C18.90008471875,15.4399178375,19.31007671875,15.6699369375,19.43007671875,16.0699369375C19.66007671875,16.8899409375,20.31008671875,17.5399209375,21.13008671875,17.7699209375C21.53008671875,17.8799209375,21.76007671875,18.2999409375,21.65007671875,18.6999409375C21.55007671875,19.0299409375,21.25009671875,19.2499309375,20.92009671875,19.2499309375C20.92009671875,19.2499309375,20.92009671875,19.2499309375,20.92009671875,19.2499309375Z" fill="#000000" fill-opacity="1"/></g><g style="mix-blend-mode:passthrough"><path d="M12,22.75C12,22.75,8,22.75,8,22.75C4.35,22.75,2.25,20.65,2.25,17C2.25,17,2.25,8.5,2.25,8.5C2.25,4.85,4.35,2.75,8,2.75C8,2.75,16,2.75,16,2.75C19.65,2.75,21.75,4.85,21.75,8.5C21.75,8.5,21.75,12,21.75,12C21.75,12.41,21.41,12.75,21,12.75C20.59,12.75,20.25,12.41,20.25,12C20.25,12,20.25,8.5,20.25,8.5C20.25,5.640000000000001,18.86,4.25,16,4.25C16,4.25,8,4.25,8,4.25C5.140000000000001,4.25,3.75,5.640000000000001,3.75,8.5C3.75,8.5,3.75,17,3.75,17C3.75,19.86,5.140000000000001,21.25,8,21.25C8,21.25,12,21.25,12,21.25C12.41,21.25,12.75,21.59,12.75,22C12.75,22.41,12.41,22.75,12,22.75C12,22.75,12,22.75,12,22.75Z" fill="#000000" fill-opacity="1"/></g><g style="opacity:0;mix-blend-mode:passthrough"></g></g></g></g></svg>