<svg xmlns="http://www.w3.org/2000/svg" xmlns:xlink="http://www.w3.org/1999/xlink" fill="none" version="1.1" width="24" height="24" viewBox="0 0 24 24"><g style="mix-blend-mode:passthrough"><g style="mix-blend-mode:passthrough"><g style="mix-blend-mode:passthrough"><g style="opacity:0;mix-blend-mode:passthrough"></g><g style="mix-blend-mode:passthrough"><g style="mix-blend-mode:passthrough"><path d="M16.750048880678413,3.56C16.750048880678413,3.56,16.750048880678413,2,16.750048880678413,2C16.750048880678413,1.59,16.410048880678417,1.25,16.000048880678413,1.25C15.590048880678415,1.25,15.250048880678415,1.59,15.250048880678415,2C15.250048880678415,2,15.250048880678415,3.5,15.250048880678415,3.5C15.250048880678415,3.5,8.750008880678415,3.5,8.750008880678415,3.5C8.750008880678415,3.5,8.750008880678415,2,8.750008880678415,2C8.750008880678415,1.59,8.410008880678415,1.25,8.000008880678415,1.25C7.590008880678416,1.25,7.250008880678415,1.59,7.250008880678415,2C7.250008880678415,2,7.250008880678415,3.56,7.250008880678415,3.56C4.550008880678416,3.81,3.240015880678415,5.42,3.040015560678415,7.81C3.0200155806784155,8.1,3.260015880678415,8.34,3.5400158806784154,8.34C3.5400158806784154,8.34,20.460048880678414,8.34,20.460048880678414,8.34C20.750048880678417,8.34,20.990048880678415,8.09,20.960048880678414,7.81C20.759948880678415,5.42,19.450048880678416,3.81,16.750048880678413,3.56C16.750048880678413,3.56,16.750048880678413,3.56,16.750048880678413,3.56Z" fill="#000000" fill-opacity="1"/></g><g style="opacity:0.4000000059604645;mix-blend-mode:passthrough"><path d="M20,9.839996337890625C20.55,9.839996337890625,21,10.289996337890624,21,10.839996337890625C21,10.839996337890625,21,16.999996337890625,21,16.999996337890625C21,19.999996337890625,19.5,21.999996337890625,16,21.999996337890625C16,21.999996337890625,8,21.999996337890625,8,21.999996337890625C4.5,21.999996337890625,3,19.999996337890625,3,16.999996337890625C3,16.999996337890625,3,10.839996337890625,3,10.839996337890625C3,10.289996337890624,3.45,9.839996337890625,4,9.839996337890625C4,9.839996337890625,20,9.839996337890625,20,9.839996337890625C20,9.839996337890625,20,9.839996337890625,20,9.839996337890625Z" fill="#000000" fill-opacity="1"/></g></g><g style="mix-blend-mode:passthrough"><g style="mix-blend-mode:passthrough"><path d="M14.84000134765625,14.98999220703125C14.84000134765625,14.98999220703125,14.34000134765625,15.500002207031251,14.34000134765625,15.500002207031251C14.34000134765625,15.500002207031251,14.32999134765625,15.500002207031251,14.32999134765625,15.500002207031251C14.32999134765625,15.500002207031251,11.299991347656249,18.53000220703125,11.299991347656249,18.53000220703125C11.16999134765625,18.66000220703125,10.90000134765625,18.80001220703125,10.71000134765625,18.82001220703125C10.71000134765625,18.82001220703125,9.35999334765625,19.01999220703125,9.35999334765625,19.01999220703125C8.86999334765625,19.08999220703125,8.53001394765625,18.74001220703125,8.60001388765625,18.26001220703125C8.60001388765625,18.26001220703125,8.79001634765625,16.89999220703125,8.79001634765625,16.89999220703125C8.82001634765625,16.70999220703125,8.94999434765625,16.45000220703125,9.07999434765625,16.31000220703125C9.07999434765625,16.31000220703125,12.120001347656249,13.28000220703125,12.120001347656249,13.28000220703125C12.120001347656249,13.28000220703125,12.620001347656249,12.76998920703125,12.620001347656249,12.76998920703125C12.95000134765625,12.43998920703125,13.32001134765625,12.20001220703125,13.72001134765625,12.20001220703125C14.06001134765625,12.20001220703125,14.430001347656251,12.35998920703125,14.84000134765625,12.76998920703125C15.74000134765625,13.66999220703125,15.45000134765625,14.37999220703125,14.84000134765625,14.98999220703125C14.84000134765625,14.98999220703125,14.84000134765625,14.98999220703125,14.84000134765625,14.98999220703125Z" fill="#000000" fill-opacity="1"/></g></g></g></g></g></svg>