<svg xmlns="http://www.w3.org/2000/svg" xmlns:xlink="http://www.w3.org/1999/xlink" fill="none" version="1.1" width="24" height="24" viewBox="0 0 24 24"><g style="mix-blend-mode:passthrough"><g style="mix-blend-mode:passthrough"><g style="mix-blend-mode:passthrough"><g style="opacity:0.4000000059604645;mix-blend-mode:passthrough"><path d="M10.25,8C10.25,8.69036,9.69036,9.25,9,9.25C9,9.25,9,10.75,9,10.75C10.51878,10.75,11.75,9.51878,11.75,8C11.75,8,10.25,8,10.25,8C10.25,8,10.25,8,10.25,8ZM9,9.25C8.30964,9.25,7.75,8.69036,7.75,8C7.75,8,6.25,8,6.25,8C6.25,9.51878,7.48122,10.75,9,10.75C9,10.75,9,9.25,9,9.25C9,9.25,9,9.25,9,9.25ZM7.75,8C7.75,7.30964,8.30964,6.75,9,6.75C9,6.75,9,5.25,9,5.25C7.48122,5.25,6.25,6.48122,6.25,8C6.25,8,7.75,8,7.75,8C7.75,8,7.75,8,7.75,8ZM9,6.75C9.69036,6.75,10.25,7.30964,10.25,8C10.25,8,11.75,8,11.75,8C11.75,6.48122,10.51878,5.25,9,5.25C9,5.25,9,6.75,9,6.75C9,6.75,9,6.75,9,6.75Z" fill="#000000" fill-opacity="1"/></g><g style="mix-blend-mode:passthrough"><path d="M13,2.75C13.4142,2.75,13.75,2.4142099999999997,13.75,2C13.75,1.585786,13.4142,1.25,13,1.25C13,1.25,13,2.75,13,2.75C13,2.75,13,2.75,13,2.75ZM22.75,10C22.75,9.58579,22.4142,9.25,22,9.25C21.5858,9.25,21.25,9.58579,21.25,10C21.25,10,22.75,10,22.75,10C22.75,10,22.75,10,22.75,10ZM13,1.25C13,1.25,9,1.25,9,1.25C9,1.25,9,2.75,9,2.75C9,2.75,13,2.75,13,2.75C13,2.75,13,1.25,13,1.25C13,1.25,13,1.25,13,1.25ZM9,1.25C6.42603,1.25,4.42914,1.760201,3.09467,3.09467C1.760201,4.42914,1.25,6.42603,1.25,9C1.25,9,2.75,9,2.75,9C2.75,6.57397,3.2398,5.07086,4.15533,4.15533C5.07086,3.2398,6.57397,2.75,9,2.75C9,2.75,9,1.25,9,1.25C9,1.25,9,1.25,9,1.25ZM1.25,9C1.25,9,1.25,15,1.25,15C1.25,15,2.75,15,2.75,15C2.75,15,2.75,9,2.75,9C2.75,9,1.25,9,1.25,9C1.25,9,1.25,9,1.25,9ZM1.25,15C1.25,17.574,1.760201,19.5709,3.09467,20.9053C4.42914,22.2398,6.42603,22.75,9,22.75C9,22.75,9,21.25,9,21.25C6.57397,21.25,5.07086,20.7602,4.15533,19.8447C3.2398,18.9291,2.75,17.426,2.75,15C2.75,15,1.25,15,1.25,15C1.25,15,1.25,15,1.25,15ZM9,22.75C9,22.75,15,22.75,15,22.75C15,22.75,15,21.25,15,21.25C15,21.25,9,21.25,9,21.25C9,21.25,9,22.75,9,22.75C9,22.75,9,22.75,9,22.75ZM15,22.75C17.574,22.75,19.5709,22.2398,20.9053,20.9053C22.2398,19.5709,22.75,17.574,22.75,15C22.75,15,21.25,15,21.25,15C21.25,17.426,20.7602,18.9291,19.8447,19.8447C18.9291,20.7602,17.426,21.25,15,21.25C15,21.25,15,22.75,15,22.75C15,22.75,15,22.75,15,22.75ZM22.75,15C22.75,15,22.75,10,22.75,10C22.75,10,21.25,10,21.25,10C21.25,10,21.25,15,21.25,15C21.25,15,22.75,15,22.75,15C22.75,15,22.75,15,22.75,15Z" fill="#000000" fill-opacity="1"/></g><g style="opacity:0.4000000059604645;mix-blend-mode:passthrough"><g style="mix-blend-mode:passthrough"><path d="M15.75,4.25C15.335786,4.25,15,4.585786,15,5C15,5.41421,15.335786,5.75,15.75,5.75C15.75,5.75,15.75,4.25,15.75,4.25C15.75,4.25,15.75,4.25,15.75,4.25ZM21.25,5.75C21.66421,5.75,22,5.41421,22,5C22,4.585786,21.66421,4.25,21.25,4.25C21.25,4.25,21.25,5.75,21.25,5.75C21.25,5.75,21.25,5.75,21.25,5.75ZM15.75,5.75C15.75,5.75,21.25,5.75,21.25,5.75C21.25,5.75,21.25,4.25,21.25,4.25C21.25,4.25,15.75,4.25,15.75,4.25C15.75,4.25,15.75,5.75,15.75,5.75C15.75,5.75,15.75,5.75,15.75,5.75Z" fill="#000000" fill-opacity="1"/></g><g style="mix-blend-mode:passthrough"><path d="M17.75,7.75C17.75,8.16421,18.085786,8.5,18.5,8.5C18.91421,8.5,19.25,8.16421,19.25,7.75C19.25,7.75,17.75,7.75,17.75,7.75C17.75,7.75,17.75,7.75,17.75,7.75ZM19.25,2.25C19.25,1.835786,18.91421,1.5,18.5,1.5C18.085786,1.5,17.75,1.835786,17.75,2.25C17.75,2.25,19.25,2.25,19.25,2.25C19.25,2.25,19.25,2.25,19.25,2.25ZM19.25,7.75C19.25,7.75,19.25,2.25,19.25,2.25C19.25,2.25,17.75,2.25,17.75,2.25C17.75,2.25,17.75,7.75,17.75,7.75C17.75,7.75,19.25,7.75,19.25,7.75C19.25,7.75,19.25,7.75,19.25,7.75Z" fill="#000000" fill-opacity="1"/></g></g><g style="opacity:0.4000000059604645;mix-blend-mode:passthrough"><path d="M2.251936709465027,18.3273304196167C1.9080431094650268,18.5582204196167,1.816435709465027,19.0241704196167,2.047325709465027,19.368060419616697C2.2782157094650266,19.7119604196167,2.7441697094650266,19.803570419616698,3.088062709465027,19.5726704196167C3.088062709465027,19.5726704196167,2.251936709465027,18.3273304196167,2.251936709465027,18.3273304196167C2.251936709465027,18.3273304196167,2.251936709465027,18.3273304196167,2.251936709465027,18.3273304196167ZM7.600002709465027,15.6400004196167C7.600002709465027,15.6400004196167,7.182162709465027,15.0171804196167,7.182162709465027,15.0171804196167C7.182162709465027,15.0171804196167,7.1819427094650266,15.017330419616698,7.1819427094650266,15.017330419616698C7.1819427094650266,15.017330419616698,7.600002709465027,15.6400004196167,7.600002709465027,15.6400004196167C7.600002709465027,15.6400004196167,7.600002709465027,15.6400004196167,7.600002709465027,15.6400004196167ZM10.240002709465028,15.780000419616698C10.240002709465028,15.780000419616698,10.735122709465028,15.216590419616699,10.735122709465028,15.216590419616699C10.735122709465028,15.216590419616699,10.728752709465027,15.2111204196167,10.728752709465027,15.2111204196167C10.728752709465027,15.2111204196167,10.240002709465028,15.780000419616698,10.240002709465028,15.780000419616698C10.240002709465028,15.780000419616698,10.240002709465028,15.780000419616698,10.240002709465028,15.780000419616698ZM10.570002709465028,16.070000419616697C10.570002709465028,16.070000419616697,10.074882709465028,16.6334104196167,10.074882709465028,16.6334104196167C10.074882709465028,16.6334104196167,10.081312709465028,16.6389304196167,10.081312709465028,16.6389304196167C10.081312709465028,16.6389304196167,10.570002709465028,16.070000419616697,10.570002709465028,16.070000419616697C10.570002709465028,16.070000419616697,10.570002709465028,16.070000419616697,10.570002709465028,16.070000419616697ZM13.390022709465027,16.070000419616697C13.390022709465027,16.070000419616697,12.901622709465027,15.5008504196167,12.901622709465027,15.5008504196167C12.901622709465027,15.5008504196167,12.901322709465028,15.501070419616699,12.901322709465028,15.501070419616699C12.901322709465028,15.501070419616699,13.390022709465027,16.070000419616697,13.390022709465027,16.070000419616697C13.390022709465027,16.070000419616697,13.390022709465027,16.070000419616697,13.390022709465027,16.070000419616697ZM17.550022709465026,12.500000419616699C17.550022709465026,12.500000419616699,18.038422709465028,13.0691504196167,18.038422709465028,13.0691504196167C18.038422709465028,13.0691504196167,18.038722709465027,13.068930419616699,18.038722709465027,13.068930419616699C18.038722709465027,13.068930419616699,17.550022709465026,12.500000419616699,17.550022709465026,12.500000419616699C17.550022709465026,12.500000419616699,17.550022709465026,12.500000419616699,17.550022709465026,12.500000419616699ZM20.370022709465026,12.500000419616699C20.370022709465026,12.500000419616699,19.881322709465028,13.068930419616699,19.881322709465028,13.068930419616699C19.881322709465028,13.068930419616699,19.881322709465028,13.0689504196167,19.881322709465028,13.0689504196167C19.881322709465028,13.0689504196167,20.370022709465026,12.500000419616699,20.370022709465026,12.500000419616699C20.370022709465026,12.500000419616699,20.370022709465026,12.500000419616699,20.370022709465026,12.500000419616699ZM21.511322709465027,14.4689504196167C21.825622709465026,14.738830419616699,22.299122709465028,14.702890419616699,22.568922709465028,14.388670419616698C22.838822709465028,14.0744504196167,22.802922709465026,13.600930419616699,22.488722709465026,13.331050419616698C22.488722709465026,13.331050419616698,21.511322709465027,14.4689504196167,21.511322709465027,14.4689504196167C21.511322709465027,14.4689504196167,21.511322709465027,14.4689504196167,21.511322709465027,14.4689504196167ZM3.088062709465027,19.5726704196167C3.088062709465027,19.5726704196167,8.018062709465028,16.2626704196167,8.018062709465028,16.2626704196167C8.018062709465028,16.2626704196167,7.1819427094650266,15.017330419616698,7.1819427094650266,15.017330419616698C7.1819427094650266,15.017330419616698,2.251936709465027,18.3273304196167,2.251936709465027,18.3273304196167C2.251936709465027,18.3273304196167,3.088062709465027,19.5726704196167,3.088062709465027,19.5726704196167C3.088062709465027,19.5726704196167,3.088062709465027,19.5726704196167,3.088062709465027,19.5726704196167ZM8.017842709465027,16.2628204196167C8.534762709465028,15.9160304196167,9.303212709465026,15.9639404196167,9.751252709465028,16.348880419616698C9.751252709465028,16.348880419616698,10.728752709465027,15.2111204196167,10.728752709465027,15.2111204196167C9.756792709465028,14.3760604196167,8.245242709465026,14.3039704196167,7.182162709465027,15.0171804196167C7.182162709465027,15.0171804196167,8.017842709465027,16.2628204196167,8.017842709465027,16.2628204196167C8.017842709465027,16.2628204196167,8.017842709465027,16.2628204196167,8.017842709465027,16.2628204196167ZM9.744912709465027,16.343370419616697C9.744912709465027,16.343370419616697,10.074912709465027,16.6333704196167,10.074912709465027,16.6333704196167C10.074912709465027,16.6333704196167,11.065092709465027,15.506630419616698,11.065092709465027,15.506630419616698C11.065092709465027,15.506630419616698,10.735092709465027,15.216630419616699,10.735092709465027,15.216630419616699C10.735092709465027,15.216630419616699,9.744912709465027,16.343370419616697,9.744912709465027,16.343370419616697C9.744912709465027,16.343370419616697,9.744912709465027,16.343370419616697,9.744912709465027,16.343370419616697ZM10.081312709465028,16.6389304196167C11.142372709465027,17.5503604196167,12.817622709465027,17.5503604196167,13.878722709465027,16.6389304196167C13.878722709465027,16.6389304196167,12.901322709465028,15.501070419616699,12.901322709465028,15.501070419616699C12.402322709465027,15.9296404196167,11.557632709465027,15.9296404196167,11.058692709465026,15.501070419616699C11.058692709465026,15.501070419616699,10.081312709465028,16.6389304196167,10.081312709465028,16.6389304196167C10.081312709465028,16.6389304196167,10.081312709465028,16.6389304196167,10.081312709465028,16.6389304196167ZM13.878422709465028,16.639150419616698C13.878422709465028,16.639150419616698,18.038422709465028,13.0691504196167,18.038422709465028,13.0691504196167C18.038422709465028,13.0691504196167,17.061622709465027,11.9308484196167,17.061622709465027,11.9308484196167C17.061622709465027,11.9308484196167,12.901622709465027,15.5008504196167,12.901622709465027,15.5008504196167C12.901622709465027,15.5008504196167,13.878422709465028,16.639150419616698,13.878422709465028,16.639150419616698C13.878422709465028,16.639150419616698,13.878422709465028,16.639150419616698,13.878422709465028,16.639150419616698ZM18.038722709465027,13.068930419616699C18.537622709465026,12.6403604196167,19.382422709465025,12.6403604196167,19.881322709465028,13.068930419616699C19.881322709465028,13.068930419616699,20.858722709465027,11.931073419616698,20.858722709465027,11.931073419616698C19.797622709465028,11.0196424196167,18.122422709465027,11.0196424196167,17.061322709465028,11.931073419616698C17.061322709465028,11.931073419616698,18.038722709465027,13.068930419616699,18.038722709465027,13.068930419616699C18.038722709465027,13.068930419616699,18.038722709465027,13.068930419616699,18.038722709465027,13.068930419616699ZM19.881322709465028,13.0689504196167C19.881322709465028,13.0689504196167,21.511322709465027,14.4689504196167,21.511322709465027,14.4689504196167C21.511322709465027,14.4689504196167,22.488722709465026,13.331050419616698,22.488722709465026,13.331050419616698C22.488722709465026,13.331050419616698,20.858722709465027,11.931051419616699,20.858722709465027,11.931051419616699C20.858722709465027,11.931051419616699,19.881322709465028,13.0689504196167,19.881322709465028,13.0689504196167C19.881322709465028,13.0689504196167,19.881322709465028,13.0689504196167,19.881322709465028,13.0689504196167Z" fill="#000000" fill-opacity="1"/></g><g style="opacity:0;mix-blend-mode:passthrough"></g></g></g></g></svg>