<svg xmlns="http://www.w3.org/2000/svg" xmlns:xlink="http://www.w3.org/1999/xlink" fill="none" version="1.1" width="24" height="24" viewBox="0 0 24 24"><g style="mix-blend-mode:passthrough"><g style="mix-blend-mode:passthrough"><g style="mix-blend-mode:passthrough"><g style="mix-blend-mode:passthrough"><path d="M9,10.75C7.48,10.75,6.25,9.52,6.25,8C6.25,6.48,7.48,5.25,9,5.25C10.52,5.25,11.75,6.48,11.75,8C11.75,9.52,10.52,10.75,9,10.75C9,10.75,9,10.75,9,10.75ZM9,6.75C8.31,6.75,7.75,7.3100000000000005,7.75,8C7.75,8.69,8.31,9.25,9,9.25C9.69,9.25,10.25,8.69,10.25,8C10.25,7.3100000000000005,9.69,6.75,9,6.75C9,6.75,9,6.75,9,6.75Z" fill="#000000" fill-opacity="1"/></g><g style="mix-blend-mode:passthrough"><path d="M15,22.75C15,22.75,9,22.75,9,22.75C3.57,22.75,1.25,20.43,1.25,15C1.25,15,1.25,9,1.25,9C1.25,3.57,3.57,1.25,9,1.25C9,1.25,13,1.25,13,1.25C13.41,1.25,13.75,1.59,13.75,2C13.75,2.41,13.41,2.75,13,2.75C13,2.75,9,2.75,9,2.75C4.390000000000001,2.75,2.75,4.390000000000001,2.75,9C2.75,9,2.75,15,2.75,15C2.75,19.61,4.390000000000001,21.25,9,21.25C9,21.25,15,21.25,15,21.25C19.61,21.25,21.25,19.61,21.25,15C21.25,15,21.25,10,21.25,10C21.25,9.59,21.59,9.25,22,9.25C22.41,9.25,22.75,9.59,22.75,10C22.75,10,22.75,15,22.75,15C22.75,20.43,20.43,22.75,15,22.75C15,22.75,15,22.75,15,22.75Z" fill="#000000" fill-opacity="1"/></g><g style="mix-blend-mode:passthrough"><path d="M21.25,5.75C21.25,5.75,15.75,5.75,15.75,5.75C15.34,5.75,15,5.41,15,5C15,4.59,15.34,4.25,15.75,4.25C15.75,4.25,21.25,4.25,21.25,4.25C21.66,4.25,22,4.59,22,5C22,5.41,21.66,5.75,21.25,5.75C21.25,5.75,21.25,5.75,21.25,5.75Z" fill="#000000" fill-opacity="1"/></g><g style="mix-blend-mode:passthrough"><path d="M18.5,8.5C18.09,8.5,17.75,8.16,17.75,7.75C17.75,7.75,17.75,2.25,17.75,2.25C17.75,1.84,18.09,1.5,18.5,1.5C18.91,1.5,19.25,1.84,19.25,2.25C19.25,2.25,19.25,7.75,19.25,7.75C19.25,8.16,18.91,8.5,18.5,8.5C18.5,8.5,18.5,8.5,18.5,8.5Z" fill="#000000" fill-opacity="1"/></g><g style="mix-blend-mode:passthrough"><path d="M2.670000307647705,19.7000004196167C2.4300003076477052,19.7000004196167,2.189999307647705,19.5800004196167,2.049999307647705,19.3700004196167C1.819999307647705,19.030000419616698,1.9100001076477051,18.5600004196167,2.250000307647705,18.3300004196167C2.250000307647705,18.3300004196167,7.179998307647705,15.0200004196167,7.179998307647705,15.0200004196167C8.259998307647706,14.3000004196167,9.749998307647704,14.3800004196167,10.729998307647705,15.2100004196167C10.729998307647705,15.2100004196167,11.059998307647705,15.5000004196167,11.059998307647705,15.5000004196167C11.559998307647705,15.9300004196167,12.409958307647704,15.9300004196167,12.899958307647704,15.5000004196167C12.899958307647704,15.5000004196167,17.059958307647705,11.930000419616698,17.059958307647705,11.930000419616698C18.129958307647705,11.0200004196167,19.789958307647705,11.0200004196167,20.859958307647705,11.930000419616698C20.859958307647705,11.930000419616698,22.489958307647704,13.330000419616699,22.489958307647704,13.330000419616699C22.799958307647707,13.600000419616698,22.839958307647706,14.070000419616699,22.569958307647706,14.3900004196167C22.299958307647707,14.7000004196167,21.829958307647704,14.740000419616699,21.509958307647704,14.4700004196167C21.509958307647704,14.4700004196167,19.879958307647705,13.070000419616699,19.879958307647705,13.070000419616699C19.379958307647705,12.6400004196167,18.529958307647703,12.6400004196167,18.039958307647705,13.070000419616699C18.039958307647705,13.070000419616699,13.879958307647705,16.640000419616698,13.879958307647705,16.640000419616698C12.819958307647704,17.5500004196167,11.149998307647705,17.5500004196167,10.079998307647704,16.640000419616698C10.079998307647704,16.640000419616698,9.749998307647704,16.3500004196167,9.749998307647704,16.3500004196167C9.289998307647705,15.9600004196167,8.529998307647706,15.920000419616699,8.019998307647704,16.2700004196167C8.019998307647704,16.2700004196167,3.099998307647705,19.5800004196167,3.099998307647705,19.5800004196167C2.959998307647705,19.6600004196167,2.810000307647705,19.7000004196167,2.670000307647705,19.7000004196167C2.670000307647705,19.7000004196167,2.670000307647705,19.7000004196167,2.670000307647705,19.7000004196167Z" fill="#000000" fill-opacity="1"/></g><g style="opacity:0;mix-blend-mode:passthrough"></g></g></g></g></svg>