<svg xmlns="http://www.w3.org/2000/svg" xmlns:xlink="http://www.w3.org/1999/xlink" fill="none" version="1.1" width="24" height="24" viewBox="0 0 24 24"><g style="mix-blend-mode:passthrough"><g style="mix-blend-mode:passthrough"><g style="mix-blend-mode:passthrough"><g style="mix-blend-mode:passthrough"><path d="M21.999999942779542,13.900000419616699C21.999999942779542,13.900000419616699,21.999999942779542,16.1900004196167,21.999999942779542,16.1900004196167C21.999999942779542,19.8300004196167,19.82999994277954,22.000000419616697,16.189999942779544,22.000000419616697C16.189999942779544,22.000000419616697,7.809999942779541,22.000000419616697,7.809999942779541,22.000000419616697C5.259999942779541,22.000000419616697,3.419999942779541,20.930000419616697,2.559999942779541,19.030000419616698C2.559999942779541,19.030000419616698,2.669999942779541,18.9500004196167,2.669999942779541,18.9500004196167C2.669999942779541,18.9500004196167,7.589999942779541,15.650000419616699,7.589999942779541,15.650000419616699C8.389999942779541,15.1100004196167,9.519999942779542,15.170000419616699,10.229999942779541,15.7900004196167C10.229999942779541,15.7900004196167,10.56999994277954,16.070000419616697,10.56999994277954,16.070000419616697C11.34999994277954,16.7400004196167,12.609999942779542,16.7400004196167,13.389999942779541,16.070000419616697C13.389999942779541,16.070000419616697,17.549999942779543,12.500000419616699,17.549999942779543,12.500000419616699C18.32999994277954,11.830000419616699,19.589999942779542,11.830000419616699,20.36999994277954,12.500000419616699C20.36999994277954,12.500000419616699,21.999999942779542,13.900000419616699,21.999999942779542,13.900000419616699C21.999999942779542,13.900000419616699,21.999999942779542,13.900000419616699,21.999999942779542,13.900000419616699Z" fill="#000000" fill-opacity="1"/></g><g style="opacity:0.4000000059604645;mix-blend-mode:passthrough"><path d="M20.97,8C20.97,8,18.03,8,18.03,8C16.759999999999998,8,16,7.24,16,5.970000000000001C16,5.970000000000001,16,3.0300000000000002,16,3.0300000000000002C16,2.63,16.08,2.29,16.22,2C16.21,2,16.2,2,16.189999999999998,2C16.189999999999998,2,7.81,2,7.81,2C4.17,2.0000000000000004,2,4.17,2,7.81C2,7.81,2,16.189999999999998,2,16.189999999999998C2,17.28,2.19,18.23,2.56,19.03C2.56,19.03,2.67,18.95,2.67,18.95C2.67,18.95,7.59,15.65,7.59,15.65C8.39,15.11,9.52,15.17,10.23,15.79C10.23,15.79,10.57,16.07,10.57,16.07C11.35,16.740000000000002,12.61,16.740000000000002,13.39,16.07C13.39,16.07,17.55,12.5,17.55,12.5C18.33,11.83,19.59,11.83,20.37,12.5C20.37,12.5,22,13.9,22,13.9C22,13.9,22,7.81,22,7.81C22,7.8,22,7.79,22,7.78C21.71,7.92,21.37,8,20.97,8C20.97,8,20.97,8,20.97,8Z" fill="#000000" fill-opacity="1"/></g><g style="mix-blend-mode:passthrough"><path d="M8.999999885559081,10.379999885559082C10.314439885559082,10.379999885559082,11.379999885559082,9.314439885559082,11.379999885559082,7.999999885559082C11.379999885559082,6.685559885559082,10.314439885559082,5.619999885559082,8.999999885559081,5.619999885559082C7.685559885559082,5.619999885559082,6.619999885559082,6.685559885559082,6.619999885559082,7.999999885559082C6.619999885559082,9.314439885559082,7.685559885559082,10.379999885559082,8.999999885559081,10.379999885559082C8.999999885559081,10.379999885559082,8.999999885559081,10.379999885559082,8.999999885559081,10.379999885559082Z" fill="#000000" fill-opacity="1"/></g><g style="mix-blend-mode:passthrough"><path d="M20.97,1C20.97,1,18.03,1,18.03,1C16.760001,1,16,1.76,16,3.03C16,3.03,16,5.97,16,5.97C16,7.24,16.760001,8,18.03,8C18.03,8,20.97,8,20.97,8C22.240000000000002,8,23,7.24,23,5.97C23,5.97,23,3.03,23,3.03C23,1.76,22.240000000000002,1,20.97,1C20.97,1,20.97,1,20.97,1ZM21.91,4.93C21.81,5.03,21.66,5.1,21.5,5.11C21.5,5.11,20.09,5.11,20.09,5.11C20.09,5.11,20.1,6.5,20.1,6.5C20.09,6.67,20.03,6.81,19.91,6.93C19.81,7.03,19.66,7.1,19.5,7.1C19.17,7.1,18.9,6.83,18.9,6.5C18.9,6.5,18.9,5.1,18.9,5.1C18.9,5.1,17.5,5.11,17.5,5.11C17.17,5.11,16.9,4.83,16.9,4.5C16.9,4.17,17.17,3.9,17.5,3.9C17.5,3.9,18.9,3.91,18.9,3.91C18.9,3.91,18.9,2.51,18.9,2.51C18.9,2.1799999999999997,19.17,1.9,19.5,1.9C19.83,1.9,20.1,2.1799999999999997,20.1,2.51C20.1,2.51,20.09,3.9,20.09,3.9C20.09,3.9,21.5,3.9,21.5,3.9C21.83,3.9,22.1,4.17,22.1,4.5C22.09,4.67,22.02,4.8100000000000005,21.91,4.93C21.91,4.93,21.91,4.93,21.91,4.93Z" fill="#000000" fill-opacity="1"/></g><g style="opacity:0;mix-blend-mode:passthrough"></g></g></g></g></svg>