<svg xmlns="http://www.w3.org/2000/svg" xmlns:xlink="http://www.w3.org/1999/xlink" fill="none" version="1.1" width="24" height="24" viewBox="0 0 24 24"><g style="mix-blend-mode:passthrough"><g style="mix-blend-mode:passthrough"><g style="mix-blend-mode:passthrough"><g style="opacity:0.4000000059604645;mix-blend-mode:passthrough"><path d="M20.040000009536744,6.819999492874145C20.040000009536744,6.819999492874145,14.280000009536742,2.7899994928741454,14.280000009536742,2.7899994928741454C12.710000009536744,1.6899994928741455,10.300000009536744,1.7500004928741455,8.790000009536744,2.9200004928741454C8.790000009536744,2.9200004928741454,3.780000009536743,6.829999492874146,3.780000009536743,6.829999492874146C2.780000009536743,7.609999492874145,1.9900000095367432,9.209999492874147,1.9900000095367432,10.469999492874145C1.9900000095367432,10.469999492874145,1.9900000095367432,17.369959492874145,1.9900000095367432,17.369959492874145C1.9900000095367432,19.919959492874145,4.0600000095367434,21.999959492874144,6.610000009536743,21.999959492874144C6.610000009536743,21.999959492874144,17.39000000953674,21.999959492874144,17.39000000953674,21.999959492874144C19.940000009536742,21.999959492874144,22.010000009536743,19.929959492874147,22.010000009536743,17.379959492874146C22.010000009536743,17.379959492874146,22.010000009536743,10.599999492874145,22.010000009536743,10.599999492874145C22.010000009536743,9.249999492874146,21.14000000953674,7.589999492874146,20.040000009536744,6.819999492874145C20.040000009536744,6.819999492874145,20.040000009536744,6.819999492874145,20.040000009536744,6.819999492874145Z" fill="#000000" fill-opacity="1"/></g><g style="mix-blend-mode:passthrough"><path d="M12,18.75C11.59,18.75,11.25,18.41,11.25,18C11.25,18,11.25,15,11.25,15C11.25,14.59,11.59,14.25,12,14.25C12.41,14.25,12.75,14.59,12.75,15C12.75,15,12.75,18,12.75,18C12.75,18.41,12.41,18.75,12,18.75C12,18.75,12,18.75,12,18.75Z" fill="#000000" fill-opacity="1"/></g><g style="opacity:0;mix-blend-mode:passthrough"></g></g></g></g></svg>