<svg xmlns="http://www.w3.org/2000/svg" xmlns:xlink="http://www.w3.org/1999/xlink" fill="none" version="1.1" width="24" height="24" viewBox="0 0 24 24"><g style="mix-blend-mode:passthrough"><g style="mix-blend-mode:passthrough"><g style="mix-blend-mode:passthrough"><g style="mix-blend-mode:passthrough"><path d="M9.02,2.840000530319214C9.02,2.840000530319214,8.55955,2.2479855303192138,8.55955,2.2479855303192138C8.55955,2.2479855303192138,8.55901,2.248399530319214,8.55901,2.248399530319214C8.55901,2.248399530319214,9.02,2.840000530319214,9.02,2.840000530319214C9.02,2.840000530319214,9.02,2.840000530319214,9.02,2.840000530319214ZM3.63,7.039990530319214C3.63,7.039990530319214,4.09046,7.632010530319214,4.09046,7.632010530319214C4.09046,7.632010530319214,4.09099,7.6315905303192135,4.09099,7.6315905303192135C4.09099,7.6315905303192135,3.63,7.039990530319214,3.63,7.039990530319214C3.63,7.039990530319214,3.63,7.039990530319214,3.63,7.039990530319214ZM20.2,7.050000530319214C20.2,7.050000530319214,19.7696,7.664230530319214,19.7696,7.664230530319214C19.7696,7.664230530319214,19.7712,7.665290530319214,19.7712,7.665290530319214C19.7712,7.665290530319214,20.2,7.050000530319214,20.2,7.050000530319214C20.2,7.050000530319214,20.2,7.050000530319214,20.2,7.050000530319214ZM14.02,2.720000530319214C14.02,2.720000530319214,14.4504,2.105762530319214,14.4504,2.105762530319214C14.4504,2.105762530319214,14.4501,2.105576530319214,14.4501,2.105576530319214C14.4501,2.105576530319214,14.02,2.720000530319214,14.02,2.720000530319214C14.02,2.720000530319214,14.02,2.720000530319214,14.02,2.720000530319214ZM8.55901,2.248399530319214C8.55901,2.248399530319214,3.16901,6.448390530319214,3.16901,6.448390530319214C3.16901,6.448390530319214,4.09099,7.6315905303192135,4.09099,7.6315905303192135C4.09099,7.6315905303192135,9.48099,3.431600530319214,9.48099,3.431600530319214C9.48099,3.431600530319214,8.55901,2.248399530319214,8.55901,2.248399530319214C8.55901,2.248399530319214,8.55901,2.248399530319214,8.55901,2.248399530319214ZM3.16954,6.447980530319214C2.60582,6.886440530319214,2.1341,7.535970530319214,1.804179,8.208390530319214C1.474406,8.880500530319214,1.25,9.649520530319213,1.25,10.360000530319214C1.25,10.360000530319214,2.75,10.360000530319214,2.75,10.360000530319214C2.75,9.940470530319214,2.89059,9.399480530319213,3.15082,8.869120530319215C3.4109,8.339040530319213,3.75418,7.893560530319214,4.09046,7.632010530319214C4.09046,7.632010530319214,3.16954,6.447980530319214,3.16954,6.447980530319214C3.16954,6.447980530319214,3.16954,6.447980530319214,3.16954,6.447980530319214ZM1.25,10.360000530319214C1.25,10.360000530319214,1.25,17.770020530319215,1.25,17.770020530319215C1.25,17.770020530319215,2.75,17.770020530319215,2.75,17.770020530319215C2.75,17.770020530319215,2.75,10.360000530319214,2.75,10.360000530319214C2.75,10.360000530319214,1.25,10.360000530319214,1.25,10.360000530319214C1.25,10.360000530319214,1.25,10.360000530319214,1.25,10.360000530319214ZM1.25,17.770020530319215C1.25,20.501920530319214,3.47347,22.740020530319214,6.21,22.740020530319214C6.21,22.740020530319214,6.21,21.240020530319214,6.21,21.240020530319214C4.30653,21.240020530319214,2.75,19.678120530319212,2.75,17.770020530319215C2.75,17.770020530319215,1.25,17.770020530319215,1.25,17.770020530319215C1.25,17.770020530319215,1.25,17.770020530319215,1.25,17.770020530319215ZM6.21,22.740020530319214C6.21,22.740020530319214,17.79,22.740020530319214,17.79,22.740020530319214C17.79,22.740020530319214,17.79,21.240020530319214,17.79,21.240020530319214C17.79,21.240020530319214,6.21,21.240020530319214,6.21,21.240020530319214C6.21,21.240020530319214,6.21,22.740020530319214,6.21,22.740020530319214C6.21,22.740020530319214,6.21,22.740020530319214,6.21,22.740020530319214ZM17.79,22.740020530319214C20.5254,22.740020530319214,22.75,20.503020530319215,22.75,17.780020530319213C22.75,17.780020530319213,21.25,17.780020530319213,21.25,17.780020530319213C21.25,19.676920530319215,19.6946,21.240020530319214,17.79,21.240020530319214C17.79,21.240020530319214,17.79,22.740020530319214,17.79,22.740020530319214C17.79,22.740020530319214,17.79,22.740020530319214,17.79,22.740020530319214ZM22.75,17.780020530319213C22.75,17.780020530319213,22.75,10.500000530319214,22.75,10.500000530319214C22.75,10.500000530319214,21.25,10.500000530319214,21.25,10.500000530319214C21.25,10.500000530319214,21.25,17.780020530319213,21.25,17.780020530319213C21.25,17.780020530319213,22.75,17.780020530319213,22.75,17.780020530319213C22.75,17.780020530319213,22.75,17.780020530319213,22.75,17.780020530319213ZM22.75,10.500000530319214C22.75,9.742800530319213,22.5017,8.933320530319214,22.1361,8.232940530319214C21.7705,7.532600530319214,21.2487,6.8667405303192135,20.6288,6.434700530319214C20.6288,6.434700530319214,19.7712,7.665290530319214,19.7712,7.665290530319214C20.1413,7.923270530319214,20.5195,8.377390530319214,20.8064,8.927070530319213C21.0933,9.476680530319214,21.25,10.047210530319214,21.25,10.500000530319214C21.25,10.500000530319214,22.75,10.500000530319214,22.75,10.500000530319214C22.75,10.500000530319214,22.75,10.500000530319214,22.75,10.500000530319214ZM20.6304,6.435760530319214C20.6304,6.435760530319214,14.4504,2.105762530319214,14.4504,2.105762530319214C14.4504,2.105762530319214,13.5896,3.3342305303192137,13.5896,3.3342305303192137C13.5896,3.3342305303192137,19.7696,7.664230530319214,19.7696,7.664230530319214C19.7696,7.664230530319214,20.6304,6.435760530319214,20.6304,6.435760530319214C20.6304,6.435760530319214,20.6304,6.435760530319214,20.6304,6.435760530319214ZM14.4501,2.105576530319214C13.5961,1.507743530319214,12.5191,1.2446765303192138,11.4837,1.2689555403192139C10.44825,1.2932345303192139,9.38428,1.606527530319214,8.55955,2.2479855303192138C8.55955,2.2479855303192138,9.48046,3.432020530319214,9.48046,3.432020530319214C10.00572,3.023470530319214,10.74175,2.7867605303192136,11.5188,2.768540530319214C12.2959,2.7503205303192138,13.044,2.9522605303192138,13.5899,3.334420530319214C13.5899,3.334420530319214,14.4501,2.105576530319214,14.4501,2.105576530319214C14.4501,2.105576530319214,14.4501,2.105576530319214,14.4501,2.105576530319214Z" fill="#000000" fill-opacity="1"/></g><g style="opacity:0.3400000035762787;mix-blend-mode:passthrough"><path d="M11.25,17.989999771118164C11.25,18.404209771118165,11.585786,18.739999771118164,12,18.739999771118164C12.41421,18.739999771118164,12.75,18.404209771118165,12.75,17.989999771118164C12.75,17.989999771118164,11.25,17.989999771118164,11.25,17.989999771118164C11.25,17.989999771118164,11.25,17.989999771118164,11.25,17.989999771118164ZM12.75,14.989999771118164C12.75,14.575785771118165,12.41421,14.239999771118164,12,14.239999771118164C11.585786,14.239999771118164,11.25,14.575785771118165,11.25,14.989999771118164C11.25,14.989999771118164,12.75,14.989999771118164,12.75,14.989999771118164C12.75,14.989999771118164,12.75,14.989999771118164,12.75,14.989999771118164ZM12.75,17.989999771118164C12.75,17.989999771118164,12.75,14.989999771118164,12.75,14.989999771118164C12.75,14.989999771118164,11.25,14.989999771118164,11.25,14.989999771118164C11.25,14.989999771118164,11.25,17.989999771118164,11.25,17.989999771118164C11.25,17.989999771118164,12.75,17.989999771118164,12.75,17.989999771118164C12.75,17.989999771118164,12.75,17.989999771118164,12.75,17.989999771118164Z" fill="#000000" fill-opacity="1"/></g><g style="opacity:0;mix-blend-mode:passthrough"></g></g></g></g></svg>