<svg xmlns="http://www.w3.org/2000/svg" xmlns:xlink="http://www.w3.org/1999/xlink" fill="none" version="1.1" width="24" height="24" viewBox="0 0 24 24"><g style="mix-blend-mode:passthrough"><g style="mix-blend-mode:passthrough"><g style="mix-blend-mode:passthrough"><g style="opacity:0;mix-blend-mode:passthrough"></g><g style="opacity:0.4000000059604645;mix-blend-mode:passthrough"><path d="M17.530000915527346,7.77C17.460000915527345,7.76,17.390000915527345,7.76,17.320000915527345,7.77C15.770000915527344,7.72,14.540000915527344,6.45,14.540000915527344,4.890000000000001C14.540000915527344,3.3,15.830000915527343,2,17.430000915527344,2C19.020000915527344,2,20.320000915527345,3.29,20.320000915527345,4.890000000000001C20.310000915527343,6.45,19.080000915527343,7.72,17.530000915527346,7.77C17.530000915527346,7.77,17.530000915527346,7.77,17.530000915527346,7.77Z" fill="#000000" fill-opacity="1"/></g><g style="opacity:0.4000000059604645;mix-blend-mode:passthrough"><path d="M20.789998474121095,14.699995771484375C19.669998474121094,15.449995771484375,18.099998474121094,15.729995771484376,16.650001574121095,15.539995771484374C17.030001474121093,14.719995771484374,17.230001474121092,13.810005771484375,17.240001474121094,12.850005771484375C17.240001474121094,11.850005771484375,17.019998474121095,10.900007771484375,16.599998474121094,10.070008071484375C18.079998474121094,9.870007771484374,19.649998474121094,10.149994771484375,20.779998474121093,10.899994771484375C22.35999847412109,11.939995771484375,22.35999847412109,13.649995771484376,20.789998474121095,14.699995771484375C20.789998474121095,14.699995771484375,20.789998474121095,14.699995771484375,20.789998474121095,14.699995771484375Z" fill="#000000" fill-opacity="1"/></g><g style="opacity:0.4000000059604645;mix-blend-mode:passthrough"><path d="M6.440001525878906,7.77C6.510001525878906,7.76,6.580001525878906,7.76,6.650001525878906,7.77C8.200001525878907,7.72,9.430001525878907,6.45,9.430001525878907,4.890000000000001C9.430001525878907,3.3,8.140001525878906,2,6.540001525878907,2C4.950001525878906,2,3.6500015258789062,3.29,3.6500015258789062,4.890000000000001C3.660001525878906,6.45,4.8900015258789065,7.72,6.440001525878906,7.77C6.440001525878906,7.77,6.440001525878906,7.77,6.440001525878906,7.77Z" fill="#000000" fill-opacity="1"/></g><g style="opacity:0.4000000059604645;mix-blend-mode:passthrough"><path d="M6.549998931884765,12.849997407226562C6.549998931884765,13.819997407226563,6.759998931884765,14.739997407226562,7.139998931884765,15.569997407226563C5.729998931884765,15.719997407226563,4.259998931884766,15.419997407226562,3.1799989318847657,14.709997407226563C1.5999989318847656,13.659997407226562,1.5999989318847656,11.949987407226562,3.1799989318847657,10.899988407226562C4.2499989318847655,10.179988407226563,5.759998931884766,9.889997407226563,7.179998931884765,10.049998107226562C6.769998931884766,10.889997407226563,6.549998931884765,11.839997407226562,6.549998931884765,12.849997407226562C6.549998931884765,12.849997407226562,6.549998931884765,12.849997407226562,6.549998931884765,12.849997407226562Z" fill="#000000" fill-opacity="1"/></g><g style="mix-blend-mode:passthrough"><path d="M12.119999237060547,15.870000000000001C12.039999237060547,15.85999,11.949999237060547,15.85999,11.859999237060547,15.870000000000001C10.019999237060548,15.809999999999999,8.549999237060547,14.3,8.549999237060547,12.44C8.549999237060547,10.54,10.079999237060546,9,11.989999237060546,9C13.889999237060547,9,15.429999237060546,10.54,15.429999237060546,12.44C15.429999237060546,14.3,13.969999237060547,15.809999999999999,12.119999237060547,15.870000000000001C12.119999237060547,15.870000000000001,12.119999237060547,15.870000000000001,12.119999237060547,15.870000000000001Z" fill="#000000" fill-opacity="1"/></g><g style="mix-blend-mode:passthrough"><path d="M8.869999237060547,17.939999389648438C7.3599992370605465,18.949999389648436,7.3599992370605465,20.609999389648436,8.869999237060547,21.609999389648436C10.589999237060546,22.75999938964844,13.409999237060546,22.75999938964844,15.129999237060547,21.609999389648436C16.639999237060547,20.59999938964844,16.639999237060547,18.939999389648438,15.129999237060547,17.939999389648438C13.419999237060548,16.789999389648436,10.599999237060548,16.789999389648436,8.869999237060547,17.939999389648438C8.869999237060547,17.939999389648438,8.869999237060547,17.939999389648438,8.869999237060547,17.939999389648438Z" fill="#000000" fill-opacity="1"/></g></g></g></g></svg>