<svg xmlns="http://www.w3.org/2000/svg" xmlns:xlink="http://www.w3.org/1999/xlink" fill="none" version="1.1" width="24" height="24" viewBox="0 0 24 24"><g style="mix-blend-mode:passthrough"><g style="mix-blend-mode:passthrough"><g style="mix-blend-mode:passthrough"><g style="opacity:0.4000000059604645;mix-blend-mode:passthrough"><path d="M17.99763671875,7.16C17.99763671875,7.16,17.87433671875,7.8998,17.87433671875,7.8998C17.92403671875,7.90808,17.97443671875,7.91134,18.02478671875,7.90951C18.02478671875,7.90951,17.99763671875,7.16,17.99763671875,7.16C17.99763671875,7.16,17.99763671875,7.16,17.99763671875,7.16ZM17.80763671875,7.16C17.80763671875,7.16,17.780476718750002,7.90951,17.780476718750002,7.90951C17.83082671875,7.91134,17.88123671875,7.90808,17.93093671875,7.8998C17.93093671875,7.8998,17.80763671875,7.16,17.80763671875,7.16C17.80763671875,7.16,17.80763671875,7.16,17.80763671875,7.16ZM20.48763671875,4.58C20.48763671875,4.58,21.23763671875,4.58536,21.23763671875,4.58536C21.23763671875,4.58536,21.23763671875,4.58,21.23763671875,4.58C21.23763671875,4.58,20.48763671875,4.58,20.48763671875,4.58C20.48763671875,4.58,20.48763671875,4.58,20.48763671875,4.58ZM18.12093671875,6.42021C17.97929671875,6.3966,17.82597671875,6.3966,17.68433671875,6.42021C17.68433671875,6.42021,17.93093671875,7.8998,17.93093671875,7.8998C17.91603671875,7.90228,17.90701671875,7.9025,17.90263671875,7.9025C17.898256718749998,7.9025,17.88923671875,7.90228,17.87433671875,7.8998C17.87433671875,7.8998,18.12093671875,6.42021,18.12093671875,6.42021C18.12093671875,6.42021,18.12093671875,6.42021,18.12093671875,6.42021ZM17.83479671875,6.4105C16.85778671875,6.3751,16.07763671875,5.57597,16.07763671875,4.58C16.07763671875,4.58,14.57763671875,4.58,14.57763671875,4.58C14.57763671875,6.38403,15.99748671875,7.84491,17.780476718750002,7.90951C17.780476718750002,7.90951,17.83479671875,6.4105,17.83479671875,6.4105C17.83479671875,6.4105,17.83479671875,6.4105,17.83479671875,6.4105ZM16.07763671875,4.58C16.07763671875,3.56421,16.89184671875,2.75,17.90763671875,2.75C17.90763671875,2.75,17.90763671875,1.25,17.90763671875,1.25C16.06341671875,1.25,14.57763671875,2.7357899999999997,14.57763671875,4.58C14.57763671875,4.58,16.07763671875,4.58,16.07763671875,4.58C16.07763671875,4.58,16.07763671875,4.58,16.07763671875,4.58ZM17.90763671875,2.75C18.921526718750002,2.75,19.73763671875,3.57232,19.73763671875,4.58C19.73763671875,4.58,21.23763671875,4.58,21.23763671875,4.58C21.23763671875,2.74768,19.75374671875,1.25,17.90763671875,1.25C17.90763671875,1.25,17.90763671875,2.75,17.90763671875,2.75C17.90763671875,2.75,17.90763671875,2.75,17.90763671875,2.75ZM19.73765671875,4.5746400000000005C19.73049671875,5.57572,18.94654671875,6.37513,17.97047671875,6.4105C17.97047671875,6.4105,18.02478671875,7.90951,18.02478671875,7.90951C19.808726718750002,7.84488,21.22476671875,6.38428,21.23761671875,4.58536C21.23761671875,4.58536,19.73765671875,4.5746400000000005,19.73765671875,4.5746400000000005C19.73765671875,4.5746400000000005,19.73765671875,4.5746400000000005,19.73765671875,4.5746400000000005Z" fill="#000000" fill-opacity="1"/></g><g style="opacity:0.4000000059604645;mix-blend-mode:passthrough"><path d="M17.091677022338867,13.70035335144043C16.683180022338867,13.63177335144043,16.296433022338867,13.90733335144043,16.227854322338867,14.31583335144043C16.159274322338867,14.724323351440429,16.434831022338866,15.11107335144043,16.843328022338866,15.179653351440429C16.843328022338866,15.179653351440429,17.091677022338867,13.70035335144043,17.091677022338867,13.70035335144043C17.091677022338867,13.70035335144043,17.091677022338867,13.70035335144043,17.091677022338867,13.70035335144043ZM20.90750602233887,13.720003351440429C20.90750602233887,13.720003351440429,20.491476022338865,13.09596335144043,20.491476022338865,13.09596335144043C20.491476022338865,13.09596335144043,20.490116022338867,13.09687335144043,20.490116022338867,13.09687335144043C20.490116022338867,13.09687335144043,20.90750602233887,13.720003351440429,20.90750602233887,13.720003351440429C20.90750602233887,13.720003351440429,20.90750602233887,13.720003351440429,20.90750602233887,13.720003351440429ZM20.90750602233887,10.30001335144043C20.90750602233887,10.30001335144043,21.323526022338868,9.67597035144043,21.323526022338868,9.67597035144043C21.323526022338868,9.67597035144043,21.322176022338866,9.67507535144043,21.322176022338866,9.67507535144043C21.322176022338866,9.67507535144043,20.90750602233887,10.30001335144043,20.90750602233887,10.30001335144043C20.90750602233887,10.30001335144043,20.90750602233887,10.30001335144043,20.90750602233887,10.30001335144043ZM16.808084022338868,8.85125335144043C16.400084022338866,8.922727351440429,16.12727632233887,9.31141935144043,16.198750322338867,9.719419351440429C16.270225322338867,10.127423351440429,16.658916022338868,10.40022335144043,17.066916022338866,10.32875335144043C17.066916022338866,10.32875335144043,16.808084022338868,8.85125335144043,16.808084022338868,8.85125335144043C16.808084022338868,8.85125335144043,16.808084022338868,8.85125335144043,16.808084022338868,8.85125335144043ZM16.843328022338866,15.179653351440429C18.360356022338866,15.434343351440429,20.073856022338866,15.18108335144043,21.324886022338866,14.343133351440429C21.324886022338866,14.343133351440429,20.490116022338867,13.09687335144043,20.490116022338867,13.09687335144043C19.621146022338866,13.67892335144043,18.314636022338867,13.90567335144043,17.091677022338867,13.70035335144043C17.091677022338867,13.70035335144043,16.843328022338866,15.179653351440429,16.843328022338866,15.179653351440429C16.843328022338866,15.179653351440429,16.843328022338866,15.179653351440429,16.843328022338866,15.179653351440429ZM21.323526022338868,14.34404335144043C22.184916022338868,13.76978335144043,22.714996022338866,12.93767335144043,22.714996022338866,12.01000335144043C22.714996022338866,11.082333351440429,22.184916022338868,10.25023335144043,21.323526022338868,9.67597235144043C21.323526022338868,9.67597235144043,20.491476022338865,10.92404335144043,20.491476022338865,10.92404335144043C21.04008602233887,11.28978335144043,21.214996022338866,11.697673351440429,21.214996022338866,12.01000335144043C21.214996022338866,12.32233335144043,21.04008602233887,12.73022335144043,20.491476022338865,13.09596335144043C20.491476022338865,13.09596335144043,21.323526022338868,14.34404335144043,21.323526022338868,14.34404335144043C21.323526022338868,14.34404335144043,21.323526022338868,14.34404335144043,21.323526022338868,14.34404335144043ZM21.322176022338866,9.67507535144043C20.061936022338866,8.83883885144043,18.328396022338868,8.584920351440429,16.808084022338868,8.85125335144043C16.808084022338868,8.85125335144043,17.066916022338866,10.32875335144043,17.066916022338866,10.32875335144043C18.286596022338866,10.115083351440429,19.613066022338867,10.34118335144043,20.492826022338868,10.92494335144043C20.492826022338868,10.92494335144043,21.322176022338866,9.67507535144043,21.322176022338866,9.67507535144043C21.322176022338866,9.67507535144043,21.322176022338866,9.67507535144043,21.322176022338866,9.67507535144043Z" fill="#000000" fill-opacity="1"/></g><g style="opacity:0.4000000059604645;mix-blend-mode:passthrough"><path d="M5.9674980273437495,7.16C5.9674980273437495,7.16,5.940348027343751,7.90951,5.940348027343751,7.90951C5.9906980273437505,7.91134,6.04109802734375,7.90808,6.09079802734375,7.8998C6.09079802734375,7.8998,5.9674980273437495,7.16,5.9674980273437495,7.16C5.9674980273437495,7.16,5.9674980273437495,7.16,5.9674980273437495,7.16ZM6.15749802734375,7.16C6.15749802734375,7.16,6.03419802734375,7.8998,6.03419802734375,7.8998C6.08389802734375,7.90808,6.134308027343749,7.91134,6.18465802734375,7.90951C6.18465802734375,7.90951,6.15749802734375,7.16,6.15749802734375,7.16C6.15749802734375,7.16,6.15749802734375,7.16,6.15749802734375,7.16ZM3.47749702734375,4.58C3.47749702734375,4.58,2.72747802734375,4.58,2.72747802734375,4.58C2.72747802734375,4.58,2.72751602734375,4.58536,2.72751602734375,4.58536C2.72751602734375,4.58536,3.47749702734375,4.58,3.47749702734375,4.58C3.47749702734375,4.58,3.47749702734375,4.58,3.47749702734375,4.58ZM6.09079802734375,7.8998C6.07589802734375,7.90228,6.0668780273437495,7.9025,6.06249802734375,7.9025C6.05811802734375,7.9025,6.049098027343749,7.90228,6.03419802734375,7.8998C6.03419802734375,7.8998,6.280798027343749,6.42021,6.280798027343749,6.42021C6.1391580273437505,6.3966,5.98583802734375,6.3966,5.84419802734375,6.42021C5.84419802734375,6.42021,6.09079802734375,7.8998,6.09079802734375,7.8998C6.09079802734375,7.8998,6.09079802734375,7.8998,6.09079802734375,7.8998ZM6.18465802734375,7.90951C7.96764802734375,7.84491,9.38749802734375,6.38403,9.38749802734375,4.58C9.38749802734375,4.58,7.88749802734375,4.58,7.88749802734375,4.58C7.88749802734375,5.57597,7.10734802734375,6.3751,6.13033802734375,6.4105C6.13033802734375,6.4105,6.18465802734375,7.90951,6.18465802734375,7.90951C6.18465802734375,7.90951,6.18465802734375,7.90951,6.18465802734375,7.90951ZM9.38749802734375,4.58C9.38749802734375,2.7357899999999997,7.90171802734375,1.25,6.05749802734375,1.25C6.05749802734375,1.25,6.05749802734375,2.75,6.05749802734375,2.75C7.07328802734375,2.75,7.88749802734375,3.56421,7.88749802734375,4.58C7.88749802734375,4.58,9.38749802734375,4.58,9.38749802734375,4.58C9.38749802734375,4.58,9.38749802734375,4.58,9.38749802734375,4.58ZM6.05749802734375,1.25C4.21138802734375,1.25,2.72749702734375,2.74768,2.72749702734375,4.58C2.72749702734375,4.58,4.22749802734375,4.58,4.22749802734375,4.58C4.22749802734375,3.57232,5.043608027343749,2.75,6.05749802734375,2.75C6.05749802734375,2.75,6.05749802734375,1.25,6.05749802734375,1.25C6.05749802734375,1.25,6.05749802734375,1.25,6.05749802734375,1.25ZM2.72751602734375,4.58536C2.74036602734375,6.38429,4.15640802734375,7.84488,5.940348027343751,7.90951C5.940348027343751,7.90951,5.99465802734375,6.4105,5.99465802734375,6.4105C5.01858802734375,6.37513,4.23462802734375,5.57572,4.22747802734375,4.5746400000000005C4.22747802734375,4.5746400000000005,2.72751602734375,4.58536,2.72751602734375,4.58536C2.72751602734375,4.58536,2.72751602734375,4.58536,2.72751602734375,4.58536Z" fill="#000000" fill-opacity="1"/></g><g style="opacity:0.4000000059604645;mix-blend-mode:passthrough"><path d="M7.12167,15.179653351440429C7.53017,15.11107335144043,7.80573,14.724323351440429,7.73715,14.31583335144043C7.66857,13.90733335144043,7.28182,13.63177335144043,6.87332,13.70035335144043C6.87332,13.70035335144043,7.12167,15.179653351440429,7.12167,15.179653351440429C7.12167,15.179653351440429,7.12167,15.179653351440429,7.12167,15.179653351440429ZM3.0575,13.720003351440429C3.0575,13.720003351440429,3.47488,13.09687335144043,3.47488,13.09687335144043C3.47488,13.09687335144043,3.47353,13.09596335144043,3.47353,13.09596335144043C3.47353,13.09596335144043,3.0575,13.720003351440429,3.0575,13.720003351440429C3.0575,13.720003351440429,3.0575,13.720003351440429,3.0575,13.720003351440429ZM3.0575,10.30001335144043C3.0575,10.30001335144043,2.64282,9.67507335144043,2.64282,9.67507335144043C2.64282,9.67507335144043,2.64147,9.67597235144043,2.64147,9.67597235144043C2.64147,9.67597235144043,3.0575,10.30001335144043,3.0575,10.30001335144043C3.0575,10.30001335144043,3.0575,10.30001335144043,3.0575,10.30001335144043ZM6.89808,10.32875335144043C7.30608,10.40022335144043,7.69477,10.127423351440429,7.76625,9.719419351440429C7.83772,9.31141935144043,7.56491,8.922727351440429,7.15691,8.85125335144043C7.15691,8.85125335144043,6.89808,10.32875335144043,6.89808,10.32875335144043C6.89808,10.32875335144043,6.89808,10.32875335144043,6.89808,10.32875335144043ZM6.87332,13.70035335144043C5.65036,13.90567335144043,4.343859999999999,13.67892335144043,3.47488,13.09687335144043C3.47488,13.09687335144043,2.64012,14.343133351440429,2.64012,14.343133351440429C3.89114,15.18108335144043,5.60464,15.434343351440429,7.12167,15.179653351440429C7.12167,15.179653351440429,6.87332,13.70035335144043,6.87332,13.70035335144043C6.87332,13.70035335144043,6.87332,13.70035335144043,6.87332,13.70035335144043ZM3.47353,13.09596335144043C2.9249099999999997,12.73022335144043,2.75,12.32233335144043,2.75,12.01000335144043C2.75,11.697673351440429,2.9249099999999997,11.28978335144043,3.47353,10.92404335144043C3.47353,10.92404335144043,2.64147,9.67597235144043,2.64147,9.67597235144043C1.78009,10.25023335144043,1.25,11.082333351440429,1.25,12.01000335144043C1.25,12.93767335144043,1.78009,13.76978335144043,2.64147,14.34404335144043C2.64147,14.34404335144043,3.47353,13.09596335144043,3.47353,13.09596335144043C3.47353,13.09596335144043,3.47353,13.09596335144043,3.47353,13.09596335144043ZM3.47218,10.92494335144043C4.351929999999999,10.34118335144043,5.6784,10.115083351440429,6.89808,10.32875335144043C6.89808,10.32875335144043,7.15691,8.85125335144043,7.15691,8.85125335144043C5.6366,8.584920351440429,3.90307,8.83883885144043,2.64282,9.67507535144043C2.64282,9.67507535144043,3.47218,10.92494335144043,3.47218,10.92494335144043C3.47218,10.92494335144043,3.47218,10.92494335144043,3.47218,10.92494335144043Z" fill="#000000" fill-opacity="1"/></g><g style="mix-blend-mode:passthrough"><g style="mix-blend-mode:passthrough"><path d="M12.000001831054687,14.630001220703125C12.000001831054687,14.630001220703125,11.876701831054687,15.369801220703124,11.876701831054687,15.369801220703124C11.924611831054687,15.377781220703124,11.973181831054688,15.381101220703126,12.021731831054687,15.379691220703126C12.021731831054687,15.379691220703126,12.000001831054687,14.630001220703125,12.000001831054687,14.630001220703125C12.000001831054687,14.630001220703125,12.000001831054687,14.630001220703125,12.000001831054687,14.630001220703125ZM11.810001831054688,14.630001220703125C11.810001831054688,14.630001220703125,11.782841831054688,15.379511220703126,11.782841831054688,15.379511220703126C11.833191831054688,15.381341220703124,11.883601831054687,15.378081220703125,11.933301831054688,15.369801220703124C11.933301831054688,15.369801220703124,11.810001831054688,14.630001220703125,11.810001831054688,14.630001220703125C11.810001831054688,14.630001220703125,11.810001831054688,14.630001220703125,11.810001831054688,14.630001220703125ZM14.490001831054688,12.050001220703125C14.490001831054688,12.050001220703125,15.240001831054688,12.055361220703125,15.240001831054688,12.055361220703125C15.240001831054688,12.055361220703125,15.240001831054688,12.050001220703125,15.240001831054688,12.050001220703125C15.240001831054688,12.050001220703125,14.490001831054688,12.050001220703125,14.490001831054688,12.050001220703125C14.490001831054688,12.050001220703125,14.490001831054688,12.050001220703125,14.490001831054688,12.050001220703125ZM12.123301831054688,13.890211220703126C11.981661831054687,13.866601220703124,11.828341831054686,13.866601220703124,11.686701831054688,13.890211220703126C11.686701831054688,13.890211220703126,11.933301831054688,15.369801220703124,11.933301831054688,15.369801220703124C11.918401831054688,15.372281220703126,11.909381831054688,15.372501220703125,11.905001831054687,15.372501220703125C11.900621831054687,15.372501220703125,11.891601831054688,15.372281220703126,11.876701831054687,15.369801220703124C11.876701831054687,15.369801220703124,12.123301831054688,13.890211220703126,12.123301831054688,13.890211220703126C12.123301831054688,13.890211220703126,12.123301831054688,13.890211220703126,12.123301831054688,13.890211220703126ZM11.837161831054686,13.880501220703124C10.860151831054687,13.845101220703125,10.080001831054688,13.045971220703125,10.080001831054688,12.050001220703125C10.080001831054688,12.050001220703125,8.580001831054688,12.050001220703125,8.580001831054688,12.050001220703125C8.580001831054688,13.854031220703124,9.999851831054688,15.314911220703124,11.782841831054688,15.379511220703126C11.782841831054688,15.379511220703126,11.837161831054686,13.880501220703124,11.837161831054686,13.880501220703124C11.837161831054686,13.880501220703124,11.837161831054686,13.880501220703124,11.837161831054686,13.880501220703124ZM10.080001831054688,12.050001220703125C10.080001831054688,11.034211220703124,10.894211831054687,10.220001220703125,11.910001831054688,10.220001220703125C11.910001831054688,10.220001220703125,11.910001831054688,8.720001220703125,11.910001831054688,8.720001220703125C10.065781831054688,8.720001220703125,8.580001831054688,10.205791220703125,8.580001831054688,12.050001220703125C8.580001831054688,12.050001220703125,10.080001831054688,12.050001220703125,10.080001831054688,12.050001220703125C10.080001831054688,12.050001220703125,10.080001831054688,12.050001220703125,10.080001831054688,12.050001220703125ZM11.910001831054688,10.220001220703125C12.923891831054688,10.220001220703125,13.740001831054688,11.042321220703124,13.740001831054688,12.050001220703125C13.740001831054688,12.050001220703125,15.240001831054688,12.050001220703125,15.240001831054688,12.050001220703125C15.240001831054688,10.217681220703124,13.756101831054687,8.720001220703125,11.910001831054688,8.720001220703125C11.910001831054688,8.720001220703125,11.910001831054688,10.220001220703125,11.910001831054688,10.220001220703125C11.910001831054688,10.220001220703125,11.910001831054688,10.220001220703125,11.910001831054688,10.220001220703125ZM13.740021831054687,12.044641220703125C13.732831831054687,13.050551220703124,12.945261831054687,13.852291220703126,11.978271831054688,13.880321220703124C11.978271831054688,13.880321220703124,12.021731831054687,15.379691220703126,12.021731831054687,15.379691220703126C13.814731831054686,15.327721220703125,15.227171831054687,13.849451220703125,15.239981831054688,12.055361220703125C15.239981831054688,12.055361220703125,13.740021831054687,12.044641220703125,13.740021831054687,12.044641220703125C13.740021831054687,12.044641220703125,13.740021831054687,12.044641220703125,13.740021831054687,12.044641220703125Z" fill="#000000" fill-opacity="1"/></g><g style="mix-blend-mode:passthrough"><path d="M9.090001220703126,17.780000610351564C9.090001220703126,17.780000610351564,8.675781220703126,17.154760610351563,8.675781220703126,17.154760610351563C8.675781220703126,17.154760610351563,8.673971220703125,17.155962610351562,8.673971220703125,17.155962610351562C8.673971220703125,17.155962610351562,9.090001220703126,17.780000610351564,9.090001220703126,17.780000610351564C9.090001220703126,17.780000610351564,9.090001220703126,17.780000610351564,9.090001220703126,17.780000610351564ZM9.090001220703126,21.200000610351562C9.090001220703126,21.200000610351562,9.506921220703125,20.576560610351564,9.506921220703125,20.576560610351564C9.506921220703125,20.576560610351564,9.506031220703125,20.57596061035156,9.506031220703125,20.57596061035156C9.506031220703125,20.57596061035156,9.090001220703126,21.200000610351562,9.090001220703126,21.200000610351562C9.090001220703126,21.200000610351562,9.090001220703126,21.200000610351562,9.090001220703126,21.200000610351562ZM14.910001220703126,21.200000610351562C14.910001220703126,21.200000610351562,14.493971220703125,20.57596061035156,14.493971220703125,20.57596061035156C14.493971220703125,20.57596061035156,14.493081220703125,20.576560610351564,14.493081220703125,20.576560610351564C14.493081220703125,20.576560610351564,14.910001220703126,21.200000610351562,14.910001220703126,21.200000610351562C14.910001220703126,21.200000610351562,14.910001220703126,21.200000610351562,14.910001220703126,21.200000610351562ZM14.910001220703126,17.780000610351564C14.910001220703126,17.780000610351564,15.326021220703124,17.155962610351562,15.326021220703124,17.155962610351562C15.326021220703124,17.155962610351562,15.326021220703124,17.155962610351562,15.326021220703124,17.155962610351562C15.326021220703124,17.155962610351562,14.910001220703126,17.780000610351564,14.910001220703126,17.780000610351564C14.910001220703126,17.780000610351564,14.910001220703126,17.780000610351564,14.910001220703126,17.780000610351564ZM8.673971220703125,17.155962610351562C7.8125912207031245,17.730220610351562,7.282501220703125,18.562330610351562,7.282501220703125,19.49000061035156C7.282501220703125,20.417670610351564,7.8125912207031245,21.249780610351564,8.673971220703125,21.824040610351563C8.673971220703125,21.824040610351563,9.506031220703125,20.57596061035156,9.506031220703125,20.57596061035156C8.957411220703126,20.210220610351563,8.782501220703125,19.80233061035156,8.782501220703125,19.49000061035156C8.782501220703125,19.177670610351562,8.957411220703126,18.769780610351564,9.506031220703125,18.40404061035156C9.506031220703125,18.40404061035156,8.673971220703125,17.155962610351562,8.673971220703125,17.155962610351562C8.673971220703125,17.155962610351562,8.673971220703125,17.155962610351562,8.673971220703125,17.155962610351562ZM8.673081220703125,21.82344061035156C9.622121220703125,22.45811061035156,10.830771220703125,22.75250061035156,12.000001220703126,22.75250061035156C13.169231220703125,22.75250061035156,14.377881220703124,22.45811061035156,15.326921220703126,21.82344061035156C15.326921220703126,21.82344061035156,14.493081220703125,20.576560610351564,14.493081220703125,20.576560610351564C13.842121220703124,21.011890610351564,12.940771220703125,21.25250061035156,12.000001220703126,21.25250061035156C11.059231220703126,21.25250061035156,10.157881220703125,21.011890610351564,9.506921220703125,20.576560610351564C9.506921220703125,20.576560610351564,8.673081220703125,21.82344061035156,8.673081220703125,21.82344061035156C8.673081220703125,21.82344061035156,8.673081220703125,21.82344061035156,8.673081220703125,21.82344061035156ZM15.326021220703124,21.824040610351563C16.187411220703126,21.249780610351564,16.717501220703127,20.417670610351564,16.717501220703127,19.49000061035156C16.717501220703127,18.562330610351562,16.187411220703126,17.730220610351562,15.326021220703124,17.155962610351562C15.326021220703124,17.155962610351562,14.493971220703125,18.40404061035156,14.493971220703125,18.40404061035156C15.042591220703125,18.769780610351564,15.217501220703124,19.177670610351562,15.217501220703124,19.49000061035156C15.217501220703124,19.80233061035156,15.042591220703125,20.210220610351563,14.493971220703125,20.57596061035156C14.493971220703125,20.57596061035156,15.326021220703124,21.824040610351563,15.326021220703124,21.824040610351563C15.326021220703124,21.824040610351563,15.326021220703124,21.824040610351563,15.326021220703124,21.824040610351563ZM15.326021220703124,17.155962610351562C14.381061220703124,16.525989610351562,13.172251220703124,16.235000610351562,12.003751220703126,16.235000610351562C10.835031220703126,16.235000610351562,9.624761220703125,16.52606461035156,8.675781220703126,17.15476261035156C8.675781220703126,17.15476261035156,9.504221220703124,18.405240610351562,9.504221220703124,18.405240610351562C10.155241220703125,17.973940610351562,11.059971220703126,17.735000610351562,12.003751220703126,17.735000610351562C12.947741220703126,17.735000610351562,13.848931220703125,17.974010610351563,14.493971220703125,18.40404061035156C14.493971220703125,18.40404061035156,15.326021220703124,17.155962610351562,15.326021220703124,17.155962610351562C15.326021220703124,17.155962610351562,15.326021220703124,17.155962610351562,15.326021220703124,17.155962610351562Z" fill="#000000" fill-opacity="1"/></g></g><g style="opacity:0;mix-blend-mode:passthrough"></g></g></g></g></svg>