<svg xmlns="http://www.w3.org/2000/svg" xmlns:xlink="http://www.w3.org/1999/xlink" fill="none" version="1.1" width="24" height="24" viewBox="0 0 24 24"><g style="mix-blend-mode:passthrough"><g style="mix-blend-mode:passthrough"><g style="mix-blend-mode:passthrough"><g style="mix-blend-mode:passthrough"><path d="M17.99982421875,7.910019765625C17.96982421875,7.910019765625,17.94982421875,7.910019765625,17.91982421875,7.910019765625C17.91982421875,7.910019765625,17.86982421875,7.910019765625,17.86982421875,7.910019765625C15.97982421875,7.850019765625,14.56982421875,6.390009765625,14.56982421875,4.590009765625C14.56982421875,2.750009765625,16.06982421875,1.260009765625,17.89982421875,1.260009765625C19.72982421875,1.260009765625,21.22982421875,2.760009765625,21.22982421875,4.590009765625C21.21982421875,6.400009765625,19.809824218750002,7.860009765625,18.00982421875,7.920009765625C18.00982421875,7.910009765625,18.00982421875,7.910019765625,17.99982421875,7.910019765625C17.99982421875,7.910019765625,17.99982421875,7.910019765625,17.99982421875,7.910019765625ZM17.89982421875,2.750019765625C16.88982421875,2.750019765625,16.06982421875,3.570019765625,16.06982421875,4.580019765625C16.06982421875,5.570019765625,16.83982421875,6.370019765625,17.829824218749998,6.410019765625C17.83982421875,6.400019765625,17.91982421875,6.400019765625,18.00982421875,6.410019765625C18.97982421875,6.360019765625,19.72982421875,5.560019765625,19.73982421875,4.580019765625C19.73982421875,3.570019765625,18.91982421875,2.750019765625,17.89982421875,2.750019765625C17.89982421875,2.750019765625,17.89982421875,2.750019765625,17.89982421875,2.750019765625Z" fill="#000000" fill-opacity="1"/></g><g style="mix-blend-mode:passthrough"><path d="M18.01000484375,15.2800258984375C17.62000484375,15.2800258984375,17.23000484375,15.2500258984375,16.84000184375,15.1800158984375C16.43000184375,15.1100158984375,16.16000114375,14.7200258984375,16.23000114375,14.3100258984375C16.30000084375,13.9000258984375,16.68999984375,13.6300258984375,17.09999984375,13.700025898437499C18.33000484375,13.9100258984375,19.63000484375,13.680035898437499,20.50000484375,13.1000358984375C20.97000484375,12.7900358984375,21.22000484375,12.4000258984375,21.22000484375,12.010025898437501C21.22000484375,11.6200258984375,20.96000484375,11.2400158984375,20.50000484375,10.9300158984375C19.63000484375,10.3500158984375,18.31000484375,10.1200258984375,17.07000084375,10.3400258984375C16.66000084375,10.4200258984375,16.27000234375,10.1400258984375,16.20000234375,9.7300238984375C16.13000234375,9.3200238984375,16.40000284375,8.9300288984375,16.81000284375,8.8600288984375C18.44000484375,8.5700288984375,20.13000484375,8.8800208984375,21.33000484375,9.6800208984375C22.21000484375,10.2700158984375,22.72000484375,11.1100258984375,22.72000484375,12.010025898437501C22.72000484375,12.9000258984375,22.22000484375,13.750035898437499,21.33000484375,14.3500358984375C20.42000484375,14.9500358984375,19.24000484375,15.2800258984375,18.01000484375,15.2800258984375C18.01000484375,15.2800258984375,18.01000484375,15.2800258984375,18.01000484375,15.2800258984375Z" fill="#000000" fill-opacity="1"/></g><g style="mix-blend-mode:passthrough"><path d="M5.96998046875,7.91C5.95998046875,7.91,5.949980468750001,7.91,5.949980468750001,7.91C4.14998046875,7.85,2.73998046875,6.39,2.72998046875,4.59C2.72998046875,2.75,4.22998046875,1.25,6.05998046875,1.25C7.88998046875,1.25,9.38998046875,2.75,9.38998046875,4.58C9.38998046875,6.39,7.97998046875,7.85,6.17998046875,7.91C6.17998046875,7.91,5.96998046875,7.16,5.96998046875,7.16C5.96998046875,7.16,6.0399804687500005,7.91,6.0399804687500005,7.91C6.01998046875,7.91,5.98998046875,7.91,5.96998046875,7.91C5.96998046875,7.91,5.96998046875,7.91,5.96998046875,7.91ZM6.06998046875,6.41C6.12998046875,6.41,6.17998046875,6.41,6.23998046875,6.42C7.12998046875,6.38,7.90998046875,5.58,7.90998046875,4.59C7.90998046875,3.58,7.08998046875,2.75999,6.07998046875,2.75999C5.06998046875,2.75999,4.24998046875,3.58,4.24998046875,4.59C4.24998046875,5.57,5.009980468749999,6.36,5.97998046875,6.42C5.98998046875,6.41,6.02998046875,6.41,6.06998046875,6.41C6.06998046875,6.41,6.06998046875,6.41,6.06998046875,6.41Z" fill="#000000" fill-opacity="1"/></g><g style="mix-blend-mode:passthrough"><path d="M5.96,15.2800258984375C4.73,15.2800258984375,3.55,14.9500358984375,2.6399999999999997,14.3500358984375C1.759999,13.7600358984375,1.25,12.9100258984375,1.25,12.010025898437501C1.25,11.1200258984375,1.759999,10.2700158984375,2.6399999999999997,9.6800208984375C3.84,8.8800208984375,5.53,8.5700288984375,7.16,8.8600288984375C7.57,8.9300288984375,7.84,9.3200238984375,7.77,9.7300238984375C7.7,10.1400258984375,7.31,10.4200258984375,6.9,10.3400258984375C5.66,10.1200258984375,4.35,10.3500158984375,3.47,10.9300158984375C3,11.2400158984375,2.75,11.6200258984375,2.75,12.010025898437501C2.75,12.4000258984375,3.01,12.7900358984375,3.47,13.1000358984375C4.34,13.680035898437499,5.64,13.9100258984375,6.87,13.700025898437499C7.28,13.6300258984375,7.67,13.9100258984375,7.74,14.3100258984375C7.81,14.7200258984375,7.54,15.1100158984375,7.13,15.1800158984375C6.74,15.2500258984375,6.35,15.2800258984375,5.96,15.2800258984375C5.96,15.2800258984375,5.96,15.2800258984375,5.96,15.2800258984375Z" fill="#000000" fill-opacity="1"/></g><g style="mix-blend-mode:passthrough"><path d="M11.99982421875,15.37999046875C11.96982421875,15.37999046875,11.949824218749999,15.37999046875,11.91982421875,15.37999046875C11.91982421875,15.37999046875,11.86982421875,15.37999046875,11.86982421875,15.37999046875C9.97982421875,15.31999046875,8.56982421875,13.859980468749999,8.56982421875,12.05998046875C8.56982421875,10.21998046875,10.06982421875,8.72998046875,11.89982421875,8.72998046875C13.72982421875,8.72998046875,15.22982421875,10.22998046875,15.22982421875,12.05998046875C15.21982421875,13.86998046875,13.80982421875,15.32998046875,12.00982421875,15.38998046875C12.00982421875,15.37998046875,12.00982421875,15.37999046875,11.99982421875,15.37999046875C11.99982421875,15.37999046875,11.99982421875,15.37999046875,11.99982421875,15.37999046875ZM11.89982421875,10.21999046875C10.88982421875,10.21999046875,10.06982421875,11.03999046875,10.06982421875,12.04999046875C10.06982421875,13.03999046875,10.83982421875,13.839990468749999,11.82982421875,13.87999046875C11.83982421875,13.86999046875,11.91982421875,13.86999046875,12.00982421875,13.87999046875C12.97982421875,13.829990468750001,13.72982421875,13.02999046875,13.73982421875,12.04999046875C13.73982421875,11.04999046875,12.91982421875,10.21999046875,11.89982421875,10.21999046875C11.89982421875,10.21999046875,11.89982421875,10.21999046875,11.89982421875,10.21999046875Z" fill="#000000" fill-opacity="1"/></g><g style="mix-blend-mode:passthrough"><path d="M11.999785156249999,22.759970703125C10.79978515625,22.759970703125,9.59978515625,22.449980703125,8.66978515625,21.819980703125C7.78978415625,21.229980703125,7.27978515625,20.389980703125,7.27978515625,19.489980703125C7.27978515625,18.599980703125,7.77978415625,17.739970703125,8.66978515625,17.149970703125C10.53978515625,15.909970703125,13.469785156250001,15.909970703125,15.32978515625,17.149970703125C16.20978515625,17.739970703125,16.719785156249998,18.579970703125,16.719785156249998,19.479970703124998C16.719785156249998,20.369970703125,16.219785156249998,21.229980703125,15.32978515625,21.819980703125C14.399785156250001,22.439980703125002,13.19978515625,22.759970703125,11.999785156249999,22.759970703125C11.999785156249999,22.759970703125,11.999785156249999,22.759970703125,11.999785156249999,22.759970703125ZM9.49978515625,18.409980703125C9.02978515625,18.719980703125,8.77978515625,19.109980703125,8.77978515625,19.499980703125C8.77978515625,19.889980703125,9.03978515625,20.269980703125,9.49978515625,20.579980703125C10.84978515625,21.489980703125,13.13978515625,21.489980703125,14.48978515625,20.579980703125C14.95978515625,20.269980703125,15.20978515625,19.879980703125,15.20978515625,19.489980703125C15.20978515625,19.099980703125,14.94978515625,18.719980703125,14.48978515625,18.409980703125C13.149785156250001,17.499980703125,10.85978515625,17.509980703125,9.49978515625,18.409980703125C9.49978515625,18.409980703125,9.49978515625,18.409980703125,9.49978515625,18.409980703125Z" fill="#000000" fill-opacity="1"/></g><g style="opacity:0;mix-blend-mode:passthrough"></g></g></g></g></svg>