<svg xmlns="http://www.w3.org/2000/svg" xmlns:xlink="http://www.w3.org/1999/xlink" fill="none" version="1.1" width="24" height="24" viewBox="0 0 24 24"><g style="mix-blend-mode:passthrough"><g style="mix-blend-mode:passthrough"><g style="mix-blend-mode:passthrough"><g style="mix-blend-mode:passthrough"><path d="M21.97000002861023,18C21.97000002861023,18,21.97000002861023,19,21.97000002861023,19C21.97000002861023,20.65,21.97000002861023,22,18.97000002861023,22C18.97000002861023,22,4.9700000286102295,22,4.9700000286102295,22C1.9699997901912294,22,1.9700000286102295,20.65,1.9700000286102295,19C1.9700000286102295,19,1.9700000286102295,18,1.9700000286102295,18C1.9700000286102295,17.45,2.4200000286102297,17,2.9700000286102295,17C2.9700000286102295,17,20.97000002861023,17,20.97000002861023,17C21.52000002861023,17,21.97000002861023,17.45,21.97000002861023,18C21.97000002861023,18,21.97000002861023,18,21.97000002861023,18Z" fill="#000000" fill-opacity="1"/></g><g style="opacity:0.4000000059604645;mix-blend-mode:passthrough"><path d="M20.719999980926513,13C20.719999980926513,13,20.719999980926513,17,20.719999980926513,17C20.719999980926513,17,3.2699999809265137,17,3.2699999809265137,17C3.2699999809265137,17,3.2699999809265137,13,3.2699999809265137,13C3.2699999809265137,9.16,5.979999980926514,5.95,9.589999980926514,5.18C10.129999980926513,5.0599998,10.689999980926514,5,11.269999980926514,5C11.269999980926514,5,12.719999980926513,5,12.719999980926513,5C13.299999980926513,5,13.869999980926513,5.0599998,14.409999980926514,5.18C18.019999980926514,5.96,20.719999980926513,9.16,20.719999980926513,13C20.719999980926513,13,20.719999980926513,13,20.719999980926513,13Z" fill="#000000" fill-opacity="1"/></g><g style="mix-blend-mode:passthrough"><path d="M14.5,4.5C14.5,4.74,14.469999999999999,4.96,14.41,5.18C13.870000000000001,5.0600000000000005,13.3,5,12.72,5C12.72,5,11.27,5,11.27,5C10.69,5,10.13,5.0600000000000005,9.5900002,5.18C9.5300002,4.96,9.5,4.74,9.5,4.5C9.5,3.12,10.620000000000001,2,12,2C13.379999999999999,2,14.5,3.12,14.5,4.5C14.5,4.5,14.5,4.5,14.5,4.5Z" fill="#000000" fill-opacity="1"/></g><g style="mix-blend-mode:passthrough"><path d="M15,11.75C15,11.75,9,11.75,9,11.75C8.59,11.75,8.25,11.41,8.25,11C8.25,10.59,8.59,10.25,9,10.25C9,10.25,15,10.25,15,10.25C15.41,10.25,15.75,10.59,15.75,11C15.75,11.41,15.41,11.75,15,11.75C15,11.75,15,11.75,15,11.75Z" fill="#000000" fill-opacity="1"/></g><g style="opacity:0;mix-blend-mode:passthrough"></g></g></g></g></svg>