<svg xmlns="http://www.w3.org/2000/svg" xmlns:xlink="http://www.w3.org/1999/xlink" fill="none" version="1.1" width="24" height="24" viewBox="0 0 24 24"><g style="mix-blend-mode:passthrough"><g style="mix-blend-mode:passthrough"><g style="mix-blend-mode:passthrough"><g style="mix-blend-mode:passthrough"><path d="M18.969997882843018,21.25C18.969997882843018,21.25,4.969997882843018,21.25,4.969997882843018,21.25C4.969997882843018,21.25,4.969997882843018,22.75,4.969997882843018,22.75C4.969997882843018,22.75,18.969997882843018,22.75,18.969997882843018,22.75C18.969997882843018,22.75,18.969997882843018,21.25,18.969997882843018,21.25C18.969997882843018,21.25,18.969997882843018,21.25,18.969997882843018,21.25ZM4.969997882843018,21.25C3.5421978828430176,21.25,3.1212878828430175,20.92333,2.9624078828430176,20.69295C2.8676478828430176,20.55554,2.799007882843018,20.36188,2.7605478828430177,20.06763C2.7212078828430175,19.76666,2.7199978828430176,19.42437,2.7199978828430176,19C2.7199978828430176,19,1.2200000508730175,19,1.2200000508730175,19C1.2200000508730175,19.40063,1.2187950528430176,19.84584,1.2732020828430175,20.262059999999998C1.3284878828430176,20.68499,1.4473548828430176,21.13821,1.7275898828430176,21.54455C2.3187078828430177,22.40167,3.3977978828430175,22.75,4.969997882843018,22.75C4.969997882843018,22.75,4.969997882843018,21.25,4.969997882843018,21.25C4.969997882843018,21.25,4.969997882843018,21.25,4.969997882843018,21.25ZM2.7199978828430176,19C2.7199978828430176,19,2.7199978828430176,18,2.7199978828430176,18C2.7199978828430176,18,1.2200000508730175,18,1.2200000508730175,18C1.2200000508730175,18,1.2200000508730175,19,1.2200000508730175,19C1.2200000508730175,19,2.7199978828430176,19,2.7199978828430176,19C2.7199978828430176,19,2.7199978828430176,19,2.7199978828430176,19ZM2.7199978828430176,18C2.7199978828430176,17.86421,2.8342178828430176,17.75,2.9699978828430176,17.75C2.9699978828430176,17.75,2.9699978828430176,16.25,2.9699978828430176,16.25C2.0057868828430174,16.25,1.2200000508730175,17.035786,1.2200000508730175,18C1.2200000508730175,18,2.7199978828430176,18,2.7199978828430176,18C2.7199978828430176,18,2.7199978828430176,18,2.7199978828430176,18ZM2.9699978828430176,17.75C2.9699978828430176,17.75,20.969997882843018,17.75,20.969997882843018,17.75C20.969997882843018,17.75,20.969997882843018,16.25,20.969997882843018,16.25C20.969997882843018,16.25,2.9699978828430176,16.25,2.9699978828430176,16.25C2.9699978828430176,16.25,2.9699978828430176,17.75,2.9699978828430176,17.75C2.9699978828430176,17.75,2.9699978828430176,17.75,2.9699978828430176,17.75ZM20.969997882843018,17.75C21.105797882843017,17.75,21.219997882843018,17.86421,21.219997882843018,18C21.219997882843018,18,22.719997882843018,18,22.719997882843018,18C22.719997882843018,17.035786,21.93419788284302,16.25,20.969997882843018,16.25C20.969997882843018,16.25,20.969997882843018,17.75,20.969997882843018,17.75C20.969997882843018,17.75,20.969997882843018,17.75,20.969997882843018,17.75ZM21.219997882843018,18C21.219997882843018,18,21.219997882843018,19,21.219997882843018,19C21.219997882843018,19,22.719997882843018,19,22.719997882843018,19C22.719997882843018,19,22.719997882843018,18,22.719997882843018,18C22.719997882843018,18,21.219997882843018,18,21.219997882843018,18C21.219997882843018,18,21.219997882843018,18,21.219997882843018,18ZM21.219997882843018,19C21.219997882843018,19.42437,21.218797882843017,19.76666,21.179497882843016,20.06763C21.140997882843017,20.36188,21.072397882843017,20.55554,20.977597882843018,20.69295C20.81869788284302,20.92333,20.39779788284302,21.25,18.969997882843018,21.25C18.969997882843018,21.25,18.969997882843018,22.75,18.969997882843018,22.75C20.542197882843016,22.75,21.621297882843017,22.40167,22.212397882843018,21.54455C22.492597882843018,21.13821,22.611497882843018,20.68499,22.666797882843017,20.262059999999998C22.72119788284302,19.84584,22.719997882843018,19.40063,22.719997882843018,19C22.719997882843018,19,21.219997882843018,19,21.219997882843018,19C21.219997882843018,19,21.219997882843018,19,21.219997882843018,19Z" fill="#000000" fill-opacity="1"/></g><g style="mix-blend-mode:passthrough"><path d="M20.719999980926513,17C20.719999980926513,17,20.719999980926513,17.75,20.719999980926513,17.75C21.134199980926514,17.75,21.469999980926513,17.4142,21.469999980926513,17C21.469999980926513,17,20.719999980926513,17,20.719999980926513,17C20.719999980926513,17,20.719999980926513,17,20.719999980926513,17ZM3.2699999809265137,17C3.2699999809265137,17,2.5199999809265137,17,2.5199999809265137,17C2.5199999809265137,17.4142,2.855785980926514,17.75,3.2699999809265137,17.75C3.2699999809265137,17.75,3.2699999809265137,17,3.2699999809265137,17C3.2699999809265137,17,3.2699999809265137,17,3.2699999809265137,17ZM9.589999980926514,5.18C9.589999980926514,5.18,9.746459980926513,5.91353,9.746459980926513,5.91353C9.746459980926513,5.91353,9.752699980926515,5.91214,9.752699980926515,5.91214C9.752699980926515,5.91214,9.589999980926514,5.18,9.589999980926514,5.18C9.589999980926514,5.18,9.589999980926514,5.18,9.589999980926514,5.18ZM14.409999980926514,5.18C14.409999980926514,5.18,14.247299980926513,5.9121500000000005,14.247299980926513,5.9121500000000005C14.247299980926513,5.9121500000000005,14.251599980926514,5.91308,14.251599980926514,5.91308C14.251599980926514,5.91308,14.409999980926514,5.18,14.409999980926514,5.18C14.409999980926514,5.18,14.409999980926514,5.18,14.409999980926514,5.18ZM19.969999980926513,13C19.969999980926513,13,19.969999980926513,17,19.969999980926513,17C19.969999980926513,17,21.469999980926513,17,21.469999980926513,17C21.469999980926513,17,21.469999980926513,13,21.469999980926513,13C21.469999980926513,13,19.969999980926513,13,19.969999980926513,13C19.969999980926513,13,19.969999980926513,13,19.969999980926513,13ZM20.719999980926513,16.25C20.719999980926513,16.25,3.2699999809265137,16.25,3.2699999809265137,16.25C3.2699999809265137,16.25,3.2699999809265137,17.75,3.2699999809265137,17.75C3.2699999809265137,17.75,20.719999980926513,17.75,20.719999980926513,17.75C20.719999980926513,17.75,20.719999980926513,16.25,20.719999980926513,16.25C20.719999980926513,16.25,20.719999980926513,16.25,20.719999980926513,16.25ZM4.019999980926514,17C4.019999980926514,17,4.019999980926514,13,4.019999980926514,13C4.019999980926514,13,2.5199999809265137,13,2.5199999809265137,13C2.5199999809265137,13,2.5199999809265137,17,2.5199999809265137,17C2.5199999809265137,17,4.019999980926514,17,4.019999980926514,17C4.019999980926514,17,4.019999980926514,17,4.019999980926514,17ZM4.019999980926514,13C4.019999980926514,9.52123,6.475389980926513,6.61121,9.746449980926513,5.9135C9.746449980926513,5.9135,9.433549980926514,4.4465,9.433549980926514,4.4465C5.484609980926514,5.2887900000000005,2.5199999809265137,8.798770000000001,2.5199999809265137,13C2.5199999809265137,13,4.019999980926514,13,4.019999980926514,13C4.019999980926514,13,4.019999980926514,13,4.019999980926514,13ZM9.752699980926515,5.91214C10.236759980926514,5.80457,10.742079980926514,5.75,11.269999980926514,5.75C11.269999980926514,5.75,11.269999980926514,4.25,11.269999980926514,4.25C10.637919980926513,4.25,10.023239980926514,4.315428,9.427299980926513,4.44786C9.427299980926513,4.44786,9.752699980926515,5.91214,9.752699980926515,5.91214C9.752699980926515,5.91214,9.752699980926515,5.91214,9.752699980926515,5.91214ZM11.269999980926514,5.75C11.269999980926514,5.75,12.719999980926513,5.75,12.719999980926513,5.75C12.719999980926513,5.75,12.719999980926513,4.25,12.719999980926513,4.25C12.719999980926513,4.25,11.269999980926514,4.25,11.269999980926514,4.25C11.269999980926514,4.25,11.269999980926514,5.75,11.269999980926514,5.75C11.269999980926514,5.75,11.269999980926514,5.75,11.269999980926514,5.75ZM12.719999980926513,5.75C13.248899980926513,5.75,13.764099980926513,5.8047699999999995,14.247299980926513,5.91214C14.247299980926513,5.91214,14.572699980926513,4.44786,14.572699980926513,4.44786C13.975899980926513,4.315229,13.351099980926513,4.25,12.719999980926513,4.25C12.719999980926513,4.25,12.719999980926513,5.75,12.719999980926513,5.75C12.719999980926513,5.75,12.719999980926513,5.75,12.719999980926513,5.75ZM14.251599980926514,5.91308C17.524399980926514,6.620229999999999,19.969999980926513,9.52134,19.969999980926513,13C19.969999980926513,13,21.469999980926513,13,21.469999980926513,13C21.469999980926513,8.79866,18.515599980926513,5.29976,14.568399980926515,4.446917C14.568399980926515,4.446917,14.251599980926514,5.91308,14.251599980926514,5.91308C14.251599980926514,5.91308,14.251599980926514,5.91308,14.251599980926514,5.91308Z" fill="#000000" fill-opacity="1"/></g><g style="opacity:0;mix-blend-mode:passthrough"></g><g style="opacity:0.3400000035762787;mix-blend-mode:passthrough"><path d="M14.41,5.18C14.41,5.18,14.2473,5.91214,14.2473,5.91214C14.638110000000001,5.99899,15.02823,5.76358,15.133569999999999,5.37734C15.133569999999999,5.37734,14.41,5.18,14.41,5.18C14.41,5.18,14.41,5.18,14.41,5.18ZM9.59,5.18C9.59,5.18,8.866427,5.37734,8.866427,5.37734C8.971765,5.76358,9.361887,5.99899,9.7527,5.91214C9.7527,5.91214,9.59,5.18,9.59,5.18C9.59,5.18,9.59,5.18,9.59,5.18ZM13.75,4.5C13.75,4.67392,13.728729999999999,4.827529999999999,13.68643,4.98266C13.68643,4.98266,15.133569999999999,5.37734,15.133569999999999,5.37734C15.21126,5.0924700000000005,15.25,4.80608,15.25,4.5C15.25,4.5,13.75,4.5,13.75,4.5C13.75,4.5,13.75,4.5,13.75,4.5ZM14.572700000000001,4.44786C13.97586,4.31523,13.35111,4.25,12.72,4.25C12.72,4.25,12.72,5.75,12.72,5.75C13.24889,5.75,13.764140000000001,5.80477,14.2473,5.91214C14.2473,5.91214,14.572700000000001,4.44786,14.572700000000001,4.44786C14.572700000000001,4.44786,14.572700000000001,4.44786,14.572700000000001,4.44786ZM12.72,4.25C12.72,4.25,11.27,4.25,11.27,4.25C11.27,4.25,11.27,5.75,11.27,5.75C11.27,5.75,12.72,5.75,12.72,5.75C12.72,5.75,12.72,4.25,12.72,4.25C12.72,4.25,12.72,4.25,12.72,4.25ZM11.27,4.25C10.63792,4.25,10.02324,4.31543,9.427302,4.44786C9.427302,4.44786,9.7527,5.91214,9.7527,5.91214C10.23676,5.80457,10.74208,5.75,11.27,5.75C11.27,5.75,11.27,4.25,11.27,4.25C11.27,4.25,11.27,4.25,11.27,4.25ZM10.31357,4.98266C10.27127,4.827529999999999,10.25,4.67392,10.25,4.5C10.25,4.5,8.75,4.5,8.75,4.5C8.75,4.80608,8.788735,5.0924700000000005,8.866427,5.37734C8.866427,5.37734,10.31357,4.98266,10.31357,4.98266C10.31357,4.98266,10.31357,4.98266,10.31357,4.98266ZM10.25,4.5C10.25,3.53421,11.03421,2.75,12,2.75C12,2.75,12,1.25,12,1.25C10.20579,1.25,8.75,2.70579,8.75,4.5C8.75,4.5,10.25,4.5,10.25,4.5C10.25,4.5,10.25,4.5,10.25,4.5ZM12,2.75C12.96579,2.75,13.75,3.53421,13.75,4.5C13.75,4.5,15.25,4.5,15.25,4.5C15.25,2.70579,13.79421,1.25,12,1.25C12,1.25,12,2.75,12,2.75C12,2.75,12,2.75,12,2.75Z" fill="#000000" fill-opacity="1"/></g><g style="opacity:0.3400000035762787;mix-blend-mode:passthrough"><path d="M15,11.75C15.41421,11.75,15.75,11.41421,15.75,11C15.75,10.585786,15.41421,10.25,15,10.25C15,10.25,15,11.75,15,11.75C15,11.75,15,11.75,15,11.75ZM9,10.25C8.585786,10.25,8.25,10.585786,8.25,11C8.25,11.41421,8.585786,11.75,9,11.75C9,11.75,9,10.25,9,10.25C9,10.25,9,10.25,9,10.25ZM15,10.25C15,10.25,9,10.25,9,10.25C9,10.25,9,11.75,9,11.75C9,11.75,15,11.75,15,11.75C15,11.75,15,10.25,15,10.25C15,10.25,15,10.25,15,10.25Z" fill="#000000" fill-opacity="1"/></g></g></g></g></svg>