<svg xmlns="http://www.w3.org/2000/svg" xmlns:xlink="http://www.w3.org/1999/xlink" fill="none" version="1.1" width="24" height="24" viewBox="0 0 24 24"><g style="mix-blend-mode:passthrough"><g style="mix-blend-mode:passthrough"><g style="mix-blend-mode:passthrough"><g style="mix-blend-mode:passthrough"><path d="M18.97000002861023,22.75C18.97000002861023,22.75,4.9700000286102295,22.75,4.9700000286102295,22.75C1.2199997901912294,22.75,1.2200000286102295,20.67,1.2200000286102295,19C1.2200000286102295,19,1.2200000286102295,18,1.2200000286102295,18C1.2200000286102295,17.04,2.0100000286102295,16.25,2.9700000286102295,16.25C2.9700000286102295,16.25,20.97000002861023,16.25,20.97000002861023,16.25C21.93000002861023,16.25,22.72000002861023,17.04,22.72000002861023,18C22.72000002861023,18,22.72000002861023,19,22.72000002861023,19C22.72000002861023,20.67,22.72000002861023,22.75,18.97000002861023,22.75C18.97000002861023,22.75,18.97000002861023,22.75,18.97000002861023,22.75ZM2.9700000286102295,17.75C2.83000002861023,17.75,2.7200000286102295,17.86,2.7200000286102295,18C2.7200000286102295,18,2.7200000286102295,19,2.7200000286102295,19C2.7200000286102295,20.64,2.7200000286102295,21.25,4.9700000286102295,21.25C4.9700000286102295,21.25,18.97000002861023,21.25,18.97000002861023,21.25C21.22000002861023,21.25,21.22000002861023,20.64,21.22000002861023,19C21.22000002861023,19,21.22000002861023,18,21.22000002861023,18C21.22000002861023,17.86,21.11000002861023,17.75,20.97000002861023,17.75C20.97000002861023,17.75,2.9700000286102295,17.75,2.9700000286102295,17.75C2.9700000286102295,17.75,2.9700000286102295,17.75,2.9700000286102295,17.75Z" fill="#000000" fill-opacity="1"/></g><g style="mix-blend-mode:passthrough"><path d="M20.719999980926513,17.75C20.719999980926513,17.75,3.2699999809265137,17.75,3.2699999809265137,17.75C2.8599999809265135,17.75,2.5199999809265137,17.41,2.5199999809265137,17C2.5199999809265137,17,2.5199999809265137,13,2.5199999809265137,13C2.5199999809265137,8.9,5.429999980926514,5.3,9.429999980926514,4.45C10.019999980926514,4.3199998,10.639999980926513,4.25,11.269999980926514,4.25C11.269999980926514,4.25,12.719999980926513,4.25,12.719999980926513,4.25C13.359999980926514,4.25,13.979999980926515,4.3199998,14.569999980926514,4.45C18.569999980926514,5.3100000000000005,21.469999980926513,8.91,21.469999980926513,13C21.469999980926513,13,21.469999980926513,17,21.469999980926513,17C21.469999980926513,17.41,21.139999980926515,17.75,20.719999980926513,17.75C20.719999980926513,17.75,20.719999980926513,17.75,20.719999980926513,17.75ZM4.019999980926514,16.25C4.019999980926514,16.25,19.969999980926513,16.25,19.969999980926513,16.25C19.969999980926513,16.25,19.969999980926513,13,19.969999980926513,13C19.969999980926513,9.61,17.569999980926514,6.63,14.249999980926514,5.91C13.759999980926514,5.8,13.249999980926514,5.75,12.719999980926513,5.75C12.719999980926513,5.75,11.269999980926514,5.75,11.269999980926514,5.75C10.749999980926514,5.75,10.239999980926513,5.8,9.749999980926514,5.91C6.429999980926514,6.62,4.019999980926514,9.6,4.019999980926514,13C4.019999980926514,13,4.019999980926514,16.25,4.019999980926514,16.25C4.019999980926514,16.25,4.019999980926514,16.25,4.019999980926514,16.25Z" fill="#000000" fill-opacity="1"/></g><g style="mix-blend-mode:passthrough"><path d="M9.59,5.93C9.26,5.93,8.96,5.71,8.87,5.38C8.7899999,5.09,8.75,4.8,8.75,4.5C8.75,2.71,10.21,1.25,12,1.25C13.79,1.25,15.25,2.71,15.25,4.5C15.25,4.8,15.21,5.09,15.129999999999999,5.38C15.030000000000001,5.76,14.65,6,14.25,5.91C13.76,5.8,13.25,5.75,12.72,5.75C12.72,5.75,11.27,5.75,11.27,5.75C10.75,5.75,10.24,5.8,9.75,5.91C9.7,5.92,9.65,5.93,9.59,5.93C9.59,5.93,9.59,5.93,9.59,5.93ZM11.27,4.25C11.27,4.25,12.72,4.25,12.72,4.25C13.059999999999999,4.25,13.41,4.27,13.74,4.3100000000000005C13.65,3.43,12.9,2.75,12,2.75C11.1,2.75,10.36,3.43,10.26,4.3100000000000005C10.6,4.27,10.93,4.25,11.27,4.25C11.27,4.25,11.27,4.25,11.27,4.25Z" fill="#000000" fill-opacity="1"/></g><g style="mix-blend-mode:passthrough"><path d="M15,11.75C15,11.75,9,11.75,9,11.75C8.59,11.75,8.25,11.41,8.25,11C8.25,10.59,8.59,10.25,9,10.25C9,10.25,15,10.25,15,10.25C15.41,10.25,15.75,10.59,15.75,11C15.75,11.41,15.41,11.75,15,11.75C15,11.75,15,11.75,15,11.75Z" fill="#000000" fill-opacity="1"/></g><g style="opacity:0;mix-blend-mode:passthrough"></g></g></g></g></svg>