<svg xmlns="http://www.w3.org/2000/svg" xmlns:xlink="http://www.w3.org/1999/xlink" fill="none" version="1.1" width="24" height="24" viewBox="0 0 24 24"><g style="mix-blend-mode:passthrough"><g style="mix-blend-mode:passthrough"><g style="mix-blend-mode:passthrough"><g style="mix-blend-mode:passthrough"><path d="M1.25,9C1.25,9.41421,1.585786,9.75,2,9.75C2.4142099999999997,9.75,2.75,9.41421,2.75,9C2.75,9,1.25,9,1.25,9C1.25,9,1.25,9,1.25,9ZM9,2.75C9.41421,2.75,9.75,2.4142099999999997,9.75,2C9.75,1.585786,9.41421,1.25,9,1.25C9,1.25,9,2.75,9,2.75C9,2.75,9,2.75,9,2.75ZM2.75,9C2.75,9,2.75,6.5,2.75,6.5C2.75,6.5,1.25,6.5,1.25,6.5C1.25,6.5,1.25,9,1.25,9C1.25,9,2.75,9,2.75,9C2.75,9,2.75,9,2.75,9ZM2.75,6.5C2.75,4.42421,4.42421,2.75,6.5,2.75C6.5,2.75,6.5,1.25,6.5,1.25C3.59579,1.25,1.25,3.59579,1.25,6.5C1.25,6.5,2.75,6.5,2.75,6.5C2.75,6.5,2.75,6.5,2.75,6.5ZM6.5,2.75C6.5,2.75,9,2.75,9,2.75C9,2.75,9,1.25,9,1.25C9,1.25,6.5,1.25,6.5,1.25C6.5,1.25,6.5,2.75,6.5,2.75C6.5,2.75,6.5,2.75,6.5,2.75Z" fill="#000000" fill-opacity="1"/></g><g style="mix-blend-mode:passthrough"><path d="M15,1.25C14.585786,1.25,14.25,1.585786,14.25,2C14.25,2.4142099999999997,14.585786,2.75,15,2.75C15,2.75,15,1.25,15,1.25C15,1.25,15,1.25,15,1.25ZM21.25,9C21.25,9.41421,21.58579,9.75,22,9.75C22.41421,9.75,22.75,9.41421,22.75,9C22.75,9,21.25,9,21.25,9C21.25,9,21.25,9,21.25,9ZM15,2.75C15,2.75,17.5,2.75,17.5,2.75C17.5,2.75,17.5,1.25,17.5,1.25C17.5,1.25,15,1.25,15,1.25C15,1.25,15,2.75,15,2.75C15,2.75,15,2.75,15,2.75ZM17.5,2.75C19.575789999999998,2.75,21.25,4.42421,21.25,6.5C21.25,6.5,22.75,6.5,22.75,6.5C22.75,3.59579,20.40421,1.25,17.5,1.25C17.5,1.25,17.5,2.75,17.5,2.75C17.5,2.75,17.5,2.75,17.5,2.75ZM21.25,6.5C21.25,6.5,21.25,9,21.25,9C21.25,9,22.75,9,22.75,9C22.75,9,22.75,6.5,22.75,6.5C22.75,6.5,21.25,6.5,21.25,6.5C21.25,6.5,21.25,6.5,21.25,6.5Z" fill="#000000" fill-opacity="1"/></g><g style="mix-blend-mode:passthrough"><path d="M22.75,16C22.75,15.585786,22.41421,15.25,22,15.25C21.58579,15.25,21.25,15.585786,21.25,16C21.25,16,22.75,16,22.75,16C22.75,16,22.75,16,22.75,16ZM16,21.25C15.585786,21.25,15.25,21.58579,15.25,22C15.25,22.41421,15.585786,22.75,16,22.75C16,22.75,16,21.25,16,21.25C16,21.25,16,21.25,16,21.25ZM21.25,16C21.25,16,21.25,17.5,21.25,17.5C21.25,17.5,22.75,17.5,22.75,17.5C22.75,17.5,22.75,16,22.75,16C22.75,16,21.25,16,21.25,16C21.25,16,21.25,16,21.25,16ZM21.25,17.5C21.25,19.575789999999998,19.575789999999998,21.25,17.5,21.25C17.5,21.25,17.5,22.75,17.5,22.75C20.40421,22.75,22.75,20.40421,22.75,17.5C22.75,17.5,21.25,17.5,21.25,17.5C21.25,17.5,21.25,17.5,21.25,17.5ZM17.5,21.25C17.5,21.25,16,21.25,16,21.25C16,21.25,16,22.75,16,22.75C16,22.75,17.5,22.75,17.5,22.75C17.5,22.75,17.5,21.25,17.5,21.25C17.5,21.25,17.5,21.25,17.5,21.25Z" fill="#000000" fill-opacity="1"/></g><g style="mix-blend-mode:passthrough"><path d="M9,22.75C9.41421,22.75,9.75,22.41421,9.75,22C9.75,21.58579,9.41421,21.25,9,21.25C9,21.25,9,22.75,9,22.75C9,22.75,9,22.75,9,22.75ZM2.75,15C2.75,14.585786,2.4142099999999997,14.25,2,14.25C1.585786,14.25,1.25,14.585786,1.25,15C1.25,15,2.75,15,2.75,15C2.75,15,2.75,15,2.75,15ZM9,21.25C9,21.25,6.5,21.25,6.5,21.25C6.5,21.25,6.5,22.75,6.5,22.75C6.5,22.75,9,22.75,9,22.75C9,22.75,9,21.25,9,21.25C9,21.25,9,21.25,9,21.25ZM6.5,21.25C4.42421,21.25,2.75,19.575789999999998,2.75,17.5C2.75,17.5,1.25,17.5,1.25,17.5C1.25,20.40421,3.59579,22.75,6.5,22.75C6.5,22.75,6.5,21.25,6.5,21.25C6.5,21.25,6.5,21.25,6.5,21.25ZM2.75,17.5C2.75,17.5,2.75,15,2.75,15C2.75,15,1.25,15,1.25,15C1.25,15,1.25,17.5,1.25,17.5C1.25,17.5,2.75,17.5,2.75,17.5C2.75,17.5,2.75,17.5,2.75,17.5Z" fill="#000000" fill-opacity="1"/></g><g style="opacity:0.4000000059604645;mix-blend-mode:passthrough"><path d="M9.75,7C9.75,7,9.75,9,9.75,9C9.75,9,11.25,9,11.25,9C11.25,9,11.25,7,11.25,7C11.25,7,9.75,7,9.75,7C9.75,7,9.75,7,9.75,7ZM9.75,9C9.75,9.38439,9.65441,9.53493,9.59467,9.59467C9.53493,9.65441,9.38439,9.75,9,9.75C9,9.75,9,11.25,9,11.25C9.61561,11.25,10.21507,11.09559,10.65533,10.65533C11.09559,10.21507,11.25,9.61561,11.25,9C11.25,9,9.75,9,9.75,9C9.75,9,9.75,9,9.75,9ZM9,9.75C9,9.75,7,9.75,7,9.75C7,9.75,7,11.25,7,11.25C7,11.25,9,11.25,9,11.25C9,11.25,9,9.75,9,9.75C9,9.75,9,9.75,9,9.75ZM7,9.75C6.61561,9.75,6.46507,9.65441,6.40533,9.59467C6.34559,9.53493,6.25,9.38439,6.25,9C6.25,9,4.75,9,4.75,9C4.75,9.61561,4.90441,10.21507,5.34467,10.65533C5.78493,11.09559,6.38439,11.25,7,11.25C7,11.25,7,9.75,7,9.75C7,9.75,7,9.75,7,9.75ZM6.25,9C6.25,9,6.25,7,6.25,7C6.25,7,4.75,7,4.75,7C4.75,7,4.75,9,4.75,9C4.75,9,6.25,9,6.25,9C6.25,9,6.25,9,6.25,9ZM6.25,7C6.25,6.61561,6.34559,6.46507,6.40533,6.40533C6.46507,6.34559,6.61561,6.25,7,6.25C7,6.25,7,4.75,7,4.75C6.38439,4.75,5.78493,4.90441,5.34467,5.34467C4.90441,5.78493,4.75,6.38439,4.75,7C4.75,7,6.25,7,6.25,7C6.25,7,6.25,7,6.25,7ZM7,6.25C7,6.25,9,6.25,9,6.25C9,6.25,9,4.75,9,4.75C9,4.75,7,4.75,7,4.75C7,4.75,7,6.25,7,6.25C7,6.25,7,6.25,7,6.25ZM9,6.25C9.38439,6.25,9.53493,6.34559,9.59467,6.40533C9.65441,6.46507,9.75,6.61561,9.75,7C9.75,7,11.25,7,11.25,7C11.25,6.38439,11.09559,5.78493,10.65533,5.34467C10.21507,4.90441,9.61561,4.75,9,4.75C9,4.75,9,6.25,9,6.25C9,6.25,9,6.25,9,6.25Z" fill="#000000" fill-opacity="1"/></g><g style="opacity:0.4000000059604645;mix-blend-mode:passthrough"><path d="M17.75,7C17.75,7,17.75,9,17.75,9C17.75,9,19.25,9,19.25,9C19.25,9,19.25,7,19.25,7C19.25,7,17.75,7,17.75,7C17.75,7,17.75,7,17.75,7ZM17.75,9C17.75,9.38439,17.65441,9.53493,17.59467,9.59467C17.53493,9.65441,17.38439,9.75,17,9.75C17,9.75,17,11.25,17,11.25C17.61561,11.25,18.21507,11.09559,18.65533,10.65533C19.09559,10.21507,19.25,9.61561,19.25,9C19.25,9,17.75,9,17.75,9C17.75,9,17.75,9,17.75,9ZM17,9.75C17,9.75,15,9.75,15,9.75C15,9.75,15,11.25,15,11.25C15,11.25,17,11.25,17,11.25C17,11.25,17,9.75,17,9.75C17,9.75,17,9.75,17,9.75ZM15,9.75C14.61561,9.75,14.46507,9.65441,14.40533,9.59467C14.34559,9.53493,14.25,9.38439,14.25,9C14.25,9,12.75,9,12.75,9C12.75,9.61561,12.90441,10.21507,13.34467,10.65533C13.78493,11.09559,14.38439,11.25,15,11.25C15,11.25,15,9.75,15,9.75C15,9.75,15,9.75,15,9.75ZM14.25,9C14.25,9,14.25,7,14.25,7C14.25,7,12.75,7,12.75,7C12.75,7,12.75,9,12.75,9C12.75,9,14.25,9,14.25,9C14.25,9,14.25,9,14.25,9ZM14.25,7C14.25,6.61561,14.34559,6.46507,14.40533,6.40533C14.46507,6.34559,14.61561,6.25,15,6.25C15,6.25,15,4.75,15,4.75C14.38439,4.75,13.78493,4.90441,13.34467,5.34467C12.90441,5.78493,12.75,6.38439,12.75,7C12.75,7,14.25,7,14.25,7C14.25,7,14.25,7,14.25,7ZM15,6.25C15,6.25,17,6.25,17,6.25C17,6.25,17,4.75,17,4.75C17,4.75,15,4.75,15,4.75C15,4.75,15,6.25,15,6.25C15,6.25,15,6.25,15,6.25ZM17,6.25C17.38439,6.25,17.53493,6.34559,17.59467,6.40533C17.65441,6.46507,17.75,6.61561,17.75,7C17.75,7,19.25,7,19.25,7C19.25,6.38439,19.09559,5.78493,18.65533,5.34467C18.21507,4.90441,17.61561,4.75,17,4.75C17,4.75,17,6.25,17,6.25C17,6.25,17,6.25,17,6.25Z" fill="#000000" fill-opacity="1"/></g><g style="opacity:0.4000000059604645;mix-blend-mode:passthrough"><path d="M9.75,15C9.75,15,9.75,17,9.75,17C9.75,17,11.25,17,11.25,17C11.25,17,11.25,15,11.25,15C11.25,15,9.75,15,9.75,15C9.75,15,9.75,15,9.75,15ZM9.75,17C9.75,17.38439,9.65441,17.53493,9.59467,17.59467C9.53493,17.65441,9.38439,17.75,9,17.75C9,17.75,9,19.25,9,19.25C9.61561,19.25,10.21507,19.09559,10.65533,18.65533C11.09559,18.21507,11.25,17.61561,11.25,17C11.25,17,9.75,17,9.75,17C9.75,17,9.75,17,9.75,17ZM9,17.75C9,17.75,7,17.75,7,17.75C7,17.75,7,19.25,7,19.25C7,19.25,9,19.25,9,19.25C9,19.25,9,17.75,9,17.75C9,17.75,9,17.75,9,17.75ZM7,17.75C6.61561,17.75,6.46507,17.65441,6.40533,17.59467C6.34559,17.53493,6.25,17.38439,6.25,17C6.25,17,4.75,17,4.75,17C4.75,17.61561,4.90441,18.21507,5.34467,18.65533C5.78493,19.09559,6.38439,19.25,7,19.25C7,19.25,7,17.75,7,17.75C7,17.75,7,17.75,7,17.75ZM6.25,17C6.25,17,6.25,15,6.25,15C6.25,15,4.75,15,4.75,15C4.75,15,4.75,17,4.75,17C4.75,17,6.25,17,6.25,17C6.25,17,6.25,17,6.25,17ZM6.25,15C6.25,14.61561,6.34559,14.46507,6.40533,14.40533C6.46507,14.34559,6.61561,14.25,7,14.25C7,14.25,7,12.75,7,12.75C6.38439,12.75,5.78493,12.90441,5.34467,13.34467C4.90441,13.78493,4.75,14.38439,4.75,15C4.75,15,6.25,15,6.25,15C6.25,15,6.25,15,6.25,15ZM7,14.25C7,14.25,9,14.25,9,14.25C9,14.25,9,12.75,9,12.75C9,12.75,7,12.75,7,12.75C7,12.75,7,14.25,7,14.25C7,14.25,7,14.25,7,14.25ZM9,14.25C9.38439,14.25,9.53493,14.34559,9.59467,14.40533C9.65441,14.46507,9.75,14.61561,9.75,15C9.75,15,11.25,15,11.25,15C11.25,14.38439,11.09559,13.78493,10.65533,13.34467C10.21507,12.90441,9.61561,12.75,9,12.75C9,12.75,9,14.25,9,14.25C9,14.25,9,14.25,9,14.25Z" fill="#000000" fill-opacity="1"/></g><g style="opacity:0.4000000059604645;mix-blend-mode:passthrough"><path d="M17.75,15C17.75,15,17.75,17,17.75,17C17.75,17,19.25,17,19.25,17C19.25,17,19.25,15,19.25,15C19.25,15,17.75,15,17.75,15C17.75,15,17.75,15,17.75,15ZM17.75,17C17.75,17.38439,17.65441,17.53493,17.59467,17.59467C17.53493,17.65441,17.38439,17.75,17,17.75C17,17.75,17,19.25,17,19.25C17.61561,19.25,18.21507,19.09559,18.65533,18.65533C19.09559,18.21507,19.25,17.61561,19.25,17C19.25,17,17.75,17,17.75,17C17.75,17,17.75,17,17.75,17ZM17,17.75C17,17.75,15,17.75,15,17.75C15,17.75,15,19.25,15,19.25C15,19.25,17,19.25,17,19.25C17,19.25,17,17.75,17,17.75C17,17.75,17,17.75,17,17.75ZM15,17.75C14.61561,17.75,14.46507,17.65441,14.40533,17.59467C14.34559,17.53493,14.25,17.38439,14.25,17C14.25,17,12.75,17,12.75,17C12.75,17.61561,12.90441,18.21507,13.34467,18.65533C13.78493,19.09559,14.38439,19.25,15,19.25C15,19.25,15,17.75,15,17.75C15,17.75,15,17.75,15,17.75ZM14.25,17C14.25,17,14.25,15,14.25,15C14.25,15,12.75,15,12.75,15C12.75,15,12.75,17,12.75,17C12.75,17,14.25,17,14.25,17C14.25,17,14.25,17,14.25,17ZM14.25,15C14.25,14.61561,14.34559,14.46507,14.40533,14.40533C14.46507,14.34559,14.61561,14.25,15,14.25C15,14.25,15,12.75,15,12.75C14.38439,12.75,13.78493,12.90441,13.34467,13.34467C12.90441,13.78493,12.75,14.38439,12.75,15C12.75,15,14.25,15,14.25,15C14.25,15,14.25,15,14.25,15ZM15,14.25C15,14.25,17,14.25,17,14.25C17,14.25,17,12.75,17,12.75C17,12.75,15,12.75,15,12.75C15,12.75,15,14.25,15,14.25C15,14.25,15,14.25,15,14.25ZM17,14.25C17.38439,14.25,17.53493,14.34559,17.59467,14.40533C17.65441,14.46507,17.75,14.61561,17.75,15C17.75,15,19.25,15,19.25,15C19.25,14.38439,19.09559,13.78493,18.65533,13.34467C18.21507,12.90441,17.61561,12.75,17,12.75C17,12.75,17,14.25,17,14.25C17,14.25,17,14.25,17,14.25Z" fill="#000000" fill-opacity="1"/></g><g style="opacity:0;mix-blend-mode:passthrough" transform="matrix(-1,0,0,-1,48,48)"></g></g></g></g></svg>