<svg xmlns="http://www.w3.org/2000/svg" xmlns:xlink="http://www.w3.org/1999/xlink" fill="none" version="1.1" width="24" height="24" viewBox="0 0 24 24"><g style="mix-blend-mode:passthrough"><g style="mix-blend-mode:passthrough"><g style="mix-blend-mode:passthrough"><g style="opacity:0;mix-blend-mode:passthrough"></g><g style="mix-blend-mode:passthrough"><g style="mix-blend-mode:passthrough"><path d="M22,9.75C21.59,9.75,21.25,9.41,21.25,9C21.25,9,21.25,7,21.25,7C21.25,4.42,19.58,2.75,17,2.75C17,2.75,7,2.75,7,2.75C4.42,2.75,2.75,4.42,2.75,7C2.75,7,2.75,9,2.75,9C2.75,9.41,2.41,9.75,2,9.75C1.59,9.75,1.25,9.41,1.25,9C1.25,9,1.25,7,1.25,7C1.25,3.56,3.56,1.25,7,1.25C7,1.25,17,1.25,17,1.25C20.44,1.25,22.75,3.56,22.75,7C22.75,7,22.75,9,22.75,9C22.75,9.41,22.41,9.75,22,9.75C22,9.75,22,9.75,22,9.75Z" fill="#000000" fill-opacity="1"/></g></g><g style="mix-blend-mode:passthrough"><g style="mix-blend-mode:passthrough"><path d="M17,22.75C17,22.75,7,22.75,7,22.75C3.56,22.75,1.25,20.44,1.25,17C1.25,17,1.25,15,1.25,15C1.25,14.59,1.59,14.25,2,14.25C2.41,14.25,2.75,14.59,2.75,15C2.75,15,2.75,17,2.75,17C2.75,19.58,4.42,21.25,7,21.25C7,21.25,17,21.25,17,21.25C19.58,21.25,21.25,19.58,21.25,17C21.25,17,21.25,15,21.25,15C21.25,14.59,21.59,14.25,22,14.25C22.41,14.25,22.75,14.59,22.75,15C22.75,15,22.75,17,22.75,17C22.75,20.44,20.44,22.75,17,22.75C17,22.75,17,22.75,17,22.75Z" fill="#000000" fill-opacity="1"/></g></g><g style="mix-blend-mode:passthrough"><g style="mix-blend-mode:passthrough"><path d="M22,12.75C22,12.75,2,12.75,2,12.75C1.59,12.75,1.25,12.41,1.25,12C1.25,11.59,1.59,11.25,2,11.25C2,11.25,22,11.25,22,11.25C22.41,11.25,22.75,11.59,22.75,12C22.75,12.41,22.41,12.75,22,12.75C22,12.75,22,12.75,22,12.75Z" fill="#000000" fill-opacity="1"/></g></g><g style="opacity:0.4000000059604645;mix-blend-mode:passthrough"><path d="M16.5,9C16.5,9,7.5,9,7.5,9C7.22,9,7,8.78,7,8.5C7,8.5,7,6.5,7,6.5C7,5.68,7.67,5,8.5,5C8.5,5,15.5,5,15.5,5C16.33,5,17,5.68,17,6.5C17,6.5,17,8.5,17,8.5C17,8.78,16.78,9,16.5,9C16.5,9,16.5,9,16.5,9Z" fill="#000000" fill-opacity="1"/></g><g style="opacity:0.4000000059604645;mix-blend-mode:passthrough"><path d="M16.5,15C16.5,15,7.5,15,7.5,15C7.22,15,7,15.22,7,15.5C7,15.5,7,17.5,7,17.5C7,18.32,7.67,19,8.5,19C8.5,19,15.5,19,15.5,19C16.33,19,17,18.32,17,17.5C17,17.5,17,15.5,17,15.5C17,15.22,16.78,15,16.5,15C16.5,15,16.5,15,16.5,15Z" fill="#000000" fill-opacity="1"/></g></g></g></g></svg>