<svg xmlns="http://www.w3.org/2000/svg" xmlns:xlink="http://www.w3.org/1999/xlink" fill="none" version="1.1" width="24" height="24" viewBox="0 0 24 24"><g style="mix-blend-mode:passthrough"><g style="mix-blend-mode:passthrough"><g style="mix-blend-mode:passthrough"><g style="mix-blend-mode:passthrough"><path d="M1.25,9C1.25,9.41421,1.585786,9.75,2,9.75C2.4142099999999997,9.75,2.75,9.41421,2.75,9C2.75,9,1.25,9,1.25,9C1.25,9,1.25,9,1.25,9ZM21.25,9C21.25,9.41421,21.5858,9.75,22,9.75C22.4142,9.75,22.75,9.41421,22.75,9C22.75,9,21.25,9,21.25,9C21.25,9,21.25,9,21.25,9ZM2.75,9C2.75,9,2.75,7,2.75,7C2.75,7,1.25,7,1.25,7C1.25,7,1.25,9,1.25,9C1.25,9,2.75,9,2.75,9C2.75,9,2.75,9,2.75,9ZM2.75,7C2.75,5.67044,3.1899100000000002,4.62075,3.90533,3.90533C4.62075,3.1899100000000002,5.67044,2.75,7,2.75C7,2.75,7,1.25,7,1.25C5.32956,1.25,3.87925,1.810085,2.84467,2.84467C1.810085,3.87925,1.25,5.32956,1.25,7C1.25,7,2.75,7,2.75,7C2.75,7,2.75,7,2.75,7ZM7,2.75C7,2.75,17,2.75,17,2.75C17,2.75,17,1.25,17,1.25C17,1.25,7,1.25,7,1.25C7,1.25,7,2.75,7,2.75C7,2.75,7,2.75,7,2.75ZM17,2.75C18.3296,2.75,19.3793,3.1899100000000002,20.0947,3.90533C20.8101,4.62075,21.25,5.67044,21.25,7C21.25,7,22.75,7,22.75,7C22.75,5.32956,22.1899,3.87925,21.1553,2.84467C20.1207,1.810085,18.6704,1.25,17,1.25C17,1.25,17,2.75,17,2.75C17,2.75,17,2.75,17,2.75ZM21.25,7C21.25,7,21.25,9,21.25,9C21.25,9,22.75,9,22.75,9C22.75,9,22.75,7,22.75,7C22.75,7,21.25,7,21.25,7C21.25,7,21.25,7,21.25,7Z" fill="#000000" fill-opacity="1"/></g><g style="mix-blend-mode:passthrough"><path d="M2.75,15C2.75,14.585786,2.4142099999999997,14.25,2,14.25C1.585786,14.25,1.25,14.585786,1.25,15C1.25,15,2.75,15,2.75,15C2.75,15,2.75,15,2.75,15ZM22.75,15C22.75,14.585786,22.4142,14.25,22,14.25C21.5858,14.25,21.25,14.585786,21.25,15C21.25,15,22.75,15,22.75,15C22.75,15,22.75,15,22.75,15ZM1.25,15C1.25,15,1.25,17,1.25,17C1.25,17,2.75,17,2.75,17C2.75,17,2.75,15,2.75,15C2.75,15,1.25,15,1.25,15C1.25,15,1.25,15,1.25,15ZM1.25,17C1.25,18.67044,1.810085,20.12075,2.84467,21.15533C3.87925,22.18991,5.32956,22.75,7,22.75C7,22.75,7,21.25,7,21.25C5.67044,21.25,4.62075,20.81009,3.90533,20.09467C3.1899100000000002,19.37925,2.75,18.32956,2.75,17C2.75,17,1.25,17,1.25,17C1.25,17,1.25,17,1.25,17ZM7,22.75C7,22.75,17,22.75,17,22.75C17,22.75,17,21.25,17,21.25C17,21.25,7,21.25,7,21.25C7,21.25,7,22.75,7,22.75C7,22.75,7,22.75,7,22.75ZM17,22.75C18.6704,22.75,20.1207,22.18991,21.1553,21.15533C22.1899,20.12075,22.75,18.67044,22.75,17C22.75,17,21.25,17,21.25,17C21.25,18.32956,20.8101,19.37925,20.0947,20.09467C19.3793,20.81009,18.3296,21.25,17,21.25C17,21.25,17,22.75,17,22.75C17,22.75,17,22.75,17,22.75ZM22.75,17C22.75,17,22.75,15,22.75,15C22.75,15,21.25,15,21.25,15C21.25,15,21.25,17,21.25,17C21.25,17,22.75,17,22.75,17C22.75,17,22.75,17,22.75,17Z" fill="#000000" fill-opacity="1"/></g><g style="opacity:0.4000000059604645;mix-blend-mode:passthrough"><path d="M2,11.25C1.585786,11.25,1.25,11.585786,1.25,12C1.25,12.41421,1.585786,12.75,2,12.75C2,12.75,2,11.25,2,11.25C2,11.25,2,11.25,2,11.25ZM22,12.75C22.4142,12.75,22.75,12.41421,22.75,12C22.75,11.585786,22.4142,11.25,22,11.25C22,11.25,22,12.75,22,12.75C22,12.75,22,12.75,22,12.75ZM2,12.75C2,12.75,22,12.75,22,12.75C22,12.75,22,11.25,22,11.25C22,11.25,2,11.25,2,11.25C2,11.25,2,12.75,2,12.75C2,12.75,2,12.75,2,12.75Z" fill="#000000" fill-opacity="1"/></g><g style="opacity:0;mix-blend-mode:passthrough"></g></g></g></g></svg>