<svg xmlns="http://www.w3.org/2000/svg" xmlns:xlink="http://www.w3.org/1999/xlink" fill="none" version="1.1" width="24" height="24" viewBox="0 0 24 24"><g style="mix-blend-mode:passthrough"><g style="mix-blend-mode:passthrough"><g style="mix-blend-mode:passthrough"><g style="mix-blend-mode:passthrough"><path d="M17.619999885559082,9.619999885559082C17.619999885559082,9.619999885559082,12.369999885559082,9.619999885559082,12.369999885559082,9.619999885559082C11.959999885559082,9.619999885559082,11.619999885559082,9.279999885559082,11.619999885559082,8.869999885559082C11.619999885559082,8.459999885559082,11.959999885559082,8.119999885559082,12.369999885559082,8.119999885559082C12.369999885559082,8.119999885559082,17.619999885559082,8.119999885559082,17.619999885559082,8.119999885559082C18.029999885559082,8.119999885559082,18.369999885559082,8.459999885559082,18.369999885559082,8.869999885559082C18.369999885559082,9.279999885559082,18.039999885559084,9.619999885559082,17.619999885559082,9.619999885559082C17.619999885559082,9.619999885559082,17.619999885559082,9.619999885559082,17.619999885559082,9.619999885559082Z" fill="#000000" fill-opacity="1"/></g><g style="mix-blend-mode:passthrough"><path d="M7.1199999427795415,10.37999969482422C6.929999942779541,10.37999969482422,6.739999942779541,10.309999694824219,6.589999942779541,10.159999694824219C6.589999942779541,10.159999694824219,5.839999942779541,9.409999694824219,5.839999942779541,9.409999694824219C5.549999942779541,9.11999969482422,5.549999942779541,8.639999694824219,5.839999942779541,8.349999694824218C6.129999942779541,8.059999694824219,6.609999942779541,8.059999694824219,6.899999942779541,8.349999694824218C6.899999942779541,8.349999694824218,7.1199999427795415,8.569999694824219,7.1199999427795415,8.569999694824219C7.1199999427795415,8.569999694824219,8.83999994277954,6.849999694824219,8.83999994277954,6.849999694824219C9.129999942779541,6.559999694824219,9.609999942779542,6.559999694824219,9.89999994277954,6.849999694824219C10.18999994277954,7.139999694824219,10.18999994277954,7.619999694824219,9.89999994277954,7.909999694824219C9.89999994277954,7.909999694824219,7.649999942779541,10.159999694824219,7.649999942779541,10.159999694824219C7.509999942779541,10.29999969482422,7.319999942779541,10.37999969482422,7.1199999427795415,10.37999969482422C7.1199999427795415,10.37999969482422,7.1199999427795415,10.37999969482422,7.1199999427795415,10.37999969482422Z" fill="#000000" fill-opacity="1"/></g><g style="mix-blend-mode:passthrough"><path d="M17.619999885559082,16.619999885559082C17.619999885559082,16.619999885559082,12.369999885559082,16.619999885559082,12.369999885559082,16.619999885559082C11.959999885559082,16.619999885559082,11.619999885559082,16.279999885559082,11.619999885559082,15.869999885559082C11.619999885559082,15.459999885559082,11.959999885559082,15.119999885559082,12.369999885559082,15.119999885559082C12.369999885559082,15.119999885559082,17.619999885559082,15.119999885559082,17.619999885559082,15.119999885559082C18.029999885559082,15.119999885559082,18.369999885559082,15.459999885559082,18.369999885559082,15.869999885559082C18.369999885559082,16.279999885559082,18.039999885559084,16.619999885559082,17.619999885559082,16.619999885559082C17.619999885559082,16.619999885559082,17.619999885559082,16.619999885559082,17.619999885559082,16.619999885559082Z" fill="#000000" fill-opacity="1"/></g><g style="mix-blend-mode:passthrough"><path d="M7.1199999427795415,17.380000648498534C6.929999942779541,17.380000648498534,6.739999942779541,17.310000648498537,6.589999942779541,17.160000648498535C6.589999942779541,17.160000648498535,5.839999942779541,16.410000648498535,5.839999942779541,16.410000648498535C5.549999942779541,16.120000648498536,5.549999942779541,15.640000648498535,5.839999942779541,15.350000648498535C6.129999942779541,15.060000648498535,6.609999942779541,15.060000648498535,6.899999942779541,15.350000648498535C6.899999942779541,15.350000648498535,7.1199999427795415,15.570000648498535,7.1199999427795415,15.570000648498535C7.1199999427795415,15.570000648498535,8.83999994277954,13.850000648498535,8.83999994277954,13.850000648498535C9.129999942779541,13.560000648498535,9.609999942779542,13.560000648498535,9.89999994277954,13.850000648498535C10.18999994277954,14.140000648498535,10.18999994277954,14.620000648498536,9.89999994277954,14.910000648498535C9.89999994277954,14.910000648498535,7.649999942779541,17.160000648498535,7.649999942779541,17.160000648498535C7.509999942779541,17.300000648498536,7.319999942779541,17.380000648498534,7.1199999427795415,17.380000648498534C7.1199999427795415,17.380000648498534,7.1199999427795415,17.380000648498534,7.1199999427795415,17.380000648498534Z" fill="#000000" fill-opacity="1"/></g><g style="opacity:0;mix-blend-mode:passthrough"></g><g style="mix-blend-mode:passthrough"><path d="M15,22.75C15,22.75,9,22.75,9,22.75C3.57,22.75,1.25,20.43,1.25,15C1.25,15,1.25,9,1.25,9C1.25,3.57,3.57,1.25,9,1.25C9,1.25,15,1.25,15,1.25C20.43,1.25,22.75,3.57,22.75,9C22.75,9,22.75,15,22.75,15C22.75,20.43,20.43,22.75,15,22.75C15,22.75,15,22.75,15,22.75ZM9,2.75C4.390000000000001,2.75,2.75,4.390000000000001,2.75,9C2.75,9,2.75,15,2.75,15C2.75,19.61,4.390000000000001,21.25,9,21.25C9,21.25,15,21.25,15,21.25C19.61,21.25,21.25,19.61,21.25,15C21.25,15,21.25,9,21.25,9C21.25,4.390000000000001,19.61,2.75,15,2.75C15,2.75,9,2.75,9,2.75C9,2.75,9,2.75,9,2.75Z" fill="#000000" fill-opacity="1"/></g></g></g></g></svg>