<svg xmlns="http://www.w3.org/2000/svg" xmlns:xlink="http://www.w3.org/1999/xlink" fill="none" version="1.1" width="24" height="24" viewBox="0 0 24 24"><g style="mix-blend-mode:passthrough"><g style="mix-blend-mode:passthrough"><g style="mix-blend-mode:passthrough"><g style="opacity:0.4000000059604645;mix-blend-mode:passthrough"><path d="M12.369999885559082,8.130000114440918C11.955785885559083,8.130000114440918,11.619999885559082,8.465786114440919,11.619999885559082,8.880000114440918C11.619999885559082,9.294210114440919,11.955785885559083,9.630000114440918,12.369999885559082,9.630000114440918C12.369999885559082,9.630000114440918,12.369999885559082,8.130000114440918,12.369999885559082,8.130000114440918C12.369999885559082,8.130000114440918,12.369999885559082,8.130000114440918,12.369999885559082,8.130000114440918ZM17.619999885559082,9.630000114440918C18.034209885559083,9.630000114440918,18.369999885559082,9.294210114440919,18.369999885559082,8.880000114440918C18.369999885559082,8.465786114440919,18.034209885559083,8.130000114440918,17.619999885559082,8.130000114440918C17.619999885559082,8.130000114440918,17.619999885559082,9.630000114440918,17.619999885559082,9.630000114440918C17.619999885559082,9.630000114440918,17.619999885559082,9.630000114440918,17.619999885559082,9.630000114440918ZM12.369999885559082,9.630000114440918C12.369999885559082,9.630000114440918,17.619999885559082,9.630000114440918,17.619999885559082,9.630000114440918C17.619999885559082,9.630000114440918,17.619999885559082,8.130000114440918,17.619999885559082,8.130000114440918C17.619999885559082,8.130000114440918,12.369999885559082,8.130000114440918,12.369999885559082,8.130000114440918C12.369999885559082,8.130000114440918,12.369999885559082,9.630000114440918,12.369999885559082,9.630000114440918C12.369999885559082,9.630000114440918,12.369999885559082,9.630000114440918,12.369999885559082,9.630000114440918Z" fill="#000000" fill-opacity="1"/></g><g style="opacity:0.4000000059604645;mix-blend-mode:passthrough"><path d="M6.910330591278076,8.349670591278077C6.617437591278076,8.056780591278077,6.142563591278076,8.056780591278077,5.849670591278076,8.349670591278077C5.556777391278076,8.642560591278077,5.556777391278076,9.117440591278076,5.849670591278076,9.410330591278075C5.849670591278076,9.410330591278075,6.910330591278076,8.349670591278077,6.910330591278076,8.349670591278077C6.910330591278076,8.349670591278077,6.910330591278076,8.349670591278077,6.910330591278076,8.349670591278077ZM7.130000591278076,9.630000591278076C7.130000591278076,9.630000591278076,6.599670591278076,10.160330591278075,6.599670591278076,10.160330591278075C6.892560591278076,10.453220591278075,7.3674405912780765,10.453220591278075,7.660330591278076,10.160330591278075C7.660330591278076,10.160330591278075,7.130000591278076,9.630000591278076,7.130000591278076,9.630000591278076C7.130000591278076,9.630000591278076,7.130000591278076,9.630000591278076,7.130000591278076,9.630000591278076ZM9.910330591278075,7.910330591278076C10.203220591278075,7.617437591278076,10.203220591278075,7.142563591278076,9.910330591278075,6.849670591278076C9.617440591278076,6.556777391278076,9.142560591278077,6.556777391278076,8.849670591278077,6.849670591278076C8.849670591278077,6.849670591278076,9.910330591278075,7.910330591278076,9.910330591278075,7.910330591278076C9.910330591278075,7.910330591278076,9.910330591278075,7.910330591278076,9.910330591278075,7.910330591278076ZM5.849670591278076,9.410330591278075C5.849670591278076,9.410330591278075,6.599670591278076,10.160330591278075,6.599670591278076,10.160330591278075C6.599670591278076,10.160330591278075,7.660330591278076,9.099670591278077,7.660330591278076,9.099670591278077C7.660330591278076,9.099670591278077,6.910330591278076,8.349670591278077,6.910330591278076,8.349670591278077C6.910330591278076,8.349670591278077,5.849670591278076,9.410330591278075,5.849670591278076,9.410330591278075C5.849670591278076,9.410330591278075,5.849670591278076,9.410330591278075,5.849670591278076,9.410330591278075ZM7.660330591278076,10.160330591278075C7.660330591278076,10.160330591278075,9.910330591278075,7.910330591278076,9.910330591278075,7.910330591278076C9.910330591278075,7.910330591278076,8.849670591278077,6.849670591278076,8.849670591278077,6.849670591278076C8.849670591278077,6.849670591278076,6.599670591278076,9.099670591278077,6.599670591278076,9.099670591278077C6.599670591278076,9.099670591278077,7.660330591278076,10.160330591278075,7.660330591278076,10.160330591278075C7.660330591278076,10.160330591278075,7.660330591278076,10.160330591278075,7.660330591278076,10.160330591278075Z" fill="#000000" fill-opacity="1"/></g><g style="opacity:0.4000000059604645;mix-blend-mode:passthrough"><path d="M12.369999885559082,15.130000114440918C11.955785885559083,15.130000114440918,11.619999885559082,15.465786114440919,11.619999885559082,15.880000114440918C11.619999885559082,16.29421011444092,11.955785885559083,16.630000114440918,12.369999885559082,16.630000114440918C12.369999885559082,16.630000114440918,12.369999885559082,15.130000114440918,12.369999885559082,15.130000114440918C12.369999885559082,15.130000114440918,12.369999885559082,15.130000114440918,12.369999885559082,15.130000114440918ZM17.619999885559082,16.630000114440918C18.034209885559083,16.630000114440918,18.369999885559082,16.29421011444092,18.369999885559082,15.880000114440918C18.369999885559082,15.465786114440919,18.034209885559083,15.130000114440918,17.619999885559082,15.130000114440918C17.619999885559082,15.130000114440918,17.619999885559082,16.630000114440918,17.619999885559082,16.630000114440918C17.619999885559082,16.630000114440918,17.619999885559082,16.630000114440918,17.619999885559082,16.630000114440918ZM12.369999885559082,16.630000114440918C12.369999885559082,16.630000114440918,17.619999885559082,16.630000114440918,17.619999885559082,16.630000114440918C17.619999885559082,16.630000114440918,17.619999885559082,15.130000114440918,17.619999885559082,15.130000114440918C17.619999885559082,15.130000114440918,12.369999885559082,15.130000114440918,12.369999885559082,15.130000114440918C12.369999885559082,15.130000114440918,12.369999885559082,16.630000114440918,12.369999885559082,16.630000114440918C12.369999885559082,16.630000114440918,12.369999885559082,16.630000114440918,12.369999885559082,16.630000114440918Z" fill="#000000" fill-opacity="1"/></g><g style="opacity:0.4000000059604645;mix-blend-mode:passthrough"><path d="M6.910330591278076,15.349670114440919C6.617437591278076,15.056780114440919,6.142563591278076,15.056780114440919,5.849670591278076,15.349670114440919C5.556777391278076,15.642560114440919,5.556777391278076,16.117440114440917,5.849670591278076,16.410330114440917C5.849670591278076,16.410330114440917,6.910330591278076,15.349670114440919,6.910330591278076,15.349670114440919C6.910330591278076,15.349670114440919,6.910330591278076,15.349670114440919,6.910330591278076,15.349670114440919ZM7.130000591278076,16.630000114440918C7.130000591278076,16.630000114440918,6.599670591278076,17.160330114440917,6.599670591278076,17.160330114440917C6.892560591278076,17.453220114440917,7.3674405912780765,17.453220114440917,7.660330591278076,17.160330114440917C7.660330591278076,17.160330114440917,7.130000591278076,16.630000114440918,7.130000591278076,16.630000114440918C7.130000591278076,16.630000114440918,7.130000591278076,16.630000114440918,7.130000591278076,16.630000114440918ZM9.910330591278075,14.910330114440917C10.203220591278075,14.617437114440918,10.203220591278075,14.142563114440918,9.910330591278075,13.849670114440919C9.617440591278076,13.556776914440919,9.142560591278077,13.556776914440919,8.849670591278077,13.849670114440919C8.849670591278077,13.849670114440919,9.910330591278075,14.910330114440917,9.910330591278075,14.910330114440917C9.910330591278075,14.910330114440917,9.910330591278075,14.910330114440917,9.910330591278075,14.910330114440917ZM5.849670591278076,16.410330114440917C5.849670591278076,16.410330114440917,6.599670591278076,17.160330114440917,6.599670591278076,17.160330114440917C6.599670591278076,17.160330114440917,7.660330591278076,16.09967011444092,7.660330591278076,16.09967011444092C7.660330591278076,16.09967011444092,6.910330591278076,15.349670114440919,6.910330591278076,15.349670114440919C6.910330591278076,15.349670114440919,5.849670591278076,16.410330114440917,5.849670591278076,16.410330114440917C5.849670591278076,16.410330114440917,5.849670591278076,16.410330114440917,5.849670591278076,16.410330114440917ZM7.660330591278076,17.160330114440917C7.660330591278076,17.160330114440917,9.910330591278075,14.910330114440917,9.910330591278075,14.910330114440917C9.910330591278075,14.910330114440917,8.849670591278077,13.849670114440919,8.849670591278077,13.849670114440919C8.849670591278077,13.849670114440919,6.599670591278076,16.09967011444092,6.599670591278076,16.09967011444092C6.599670591278076,16.09967011444092,7.660330591278076,17.160330114440917,7.660330591278076,17.160330114440917C7.660330591278076,17.160330114440917,7.660330591278076,17.160330114440917,7.660330591278076,17.160330114440917Z" fill="#000000" fill-opacity="1"/></g><g style="mix-blend-mode:passthrough"><path d="M9,22.75C9,22.75,15,22.75,15,22.75C15,22.75,15,21.25,15,21.25C15,21.25,9,21.25,9,21.25C9,21.25,9,22.75,9,22.75C9,22.75,9,22.75,9,22.75ZM15,22.75C17.574,22.75,19.5709,22.2398,20.9053,20.9053C22.2398,19.5709,22.75,17.574,22.75,15C22.75,15,21.25,15,21.25,15C21.25,17.426,20.7602,18.9291,19.8447,19.8447C18.9291,20.7602,17.426,21.25,15,21.25C15,21.25,15,22.75,15,22.75C15,22.75,15,22.75,15,22.75ZM22.75,15C22.75,15,22.75,9,22.75,9C22.75,9,21.25,9,21.25,9C21.25,9,21.25,15,21.25,15C21.25,15,22.75,15,22.75,15C22.75,15,22.75,15,22.75,15ZM22.75,9C22.75,6.42603,22.2398,4.42914,20.9053,3.09467C19.5709,1.760201,17.574,1.25,15,1.25C15,1.25,15,2.75,15,2.75C17.426,2.75,18.9291,3.2398,19.8447,4.15533C20.7602,5.07086,21.25,6.57397,21.25,9C21.25,9,22.75,9,22.75,9C22.75,9,22.75,9,22.75,9ZM15,1.25C15,1.25,9,1.25,9,1.25C9,1.25,9,2.75,9,2.75C9,2.75,15,2.75,15,2.75C15,2.75,15,1.25,15,1.25C15,1.25,15,1.25,15,1.25ZM9,1.25C6.42603,1.25,4.42914,1.760201,3.09467,3.09467C1.760201,4.42914,1.25,6.42603,1.25,9C1.25,9,2.75,9,2.75,9C2.75,6.57397,3.2398,5.07086,4.15533,4.15533C5.07086,3.2398,6.57397,2.75,9,2.75C9,2.75,9,1.25,9,1.25C9,1.25,9,1.25,9,1.25ZM1.25,9C1.25,9,1.25,15,1.25,15C1.25,15,2.75,15,2.75,15C2.75,15,2.75,9,2.75,9C2.75,9,1.25,9,1.25,9C1.25,9,1.25,9,1.25,9ZM1.25,15C1.25,17.574,1.760201,19.5709,3.09467,20.9053C4.42914,22.2398,6.42603,22.75,9,22.75C9,22.75,9,21.25,9,21.25C6.57397,21.25,5.07086,20.7602,4.15533,19.8447C3.2398,18.9291,2.75,17.426,2.75,15C2.75,15,1.25,15,1.25,15C1.25,15,1.25,15,1.25,15Z" fill="#000000" fill-opacity="1"/></g><g style="opacity:0;mix-blend-mode:passthrough"></g></g></g></g></svg>