<svg xmlns="http://www.w3.org/2000/svg" xmlns:xlink="http://www.w3.org/1999/xlink" fill="none" version="1.1" width="20" height="20" viewBox="0 0 20 20"><g style="mix-blend-mode:passthrough"><g style="mix-blend-mode:passthrough"><g style="mix-blend-mode:passthrough"><g style="opacity:0.4000000059604645;mix-blend-mode:passthrough"><path d="M14.19,0C14.19,0,5.81,0,5.81,0C2.17,0,0,2.17,0,5.81C0,5.81,0,14.19,0,14.19C0,17.83,2.17,20,5.81,20C5.81,20,14.19,20,14.19,20C17.83,20,20,17.83,20,14.19C20,14.19,20,5.81,20,5.81C20,2.17,17.83,0,14.19,0C14.19,0,14.19,0,14.19,0Z" fill="#000000" fill-opacity="1"/></g><g style="mix-blend-mode:passthrough"><path d="M16.3100004196167,6.869999885559082C16.3100004196167,7.279999885559082,15.9800004196167,7.619999885559082,15.5600004196167,7.619999885559082C15.5600004196167,7.619999885559082,10.3100004196167,7.619999885559082,10.3100004196167,7.619999885559082C9.900000419616699,7.619999885559082,9.5600004196167,7.279999885559082,9.5600004196167,6.869999885559082C9.5600004196167,6.459999885559082,9.900000419616699,6.119999885559082,10.3100004196167,6.119999885559082C10.3100004196167,6.119999885559082,15.5600004196167,6.119999885559082,15.5600004196167,6.119999885559082C15.9800004196167,6.119999885559082,16.3100004196167,6.459999885559082,16.3100004196167,6.869999885559082C16.3100004196167,6.869999885559082,16.3100004196167,6.869999885559082,16.3100004196167,6.869999885559082Z" fill="#000000" fill-opacity="1"/></g><g style="mix-blend-mode:passthrough"><path d="M7.969999942779541,5.899999465942383C7.969999942779541,5.899999465942383,5.719999942779541,8.149999465942383,5.719999942779541,8.149999465942383C5.569999942779541,8.299999465942383,5.379999942779541,8.369999465942383,5.189999942779541,8.369999465942383C4.9999999427795405,8.369999465942383,4.799999942779541,8.299999465942383,4.659999942779541,8.149999465942383C4.659999942779541,8.149999465942383,3.909999942779541,7.399999465942383,3.909999942779541,7.399999465942383C3.609999942779541,7.109999465942383,3.609999942779541,6.629999465942383,3.909999942779541,6.339999465942383C4.199999942779541,6.049999465942383,4.669999942779541,6.049999465942383,4.969999942779541,6.339999465942383C4.969999942779541,6.339999465942383,5.189999942779541,6.559999465942383,5.189999942779541,6.559999465942383C5.189999942779541,6.559999465942383,6.909999942779541,4.839999465942383,6.909999942779541,4.839999465942383C7.199999942779542,4.549999465942383,7.6699999427795404,4.549999465942383,7.969999942779541,4.839999465942383C8.25999994277954,5.129999465942383,8.25999994277954,5.609999465942383,7.969999942779541,5.899999465942383C7.969999942779541,5.899999465942383,7.969999942779541,5.899999465942383,7.969999942779541,5.899999465942383Z" fill="#000000" fill-opacity="1"/></g><g style="mix-blend-mode:passthrough"><path d="M16.3100004196167,13.869999885559082C16.3100004196167,14.279999885559082,15.9800004196167,14.619999885559082,15.5600004196167,14.619999885559082C15.5600004196167,14.619999885559082,10.3100004196167,14.619999885559082,10.3100004196167,14.619999885559082C9.900000419616699,14.619999885559082,9.5600004196167,14.279999885559082,9.5600004196167,13.869999885559082C9.5600004196167,13.459999885559082,9.900000419616699,13.119999885559082,10.3100004196167,13.119999885559082C10.3100004196167,13.119999885559082,15.5600004196167,13.119999885559082,15.5600004196167,13.119999885559082C15.9800004196167,13.119999885559082,16.3100004196167,13.459999885559082,16.3100004196167,13.869999885559082C16.3100004196167,13.869999885559082,16.3100004196167,13.869999885559082,16.3100004196167,13.869999885559082Z" fill="#000000" fill-opacity="1"/></g><g style="mix-blend-mode:passthrough"><path d="M7.969999942779541,12.900000419616699C7.969999942779541,12.900000419616699,5.719999942779541,15.150000419616699,5.719999942779541,15.150000419616699C5.569999942779541,15.3000004196167,5.379999942779541,15.3700004196167,5.189999942779541,15.3700004196167C4.9999999427795405,15.3700004196167,4.799999942779541,15.3000004196167,4.659999942779541,15.150000419616699C4.659999942779541,15.150000419616699,3.909999942779541,14.400000419616699,3.909999942779541,14.400000419616699C3.609999942779541,14.1100004196167,3.609999942779541,13.6300004196167,3.909999942779541,13.340000419616699C4.199999942779541,13.0500004196167,4.669999942779541,13.0500004196167,4.969999942779541,13.340000419616699C4.969999942779541,13.340000419616699,5.189999942779541,13.5600004196167,5.189999942779541,13.5600004196167C5.189999942779541,13.5600004196167,6.909999942779541,11.840000419616699,6.909999942779541,11.840000419616699C7.199999942779542,11.5500004196167,7.6699999427795404,11.5500004196167,7.969999942779541,11.840000419616699C8.25999994277954,12.1300004196167,8.25999994277954,12.6100004196167,7.969999942779541,12.900000419616699C7.969999942779541,12.900000419616699,7.969999942779541,12.900000419616699,7.969999942779541,12.900000419616699Z" fill="#000000" fill-opacity="1"/></g></g></g></g></svg>