<svg xmlns="http://www.w3.org/2000/svg" xmlns:xlink="http://www.w3.org/1999/xlink" fill="none" version="1.1" width="24" height="24" viewBox="0 0 24 24"><g style="mix-blend-mode:passthrough"><g style="mix-blend-mode:passthrough"><g style="mix-blend-mode:passthrough"><g style="mix-blend-mode:passthrough"><path d="M12,13.75C11.59,13.75,11.25,13.41,11.25,13C11.25,13,11.25,8,11.25,8C11.25,7.59,11.59,7.25,12,7.25C12.41,7.25,12.75,7.59,12.75,8C12.75,8,12.75,13,12.75,13C12.75,13.41,12.41,13.75,12,13.75C12,13.75,12,13.75,12,13.75Z" fill="#000000" fill-opacity="1"/></g><g style="mix-blend-mode:passthrough"><path d="M14.890000343322754,3.45C14.890000343322754,3.45,9.109999343322754,3.45,9.109999343322754,3.45C8.709999343322753,3.45,8.390000343322754,3.13,8.390000343322754,2.73C8.390000343322754,2.33,8.709999343322753,2,9.109999343322754,2C9.109999343322754,2,14.890000343322754,2,14.890000343322754,2C15.290000343322754,2,15.610000343322753,2.32,15.610000343322753,2.7199999999999998C15.610000343322753,3.12,15.290000343322754,3.45,14.890000343322754,3.45C14.890000343322754,3.45,14.890000343322754,3.45,14.890000343322754,3.45Z" fill="#000000" fill-opacity="1"/></g><g style="opacity:0.4000000059604645;mix-blend-mode:passthrough"><path d="M14.999999923706055,19.96999984741211C14.999999923706055,19.96999984741211,14.999999923706055,17.029999847412107,14.999999923706055,17.029999847412107C14.999999923706055,15.759999847412109,15.759999923706054,14.99999984741211,17.029999923706054,14.99999984741211C17.029999923706054,14.99999984741211,19.969999923706055,14.99999984741211,19.969999923706055,14.99999984741211C20.159999923706053,14.99999984741211,20.329999923706055,15.019999847412109,20.499999923706056,15.05999984741211C20.609999923706056,14.49999984741211,20.669999923706055,13.91999984741211,20.669999923706055,13.32999984741211C20.669999923706055,8.54999984741211,16.779999923706054,4.659999847412109,11.999999923706055,4.659999847412109C7.219999923706055,4.659999847412109,3.3299999237060547,8.54999984741211,3.3299999237060547,13.32999984741211C3.3299999237060547,18.10999984741211,7.219999923706055,21.99999984741211,11.999999923706055,21.99999984741211C13.209999923706055,21.99999984741211,14.359999923706054,21.74999984741211,15.409999923706055,21.29999984741211C15.149999923706055,20.95999984741211,14.999999923706055,20.51999984741211,14.999999923706055,19.96999984741211C14.999999923706055,19.96999984741211,14.999999923706055,19.96999984741211,14.999999923706055,19.96999984741211Z" fill="#000000" fill-opacity="1"/></g><g style="mix-blend-mode:passthrough"><path d="M19.97,15C19.97,15,17.03,15,17.03,15C15.760001,15,15,15.760001,15,17.03C15,17.03,15,19.97,15,19.97C15,21.240000000000002,15.760001,22,17.03,22C17.03,22,19.97,22,19.97,22C21.240000000000002,22,22,21.240000000000002,22,19.97C22,19.97,22,17.03,22,17.03C22,15.760001,21.240000000000002,15,19.97,15C19.97,15,19.97,15,19.97,15ZM19.69,19.46C19.69,19.46,18.509999999999998,20.14,18.509999999999998,20.14C18.27,20.28,18.03,20.35,17.81,20.35C17.64,20.35,17.490000000000002,20.31,17.35,20.23C17.03,20.04,16.85,19.67,16.85,19.18C16.85,19.18,16.85,17.82,16.85,17.82C16.85,17.33,17.03,16.96,17.35,16.77C17.67,16.58,18.08,16.62,18.509999999999998,16.86C18.509999999999998,16.86,19.69,17.54,19.69,17.54C20.11,17.79,20.35,18.13,20.35,18.5C20.35,18.87,20.12,19.21,19.69,19.46C19.69,19.46,19.69,19.46,19.69,19.46Z" fill="#000000" fill-opacity="1"/></g><g style="opacity:0;mix-blend-mode:passthrough"></g></g></g></g></svg>