<svg xmlns="http://www.w3.org/2000/svg" xmlns:xlink="http://www.w3.org/1999/xlink" fill="none" version="1.1" width="24" height="24" viewBox="0 0 24 24"><g style="mix-blend-mode:passthrough"><g style="mix-blend-mode:passthrough"><g style="mix-blend-mode:passthrough"><g style="opacity:0.4000000059604645;mix-blend-mode:passthrough"><path d="M12.75,8C12.75,7.585786,12.41421,7.25,12,7.25C11.585786,7.25,11.25,7.585786,11.25,8C11.25,8,12.75,8,12.75,8C12.75,8,12.75,8,12.75,8ZM11.25,13C11.25,13.41421,11.585786,13.75,12,13.75C12.41421,13.75,12.75,13.41421,12.75,13C12.75,13,11.25,13,11.25,13C11.25,13,11.25,13,11.25,13ZM11.25,8C11.25,8,11.25,13,11.25,13C11.25,13,12.75,13,12.75,13C12.75,13,12.75,8,12.75,8C12.75,8,11.25,8,11.25,8C11.25,8,11.25,8,11.25,8Z" fill="#000000" fill-opacity="1"/></g><g style="mix-blend-mode:passthrough"><path d="M12,22.75C12.41421,22.75,12.75,22.4142,12.75,22C12.75,21.5858,12.41421,21.25,12,21.25C12,21.25,12,22.75,12,22.75C12,22.75,12,22.75,12,22.75ZM20,13.25C20,13.66421,20.3358,14,20.75,14C21.1642,14,21.5,13.66421,21.5,13.25C21.5,13.25,20,13.25,20,13.25C20,13.25,20,13.25,20,13.25ZM12,21.25C7.58421,21.25,4,17.6658,4,13.25C4,13.25,2.5,13.25,2.5,13.25C2.5,18.4942,6.75579,22.75,12,22.75C12,22.75,12,21.25,12,21.25C12,21.25,12,21.25,12,21.25ZM4,13.25C4,8.834209999999999,7.58421,5.25,12,5.25C12,5.25,12,3.75,12,3.75C6.75579,3.75,2.5,8.005790000000001,2.5,13.25C2.5,13.25,4,13.25,4,13.25C4,13.25,4,13.25,4,13.25ZM12,5.25C16.4158,5.25,20,8.834209999999999,20,13.25C20,13.25,21.5,13.25,21.5,13.25C21.5,8.005790000000001,17.2442,3.75,12,3.75C12,3.75,12,5.25,12,5.25C12,5.25,12,5.25,12,5.25Z" fill="#000000" fill-opacity="1"/></g><g style="opacity:0.4000000059604645;mix-blend-mode:passthrough"><path d="M9,1.25C8.585786,1.25,8.25,1.585786,8.25,2C8.25,2.4142099999999997,8.585786,2.75,9,2.75C9,2.75,9,1.25,9,1.25C9,1.25,9,1.25,9,1.25ZM15,2.75C15.41421,2.75,15.75,2.4142099999999997,15.75,2C15.75,1.585786,15.41421,1.25,15,1.25C15,1.25,15,2.75,15,2.75C15,2.75,15,2.75,15,2.75ZM9,2.75C9,2.75,15,2.75,15,2.75C15,2.75,15,1.25,15,1.25C15,1.25,9,1.25,9,1.25C9,1.25,9,2.75,9,2.75C9,2.75,9,2.75,9,2.75Z" fill="#000000" fill-opacity="1"/></g><g style="opacity:0.4000000059604645;mix-blend-mode:passthrough"><path d="M17.15999961853027,16.03999669921875C17.15999961853027,16.03999669921875,16.783399618530275,16.68859669921875,16.783399618530275,16.68859669921875C16.783399618530275,16.68859669921875,16.783709618530274,16.68877669921875,16.783709618530274,16.68877669921875C16.783709618530274,16.68877669921875,17.15999961853027,16.03999669921875,17.15999961853027,16.03999669921875C17.15999961853027,16.03999669921875,17.15999961853027,16.03999669921875,17.15999961853027,16.03999669921875ZM19.15999961853027,17.19999669921875C19.15999961853027,17.19999669921875,19.536599618530275,16.55140669921875,19.536599618530275,16.55140669921875C19.536599618530275,16.55140669921875,19.536289618530272,16.55122669921875,19.536289618530272,16.55122669921875C19.536289618530272,16.55122669921875,19.15999961853027,17.19999669921875,19.15999961853027,17.19999669921875C19.15999961853027,17.19999669921875,19.15999961853027,17.19999669921875,19.15999961853027,17.19999669921875ZM19.15999961853027,19.80999669921875C19.15999961853027,19.80999669921875,19.536289618530272,20.45876669921875,19.536289618530272,20.45876669921875C19.536289618530272,20.45876669921875,19.536599618530275,20.45858669921875,19.536599618530275,20.45858669921875C19.536599618530275,20.45858669921875,19.15999961853027,19.80999669921875,19.15999961853027,19.80999669921875C19.15999961853027,19.80999669921875,19.15999961853027,19.80999669921875,19.15999961853027,19.80999669921875ZM17.15999961853027,20.96999669921875C17.15999961853027,20.96999669921875,16.783709618530274,20.321216699218752,16.783709618530274,20.321216699218752C16.783709618530274,20.321216699218752,16.783399618530275,20.32140669921875,16.783399618530275,20.32140669921875C16.783399618530275,20.32140669921875,17.15999961853027,20.96999669921875,17.15999961853027,20.96999669921875C17.15999961853027,20.96999669921875,17.15999961853027,20.96999669921875,17.15999961853027,20.96999669921875ZM15.649999618530273,18.499996699218748C15.649999618530273,18.499996699218748,15.649999618530273,17.33999669921875,15.649999618530273,17.33999669921875C15.649999618530273,17.33999669921875,14.149999618530273,17.33999669921875,14.149999618530273,17.33999669921875C14.149999618530273,17.33999669921875,14.149999618530273,18.499996699218748,14.149999618530273,18.499996699218748C14.149999618530273,18.499996699218748,15.649999618530273,18.499996699218748,15.649999618530273,18.499996699218748C15.649999618530273,18.499996699218748,15.649999618530273,18.499996699218748,15.649999618530273,18.499996699218748ZM15.649999618530273,17.33999669921875C15.649999618530273,16.78736669921875,15.840869618530274,16.59039669921875,15.939449618530274,16.53358669921875C16.037749618530274,16.47694669921875,16.303859618530275,16.41015669921875,16.783399618530275,16.68859669921875C16.783399618530275,16.68859669921875,17.536599618530275,15.39140869921875,17.536599618530275,15.39140869921875C16.776139618530273,14.94984769921875,15.912249618530273,14.81805569921875,15.190549618530273,15.23391369921875C14.469133618530273,15.64960769921875,14.149999618530273,16.46263669921875,14.149999618530273,17.33999669921875C14.149999618530273,17.33999669921875,15.649999618530273,17.33999669921875,15.649999618530273,17.33999669921875C15.649999618530273,17.33999669921875,15.649999618530273,17.33999669921875,15.649999618530273,17.33999669921875ZM16.783709618530274,16.68877669921875C16.783709618530274,16.68877669921875,17.783709618530274,17.26876669921875,17.783709618530274,17.26876669921875C17.783709618530274,17.26876669921875,18.536289618530272,15.97122769921875,18.536289618530272,15.97122769921875C18.536289618530272,15.97122769921875,17.536289618530272,15.39122769921875,17.536289618530272,15.39122769921875C17.536289618530272,15.39122769921875,16.783709618530274,16.68877669921875,16.783709618530274,16.68877669921875C16.783709618530274,16.68877669921875,16.783709618530274,16.68877669921875,16.783709618530274,16.68877669921875ZM17.783709618530274,17.26876669921875C17.783709618530274,17.26876669921875,18.783709618530274,17.84876669921875,18.783709618530274,17.84876669921875C18.783709618530274,17.84876669921875,19.536289618530272,16.55122669921875,19.536289618530272,16.55122669921875C19.536289618530272,16.55122669921875,18.536289618530272,15.97122769921875,18.536289618530272,15.97122769921875C18.536289618530272,15.97122769921875,17.783709618530274,17.26876669921875,17.783709618530274,17.26876669921875C17.783709618530274,17.26876669921875,17.783709618530274,17.26876669921875,17.783709618530274,17.26876669921875ZM18.783399618530275,17.84858669921875C19.265229618530274,18.12835669921875,19.339999618530275,18.39222669921875,19.339999618530275,18.50499669921875C19.339999618530275,18.61776669921875,19.265229618530274,18.88162669921875,18.783399618530275,19.16140669921875C18.783399618530275,19.16140669921875,19.536599618530275,20.45858669921875,19.536599618530275,20.45858669921875C20.294769618530275,20.01835669921875,20.839999618530275,19.33722669921875,20.839999618530275,18.50499669921875C20.839999618530275,17.67276669921875,20.294769618530275,16.991636699218752,19.536599618530275,16.55140669921875C19.536599618530275,16.55140669921875,18.783399618530275,17.84858669921875,18.783399618530275,17.84858669921875C18.783399618530275,17.84858669921875,18.783399618530275,17.84858669921875,18.783399618530275,17.84858669921875ZM18.783709618530274,19.16122669921875C18.783709618530274,19.16122669921875,17.783709618530274,19.74122669921875,17.783709618530274,19.74122669921875C17.783709618530274,19.74122669921875,18.536289618530272,21.03876669921875,18.536289618530272,21.03876669921875C18.536289618530272,21.03876669921875,19.536289618530272,20.45876669921875,19.536289618530272,20.45876669921875C19.536289618530272,20.45876669921875,18.783709618530274,19.16122669921875,18.783709618530274,19.16122669921875C18.783709618530274,19.16122669921875,18.783709618530274,19.16122669921875,18.783709618530274,19.16122669921875ZM17.783709618530274,19.74122669921875C17.783709618530274,19.74122669921875,16.783709618530274,20.321226699218748,16.783709618530274,20.321226699218748C16.783709618530274,20.321226699218748,17.536289618530272,21.61876669921875,17.536289618530272,21.61876669921875C17.536289618530272,21.61876669921875,18.536289618530272,21.03876669921875,18.536289618530272,21.03876669921875C18.536289618530272,21.03876669921875,17.783709618530274,19.74122669921875,17.783709618530274,19.74122669921875C17.783709618530274,19.74122669921875,17.783709618530274,19.74122669921875,17.783709618530274,19.74122669921875ZM16.783399618530275,20.32140669921875C16.303859618530275,20.59984669921875,16.037749618530274,20.53304669921875,15.939449618530274,20.47640669921875C15.840869618530274,20.41960669921875,15.649999618530273,20.22262669921875,15.649999618530273,19.66999669921875C15.649999618530273,19.66999669921875,14.149999618530273,19.66999669921875,14.149999618530273,19.66999669921875C14.149999618530273,20.54735669921875,14.469133618530273,21.36038669921875,15.190549618530273,21.77608669921875C15.912249618530273,22.19193669921875,16.776139618530273,22.06014669921875,17.536599618530275,21.61858669921875C17.536599618530275,21.61858669921875,16.783399618530275,20.32140669921875,16.783399618530275,20.32140669921875C16.783399618530275,20.32140669921875,16.783399618530275,20.32140669921875,16.783399618530275,20.32140669921875ZM15.649999618530273,19.66999669921875C15.649999618530273,19.66999669921875,15.649999618530273,18.499996699218748,15.649999618530273,18.499996699218748C15.649999618530273,18.499996699218748,14.149999618530273,18.499996699218748,14.149999618530273,18.499996699218748C14.149999618530273,18.499996699218748,14.149999618530273,19.66999669921875,14.149999618530273,19.66999669921875C14.149999618530273,19.66999669921875,15.649999618530273,19.66999669921875,15.649999618530273,19.66999669921875C15.649999618530273,19.66999669921875,15.649999618530273,19.66999669921875,15.649999618530273,19.66999669921875Z" fill="#000000" fill-opacity="1"/></g><g style="opacity:0;mix-blend-mode:passthrough"></g></g></g></g></svg>