<svg xmlns="http://www.w3.org/2000/svg" xmlns:xlink="http://www.w3.org/1999/xlink" fill="none" version="1.1" width="24" height="24" viewBox="0 0 24 24"><g style="mix-blend-mode:passthrough"><g style="mix-blend-mode:passthrough"><g style="mix-blend-mode:passthrough"><g style="mix-blend-mode:passthrough"><path d="M12,13.75C11.59,13.75,11.25,13.41,11.25,13C11.25,13,11.25,8,11.25,8C11.25,7.59,11.59,7.25,12,7.25C12.41,7.25,12.75,7.59,12.75,8C12.75,8,12.75,13,12.75,13C12.75,13.41,12.41,13.75,12,13.75C12,13.75,12,13.75,12,13.75Z" fill="#000000" fill-opacity="1"/></g><g style="mix-blend-mode:passthrough"><path d="M12,22.75C6.76,22.75,2.5,18.490000000000002,2.5,13.25C2.5,8.01,6.76,3.75,12,3.75C17.240000000000002,3.75,21.5,8.01,21.5,13.25C21.5,13.66,21.16,14,20.75,14C20.34,14,20,13.66,20,13.25C20,8.84,16.41,5.25,12,5.25C7.59,5.25,4,8.84,4,13.25C4,17.66,7.59,21.25,12,21.25C12.41,21.25,12.75,21.59,12.75,22C12.75,22.41,12.41,22.75,12,22.75C12,22.75,12,22.75,12,22.75Z" fill="#000000" fill-opacity="1"/></g><g style="mix-blend-mode:passthrough"><path d="M15,2.75C15,2.75,9,2.75,9,2.75C8.59,2.75,8.25,2.41,8.25,2C8.25,1.59,8.59,1.25,9,1.25C9,1.25,15,1.25,15,1.25C15.41,1.25,15.75,1.59,15.75,2C15.75,2.41,15.41,2.75,15,2.75C15,2.75,15,2.75,15,2.75Z" fill="#000000" fill-opacity="1"/></g><g style="mix-blend-mode:passthrough"><path d="M16.149999618530273,22.020003089294434C15.799999618530274,22.020003089294434,15.479999618530274,21.940003089294436,15.189999618530273,21.770003089294434C14.529999618530274,21.39000308929443,14.149999618530273,20.620003089294435,14.149999618530273,19.660003089294435C14.149999618530273,19.660003089294435,14.149999618530273,17.350003089294432,14.149999618530273,17.350003089294432C14.149999618530273,16.390003089294435,14.529999618530274,15.620000089294434,15.189999618530273,15.240000089294433C15.849999618530273,14.860000089294434,16.699999618530274,14.920000189294434,17.529999618530272,15.390000089294434C17.529999618530272,15.390000089294434,19.529999618530272,16.550003089294435,19.529999618530272,16.550003089294435C20.359999618530274,17.030003089294432,20.839999618530275,17.740003089294433,20.839999618530275,18.500003089294434C20.839999618530275,19.260003089294432,20.359999618530274,19.970003089294433,19.529999618530272,20.450003089294434C19.529999618530272,20.450003089294434,17.529999618530272,21.610003089294434,17.529999618530272,21.610003089294434C17.069999618530275,21.880003089294433,16.599999618530273,22.020003089294434,16.149999618530273,22.020003089294434C16.149999618530273,22.020003089294434,16.149999618530273,22.020003089294434,16.149999618530273,22.020003089294434ZM16.15999961853027,16.480003089294435C16.079999618530273,16.480003089294435,15.999999618530273,16.500003089294434,15.939999618530273,16.530003089294432C15.759999618530273,16.630003089294433,15.649999618530273,16.940003089294432,15.649999618530273,17.340003089294434C15.649999618530273,17.340003089294434,15.649999618530273,19.650003089294433,15.649999618530273,19.650003089294433C15.649999618530273,20.050003089294435,15.759999618530273,20.360003089294434,15.939999618530273,20.460003089294432C16.119999618530272,20.560003089294433,16.439999618530273,20.510003089294432,16.779999618530272,20.310003089294433C16.779999618530272,20.310003089294433,18.779999618530272,19.150003089294433,18.779999618530272,19.150003089294433C19.129999618530274,18.950003089294434,19.339999618530275,18.700003089294434,19.339999618530275,18.500003089294434C19.339999618530275,18.300003089294435,19.129999618530274,18.050003089294435,18.779999618530272,17.850003089294432C18.779999618530272,17.850003089294432,16.779999618530272,16.690003089294432,16.779999618530272,16.690003089294432C16.549999618530272,16.550003089294435,16.329999618530273,16.480003089294435,16.15999961853027,16.480003089294435C16.15999961853027,16.480003089294435,16.15999961853027,16.480003089294435,16.15999961853027,16.480003089294435Z" fill="#000000" fill-opacity="1"/></g><g style="opacity:0;mix-blend-mode:passthrough"></g></g></g></g></svg>