<svg xmlns="http://www.w3.org/2000/svg" xmlns:xlink="http://www.w3.org/1999/xlink" fill="none" version="1.1" width="24" height="24" viewBox="0 0 24 24"><g style="mix-blend-mode:passthrough"><g style="mix-blend-mode:passthrough"><g style="mix-blend-mode:passthrough"><g style="mix-blend-mode:passthrough"><path d="M17.18000030517578,18.75C18.51971030517578,18.75,19.51936030517578,18.3684,20.157800305175783,17.596899999999998C20.77237030517578,16.854300000000002,20.93000030517578,15.8922,20.93000030517578,15C20.93000030517578,15,19.43000030517578,15,19.43000030517578,15C19.43000030517578,15.7578,19.28763030517578,16.2957,19.00220030517578,16.6406C18.74064030517578,16.9566,18.240290305175783,17.25,17.18000030517578,17.25C17.18000030517578,17.25,17.18000030517578,18.75,17.18000030517578,18.75C17.18000030517578,18.75,17.18000030517578,18.75,17.18000030517578,18.75ZM20.93000030517578,15C20.93000030517578,15,20.93000030517578,9,20.93000030517578,9C20.93000030517578,9,19.43000030517578,9,19.43000030517578,9C19.43000030517578,9,19.43000030517578,15,19.43000030517578,15C19.43000030517578,15,20.93000030517578,15,20.93000030517578,15C20.93000030517578,15,20.93000030517578,15,20.93000030517578,15ZM20.93000030517578,9C20.93000030517578,8.10784,20.77237030517578,7.1456800000000005,20.157800305175783,6.40307C19.51936030517578,5.631635,18.51971030517578,5.25,17.18000030517578,5.25C17.18000030517578,5.25,17.18000030517578,6.75,17.18000030517578,6.75C18.240290305175783,6.75,18.74064030517578,7.04336,19.00220030517578,7.35943C19.28763030517578,7.70432,19.43000030517578,8.24216,19.43000030517578,9C19.43000030517578,9,20.93000030517578,9,20.93000030517578,9C20.93000030517578,9,20.93000030517578,9,20.93000030517578,9ZM17.18000030517578,5.25C15.840290305175781,5.25,14.840640305175782,5.631635,14.202204305175782,6.40307C13.587633305175782,7.1456800000000005,13.430000305175781,8.10784,13.430000305175781,9C13.430000305175781,9,14.930000305175781,9,14.930000305175781,9C14.930000305175781,8.24216,15.072370305175781,7.70432,15.35780030517578,7.35943C15.619360305175782,7.04336,16.11971030517578,6.75,17.18000030517578,6.75C17.18000030517578,6.75,17.18000030517578,5.25,17.18000030517578,5.25C17.18000030517578,5.25,17.18000030517578,5.25,17.18000030517578,5.25ZM13.430000305175781,9C13.430000305175781,9,13.430000305175781,15,13.430000305175781,15C13.430000305175781,15,14.930000305175781,15,14.930000305175781,15C14.930000305175781,15,14.930000305175781,9,14.930000305175781,9C14.930000305175781,9,13.430000305175781,9,13.430000305175781,9C13.430000305175781,9,13.430000305175781,9,13.430000305175781,9ZM13.430000305175781,15C13.430000305175781,15.8922,13.587633305175782,16.854300000000002,14.202204305175782,17.596899999999998C14.840640305175782,18.3684,15.840290305175781,18.75,17.18000030517578,18.75C17.18000030517578,18.75,17.18000030517578,17.25,17.18000030517578,17.25C16.11971030517578,17.25,15.619360305175782,16.9566,15.35780030517578,16.6406C15.072370305175781,16.2957,14.930000305175781,15.7578,14.930000305175781,15C14.930000305175781,15,13.430000305175781,15,13.430000305175781,15C13.430000305175781,15,13.430000305175781,15,13.430000305175781,15Z" fill="#000000" fill-opacity="1"/></g><g style="mix-blend-mode:passthrough"><path d="M6.819999933242798,17.25C5.759709933242798,17.25,5.2593599332427985,16.9566,4.997799933242797,16.6406C4.7123699332427975,16.2957,4.569999933242798,15.7578,4.569999933242798,15C4.569999933242798,15,3.069999933242798,15,3.069999933242798,15C3.069999933242798,15.8922,3.227632933242798,16.854300000000002,3.8422039332427977,17.596899999999998C4.480639933242798,18.3684,5.480289933242798,18.75,6.819999933242798,18.75C6.819999933242798,18.75,6.819999933242798,17.25,6.819999933242798,17.25C6.819999933242798,17.25,6.819999933242798,17.25,6.819999933242798,17.25ZM4.569999933242798,15C4.569999933242798,15,4.569999933242798,9,4.569999933242798,9C4.569999933242798,9,3.069999933242798,9,3.069999933242798,9C3.069999933242798,9,3.069999933242798,15,3.069999933242798,15C3.069999933242798,15,4.569999933242798,15,4.569999933242798,15C4.569999933242798,15,4.569999933242798,15,4.569999933242798,15ZM4.569999933242798,9C4.569999933242798,8.24216,4.7123699332427975,7.70432,4.997799933242797,7.35943C5.2593599332427985,7.04336,5.759709933242798,6.75,6.819999933242798,6.75C6.819999933242798,6.75,6.819999933242798,5.25,6.819999933242798,5.25C5.480289933242798,5.25,4.480639933242798,5.631635,3.8422039332427977,6.40307C3.227632933242798,7.1456800000000005,3.069999933242798,8.10784,3.069999933242798,9C3.069999933242798,9,4.569999933242798,9,4.569999933242798,9C4.569999933242798,9,4.569999933242798,9,4.569999933242798,9ZM6.819999933242798,6.75C7.880289933242798,6.75,8.380639933242797,7.04336,8.642199933242797,7.35943C8.927629933242798,7.70432,9.069999933242798,8.24216,9.069999933242798,9C9.069999933242798,9,10.569999933242798,9,10.569999933242798,9C10.569999933242798,8.10784,10.412369933242797,7.1456800000000005,9.797799933242798,6.40307C9.159359933242797,5.631635,8.159719933242798,5.25,6.819999933242798,5.25C6.819999933242798,5.25,6.819999933242798,6.75,6.819999933242798,6.75C6.819999933242798,6.75,6.819999933242798,6.75,6.819999933242798,6.75ZM9.069999933242798,9C9.069999933242798,9,9.069999933242798,15,9.069999933242798,15C9.069999933242798,15,10.569999933242798,15,10.569999933242798,15C10.569999933242798,15,10.569999933242798,9,10.569999933242798,9C10.569999933242798,9,9.069999933242798,9,9.069999933242798,9C9.069999933242798,9,9.069999933242798,9,9.069999933242798,9ZM9.069999933242798,15C9.069999933242798,15.7578,8.927629933242798,16.2957,8.642199933242797,16.6406C8.380639933242797,16.9566,7.880289933242798,17.25,6.819999933242798,17.25C6.819999933242798,17.25,6.819999933242798,18.75,6.819999933242798,18.75C8.159719933242798,18.75,9.159359933242797,18.3684,9.797799933242798,17.596899999999998C10.412369933242797,16.854300000000002,10.569999933242798,15.8922,10.569999933242798,15C10.569999933242798,15,9.069999933242798,15,9.069999933242798,15C9.069999933242798,15,9.069999933242798,15,9.069999933242798,15Z" fill="#000000" fill-opacity="1"/></g><g style="opacity:0.4000000059604645;mix-blend-mode:passthrough"><path d="M9.819999694824219,11.25C9.40578569482422,11.25,9.069999694824219,11.585786,9.069999694824219,12C9.069999694824219,12.41421,9.40578569482422,12.75,9.819999694824219,12.75C9.819999694824219,12.75,9.819999694824219,11.25,9.819999694824219,11.25C9.819999694824219,11.25,9.819999694824219,11.25,9.819999694824219,11.25ZM14.179999694824218,12.75C14.594209694824219,12.75,14.929999694824218,12.41421,14.929999694824218,12C14.929999694824218,11.585786,14.594209694824219,11.25,14.179999694824218,11.25C14.179999694824218,11.25,14.179999694824218,12.75,14.179999694824218,12.75C14.179999694824218,12.75,14.179999694824218,12.75,14.179999694824218,12.75ZM9.819999694824219,12.75C9.819999694824219,12.75,14.179999694824218,12.75,14.179999694824218,12.75C14.179999694824218,12.75,14.179999694824218,11.25,14.179999694824218,11.25C14.179999694824218,11.25,9.819999694824219,11.25,9.819999694824219,11.25C9.819999694824219,11.25,9.819999694824219,12.75,9.819999694824219,12.75C9.819999694824219,12.75,9.819999694824219,12.75,9.819999694824219,12.75Z" fill="#000000" fill-opacity="1"/></g><g style="opacity:0.4000000059604645;mix-blend-mode:passthrough"><path d="M21.75,14.5C21.75,14.91421,22.085786,15.25,22.5,15.25C22.91421,15.25,23.25,14.91421,23.25,14.5C23.25,14.5,21.75,14.5,21.75,14.5C21.75,14.5,21.75,14.5,21.75,14.5ZM23.25,9.5C23.25,9.085786,22.91421,8.75,22.5,8.75C22.085786,8.75,21.75,9.085786,21.75,9.5C21.75,9.5,23.25,9.5,23.25,9.5C23.25,9.5,23.25,9.5,23.25,9.5ZM23.25,14.5C23.25,14.5,23.25,9.5,23.25,9.5C23.25,9.5,21.75,9.5,21.75,9.5C21.75,9.5,21.75,14.5,21.75,14.5C21.75,14.5,23.25,14.5,23.25,14.5C23.25,14.5,23.25,14.5,23.25,14.5Z" fill="#000000" fill-opacity="1"/></g><g style="opacity:0.4000000059604645;mix-blend-mode:passthrough"><path d="M0.75,14.5C0.75,14.91421,1.085786,15.25,1.5,15.25C1.91421,15.25,2.25,14.91421,2.25,14.5C2.25,14.5,0.75,14.5,0.75,14.5C0.75,14.5,0.75,14.5,0.75,14.5ZM2.25,9.5C2.25,9.085786,1.91421,8.75,1.5,8.75C1.085786,8.75,0.75,9.085786,0.75,9.5C0.75,9.5,2.25,9.5,2.25,9.5C2.25,9.5,2.25,9.5,2.25,9.5ZM2.25,14.5C2.25,14.5,2.25,9.5,2.25,9.5C2.25,9.5,0.75,9.5,0.75,9.5C0.75,9.5,0.75,14.5,0.75,14.5C0.75,14.5,2.25,14.5,2.25,14.5C2.25,14.5,2.25,14.5,2.25,14.5Z" fill="#000000" fill-opacity="1"/></g><g style="opacity:0;mix-blend-mode:passthrough"></g></g></g></g></svg>