<svg xmlns="http://www.w3.org/2000/svg" xmlns:xlink="http://www.w3.org/1999/xlink" fill="none" version="1.1" width="24" height="24" viewBox="0 0 24 24"><g style="mix-blend-mode:passthrough"><g style="mix-blend-mode:passthrough"><g style="mix-blend-mode:passthrough"><g style="mix-blend-mode:passthrough"><path d="M17.18000030517578,18.75C15.47000030517578,18.75,13.430000305175781,18.1,13.430000305175781,15C13.430000305175781,15,13.430000305175781,9,13.430000305175781,9C13.430000305175781,5.9,15.47000030517578,5.25,17.18000030517578,5.25C18.890000305175782,5.25,20.93000030517578,5.9,20.93000030517578,9C20.93000030517578,9,20.93000030517578,15,20.93000030517578,15C20.93000030517578,18.1,18.890000305175782,18.75,17.18000030517578,18.75C17.18000030517578,18.75,17.18000030517578,18.75,17.18000030517578,18.75ZM17.18000030517578,6.75C15.56000030517578,6.75,14.930000305175781,7.38,14.930000305175781,9C14.930000305175781,9,14.930000305175781,15,14.930000305175781,15C14.930000305175781,16.619999999999997,15.56000030517578,17.25,17.18000030517578,17.25C18.800000305175782,17.25,19.43000030517578,16.619999999999997,19.43000030517578,15C19.43000030517578,15,19.43000030517578,9,19.43000030517578,9C19.43000030517578,7.38,18.800000305175782,6.75,17.18000030517578,6.75C17.18000030517578,6.75,17.18000030517578,6.75,17.18000030517578,6.75Z" fill="#000000" fill-opacity="1"/></g><g style="mix-blend-mode:passthrough"><path d="M6.819999933242798,18.75C5.109999933242798,18.75,3.069999933242798,18.1,3.069999933242798,15C3.069999933242798,15,3.069999933242798,9,3.069999933242798,9C3.069999933242798,5.9,5.109999933242798,5.25,6.819999933242798,5.25C8.529999933242799,5.25,10.569999933242798,5.9,10.569999933242798,9C10.569999933242798,9,10.569999933242798,15,10.569999933242798,15C10.569999933242798,18.1,8.529999933242799,18.75,6.819999933242798,18.75C6.819999933242798,18.75,6.819999933242798,18.75,6.819999933242798,18.75ZM6.819999933242798,6.75C5.199999933242798,6.75,4.569999933242798,7.38,4.569999933242798,9C4.569999933242798,9,4.569999933242798,15,4.569999933242798,15C4.569999933242798,16.619999999999997,5.199999933242798,17.25,6.819999933242798,17.25C8.439999933242799,17.25,9.069999933242798,16.619999999999997,9.069999933242798,15C9.069999933242798,15,9.069999933242798,9,9.069999933242798,9C9.069999933242798,7.38,8.439999933242799,6.75,6.819999933242798,6.75C6.819999933242798,6.75,6.819999933242798,6.75,6.819999933242798,6.75Z" fill="#000000" fill-opacity="1"/></g><g style="mix-blend-mode:passthrough"><path d="M14.179999694824218,12.75C14.179999694824218,12.75,9.819999694824219,12.75,9.819999694824219,12.75C9.409999694824219,12.75,9.069999694824219,12.41,9.069999694824219,12C9.069999694824219,11.59,9.409999694824219,11.25,9.819999694824219,11.25C9.819999694824219,11.25,14.179999694824218,11.25,14.179999694824218,11.25C14.589999694824218,11.25,14.929999694824218,11.59,14.929999694824218,12C14.929999694824218,12.41,14.59999969482422,12.75,14.179999694824218,12.75C14.179999694824218,12.75,14.179999694824218,12.75,14.179999694824218,12.75Z" fill="#000000" fill-opacity="1"/></g><g style="mix-blend-mode:passthrough"><path d="M22.5,15.25C22.09,15.25,21.75,14.91,21.75,14.5C21.75,14.5,21.75,9.5,21.75,9.5C21.75,9.09,22.09,8.75,22.5,8.75C22.91,8.75,23.25,9.09,23.25,9.5C23.25,9.5,23.25,14.5,23.25,14.5C23.25,14.91,22.91,15.25,22.5,15.25C22.5,15.25,22.5,15.25,22.5,15.25Z" fill="#000000" fill-opacity="1"/></g><g style="mix-blend-mode:passthrough"><path d="M1.5,15.25C1.09,15.25,0.75,14.91,0.75,14.5C0.75,14.5,0.75,9.5,0.75,9.5C0.75,9.09,1.09,8.75,1.5,8.75C1.91,8.75,2.25,9.09,2.25,9.5C2.25,9.5,2.25,14.5,2.25,14.5C2.25,14.91,1.91,15.25,1.5,15.25C1.5,15.25,1.5,15.25,1.5,15.25Z" fill="#000000" fill-opacity="1"/></g><g style="opacity:0;mix-blend-mode:passthrough"></g></g></g></g></svg>