<svg xmlns="http://www.w3.org/2000/svg" xmlns:xlink="http://www.w3.org/1999/xlink" fill="none" version="1.1" width="24" height="24" viewBox="0 0 24 24"><g style="mix-blend-mode:passthrough"><g style="mix-blend-mode:passthrough"><g style="mix-blend-mode:passthrough"><g style="opacity:0.4000000059604645;mix-blend-mode:passthrough"><path d="M17.18000030517578,5.25C15.47000030517578,5.25,13.430000305175781,5.9,13.430000305175781,9C13.430000305175781,9,13.430000305175781,15,13.430000305175781,15C13.430000305175781,18.1,15.47000030517578,18.75,17.18000030517578,18.75C18.890000305175782,18.75,20.93000030517578,18.1,20.93000030517578,15C20.93000030517578,15,20.93000030517578,9,20.93000030517578,9C20.93000030517578,5.9,18.890000305175782,5.25,17.18000030517578,5.25C17.18000030517578,5.25,17.18000030517578,5.25,17.18000030517578,5.25Z" fill="#000000" fill-opacity="1"/></g><g style="opacity:0.4000000059604645;mix-blend-mode:passthrough"><path d="M6.819999933242798,5.25C5.109999933242798,5.25,3.069999933242798,5.9,3.069999933242798,9C3.069999933242798,9,3.069999933242798,15,3.069999933242798,15C3.069999933242798,18.1,5.109999933242798,18.75,6.819999933242798,18.75C8.529999933242799,18.75,10.569999933242798,18.1,10.569999933242798,15C10.569999933242798,15,10.569999933242798,9,10.569999933242798,9C10.569999933242798,5.9,8.529999933242799,5.25,6.819999933242798,5.25C6.819999933242798,5.25,6.819999933242798,5.25,6.819999933242798,5.25Z" fill="#000000" fill-opacity="1"/></g><g style="mix-blend-mode:passthrough"><path d="M13.429999694824218,11.25C13.429999694824218,11.25,10.569999694824219,11.25,10.569999694824219,11.25C10.569999694824219,11.25,10.569999694824219,12.75,10.569999694824219,12.75C10.569999694824219,12.75,13.429999694824218,12.75,13.429999694824218,12.75C13.429999694824218,12.75,13.429999694824218,11.25,13.429999694824218,11.25C13.429999694824218,11.25,13.429999694824218,11.25,13.429999694824218,11.25Z" fill="#000000" fill-opacity="1"/></g><g style="mix-blend-mode:passthrough"><path d="M22.5,15.25C22.09,15.25,21.75,14.91,21.75,14.5C21.75,14.5,21.75,9.5,21.75,9.5C21.75,9.09,22.09,8.75,22.5,8.75C22.91,8.75,23.25,9.09,23.25,9.5C23.25,9.5,23.25,14.5,23.25,14.5C23.25,14.91,22.91,15.25,22.5,15.25C22.5,15.25,22.5,15.25,22.5,15.25Z" fill="#000000" fill-opacity="1"/></g><g style="mix-blend-mode:passthrough"><path d="M1.5,15.25C1.09,15.25,0.75,14.91,0.75,14.5C0.75,14.5,0.75,9.5,0.75,9.5C0.75,9.09,1.09,8.75,1.5,8.75C1.91,8.75,2.25,9.09,2.25,9.5C2.25,9.5,2.25,14.5,2.25,14.5C2.25,14.91,1.91,15.25,1.5,15.25C1.5,15.25,1.5,15.25,1.5,15.25Z" fill="#000000" fill-opacity="1"/></g><g style="opacity:0;mix-blend-mode:passthrough"></g></g></g></g></svg>